SplineFontDB: 3.0
FontName: Gemunu-Sinhala-1
FullName: Gemunu-Sinhala
FamilyName: Gemunu-Sinhala
OS2FamilyName: "AbhayaLibre"
OS2StyleName: "regular"
Weight: Extra
Copyright: Copyright (c) 1997-2015 Pushpananda Ekanayake (http://isiwara.lk), Copyright (c) 2015 mooniak (http://mooniak.com)\n
UComments: "2015-2-15: Created with FontForge (http://fontforge.org) The  Free Font Editor"
Version: 1.0
ItalicAngle: 0
UnderlinePosition: -102
UnderlineWidth: 51
Ascent: 819
Descent: 205
InvalidEm: 0
UFOAscent: 819
UFODescent: -205
LayerCount: 2
Layer: 0 0 "Back" 1
Layer: 1 0 "Fore" 0
FSType: 0
OS2Version: 0
OS2_WeightWidthSlopeOnly: 0
OS2_UseTypoMetrics: 0
CreationTime: 1440051463
ModificationTime: 1450430258
PfmFamily: 16
TTFWeight: 400
TTFWidth: 5
LineGap: 94
VLineGap: 0
OS2TypoAscent: 819
OS2TypoAOffset: 0
OS2TypoDescent: -205
OS2TypoDOffset: 0
OS2TypoLinegap: 94
OS2WinAscent: 918
OS2WinAOffset: 0
OS2WinDescent: 205
OS2WinDOffset: 0
HheadAscent: 918
HheadAOffset: 0
HheadDescent: -205
HheadDOffset: 0
OS2CapHeight: 0
OS2XHeight: 0
OS2Vendor: 'PfEd'
OS2UnicodeRanges: 00000002.00000000.00000000.00000000
Lookup: 1 0 0 "Abhaya Libre Latin-Regular-'sups' Superscript lookup 0" { "Abhaya Libre Latin-Regular-'sups' Superscript lookup 0 subtable"  } ['sups' ('DFLT' <'dflt' > ) ]
Lookup: 4 0 0 "Abhaya Libre Latin-Regular-'frac' Diagonal Fractions lookup 1" { "Abhaya Libre Latin-Regular-'frac' Diagonal Fractions lookup 1 subtable"  } ['frac' ('DFLT' <'dflt' > ) ]
Lookup: 6 0 0 "Abhaya Libre Latin-Regular-'ordn' Ordinals lookup 2" { "Abhaya Libre Latin-Regular-'ordn' Ordinals lookup 2 contextual 0"  "Abhaya Libre Latin-Regular-'ordn' Ordinals lookup 2 contextual 1"  } ['ordn' ('DFLT' <'dflt' > ) ]
Lookup: 1 0 0 "Abhaya Libre Latin-Regular-Single Substitution lookup 3" { "Abhaya Libre Latin-Regular-Single Substitution lookup 3 subtable"  } []
Lookup: 1 0 0 "Abhaya Libre Latin-Regular-Single Substitution lookup 4" { "Abhaya Libre Latin-Regular-Single Substitution lookup 4 subtable"  } []

StartChar: zwj
Encoding: 83 8205 5
GlifName: zwj
Width: 0
VWidth: 0
GlyphClass: 2
Flags: MW
LayerCount: 2
Back
Fore
SplineSet
55.2729 654.956 m 257
 179.729 532 l 257
 123.957 476.901 l 257
 39.5 561.358 l 257
 39.5 -10.5 l 257
 -39.5 -10.5 l 257
 -39.5 561.358 l 257
 -123.957 476.901 l 257
 -179.729 532 l 257
 -55.2729 654.956 l 257
 -179.773 776.456 l 257
 -123.957 831.599 l 257
 5.06054e-14 707.642 l 257
 123.957 831.599 l 257
 179.773 776.456 l 257
 55.2729 654.956 l 257
EndSplineSet
EndChar

StartChar: zwnj
Encoding: 82 8204 6
GlifName: zwnj
Width: 0
VWidth: 0
GlyphClass: 2
Flags: MW
LayerCount: 2
Back
Fore
SplineSet
-39.5 -10.75 m 257
 -39.5 780.75 l 257
 39.5 780.75 l 257
 39.5 -10.75 l 257
 -39.5 -10.75 l 257
EndSplineSet
EndChar

StartChar: si_BRa
Encoding: 320 -1 12
GlifName: si_B_R_a
Width: 515
VWidth: 0
GlyphClass: 2
Flags: HMW
LayerCount: 2
Back
Fore
SplineSet
58.25 -44 m 257
 87.75 -44 l 257
 125.226 -86.958 179.667 -114.25 285 -114.25 c 256
 428 -114.25 535.5 -31.0107 535.5 63.25 c 256
 535.5 78.2842 533.938 90.4463 528.5 102 c 257
 541.5 133 l 257
 559.5 106.333 568.5 74.667 568.5 38 c 256
 568.5 -123.729 443.75 -219 299.75 -219 c 256
 174.652 -219 95.583 -153.333 58.25 -44 c 257
EndSplineSet
Refer: 464 3510 N 1 0 0 1 0 0 2
EndChar

StartChar: si_Bh.halant
Encoding: 323 -1 16
GlifName: si_B_h.halant
Width: 592
VWidth: 0
GlyphClass: 2
Flags: HMW
LayerCount: 2
Back
Fore
SplineSet
466.5 397 m 257
 466.5 681 l 257
 520.5 639 618 634 618 542 c 256
 618 498 583.191 468 540 468 c 256
 525.333 468 510.333 471.333 495 478 c 257
 495 384 l 257
 466.5 397 l 257
495.105 504.273 m 257
 503.6 499.699 514.382 497.413 527.448 497.413 c 256
 559.454 497.413 573 521.915 573 545.438 c 256
 573 586.602 541.17 606.203 495.105 636.587 c 257
 495.105 504.273 l 257
EndSplineSet
Refer: 465 3511 N 1 0 0 1 0 0 2
EndChar

StartChar: si_BhI
Encoding: 324 -1 17
GlifName: si_B_hI_
Width: 592
VWidth: 0
GlyphClass: 2
Flags: HMW
LayerCount: 2
Back
Fore
SplineSet
178.25 537 m 256
 178.25 628 277.234 667 379.25 667 c 256
 484.595 667 587.25 618 587.25 523 c 256
 587.25 461 548.25 413 467.25 407 c 257
 449.25 431 l 257
 451.943 430.867 454.61 430.806 457.25 430.806 c 256
 515.25 430.806 545.25 465.788 545.25 498 c 256
 545.25 552.286 465.924 566 386.25 566 c 256
 304.777 566 249.25 537.781 249.25 503 c 256
 249.25 453.811 353.25 431.492 439.25 431.492 c 256
 440.256 431.492 440.256 431.494 441.25 431.5 c 257
 425.25 407.5 l 257
 265.25 410.833 178.25 462 178.25 537 c 256
EndSplineSet
Refer: 465 3511 N 1 0 0 1 0 0 2
EndChar

StartChar: si_BhIi
Encoding: 325 -1 18
GlifName: si_B_hI_i
Width: 592
VWidth: 0
GlyphClass: 2
Flags: HMW
LayerCount: 2
Back
Fore
SplineSet
421.796 520 m 256
 421.796 487.107 451.332 460.258 488.25 460.258 c 256
 525.168 460.258 554.704 487.107 554.704 520 c 256
 554.704 552.893 525.168 579.742 488.25 579.742 c 256
 451.332 579.742 421.796 552.893 421.796 520 c 256
178.25 537 m 256
 178.25 628 277.234 667 379.25 667 c 256
 484.595 667 587.25 618.415 587.25 525 c 256
 587.25 456.817 530.42 431 488.25 431 c 256
 442.606 431 389.25 463.284 389.25 520 c 256
 389.25 538.988 395.893 554.466 403.25 565.781 c 257
 397.604 565.931 391.928 566 386.25 566 c 256
 304.777 566 249.25 537.781 249.25 503 c 256
 249.25 453.811 353.25 431.492 439.25 431.492 c 256
 440.256 431.492 440.256 431.494 441.25 431.5 c 257
 425.25 406 l 257
 265.25 409.333 178.25 462 178.25 537 c 256
EndSplineSet
Refer: 465 3511 N 1 0 0 1 0 0 2
EndChar

StartChar: si_BhRI
Encoding: 330 -1 19
GlifName: si_B_hR_I_
Width: 670
VWidth: 0
GlyphClass: 2
Flags: HMW
LayerCount: 2
Back
Fore
SplineSet
75.5 -44 m 257
 105 -44 l 257
 138.533 -93.29 195.302 -113.75 308.5 -113.75 c 256
 460.064 -113.75 571.5 -31.0107 571.5 63.25 c 256
 571.5 78.2842 568.75 90.793 561.75 102 c 257
 574.75 133 l 257
 592.75 106.333 601.75 74.667 601.75 38 c 256
 601.75 -123.729 482.55 -219 331 -219 c 256
 191.156 -219 112.833 -153.333 75.5 -44 c 257
EndSplineSet
Refer: 17 -1 N 1 0 0 1 0 0 2
EndChar

StartChar: si_BhRIi
Encoding: 331 -1 20
GlifName: si_B_hR_I_i
Width: 592
VWidth: 0
GlyphClass: 2
Flags: HMW
LayerCount: 2
Back
Fore
SplineSet
421.796 520 m 256
 421.796 487.107 451.332 460.258 488.25 460.258 c 256
 525.168 460.258 554.704 487.107 554.704 520 c 256
 554.704 552.893 525.168 579.742 488.25 579.742 c 256
 451.332 579.742 421.796 552.893 421.796 520 c 256
178.25 537 m 256
 178.25 628 277.234 667 379.25 667 c 256
 484.595 667 587.25 618.415 587.25 525 c 256
 587.25 456.817 530.42 431 488.25 431 c 256
 442.606 431 389.25 463.284 389.25 520 c 256
 389.25 538.988 395.893 554.466 403.25 565.781 c 257
 397.604 565.931 391.928 566 386.25 566 c 256
 304.777 566 249.25 537.781 249.25 503 c 256
 249.25 453.811 353.25 431.492 439.25 431.492 c 256
 440.256 431.492 440.256 431.494 441.25 431.5 c 257
 425.25 406 l 257
 265.25 409.333 178.25 462 178.25 537 c 256
75.5 -44 m 257
 105 -44 l 257
 138.533 -93.29 195.302 -113.75 308.5 -113.75 c 256
 460.064 -113.75 571.5 -31.0107 571.5 63.25 c 256
 571.5 78.2842 568.75 90.793 561.75 102 c 257
 574.75 133 l 257
 592.75 106.333 601.75 74.667 601.75 38 c 256
 601.75 -123.729 482.55 -219 331 -219 c 256
 191.156 -219 112.833 -153.333 75.5 -44 c 257
EndSplineSet
Refer: 465 3511 N 1 0 0 1 0 0 2
EndChar

StartChar: si_BhRa
Encoding: 329 -1 21
GlifName: si_B_hR_a
Width: 592
VWidth: 0
GlyphClass: 2
Flags: HMW
LayerCount: 2
Back
Fore
SplineSet
75.5 -44 m 257
 105 -44 l 257
 138.533 -93.29 195.302 -113.75 308.5 -113.75 c 256
 460.064 -113.75 571.5 -31.0107 571.5 63.25 c 256
 571.5 78.2842 568.75 90.793 561.75 102 c 257
 574.75 133 l 257
 592.75 106.333 601.75 74.667 601.75 38 c 256
 601.75 -123.729 482.55 -219 331 -219 c 256
 191.156 -219 112.833 -153.333 75.5 -44 c 257
EndSplineSet
Refer: 465 3511 N 1 0 0 1 0 0 2
EndChar

StartChar: si_BhUu
Encoding: 327 -1 23
GlifName: si_B_hU_u
Width: 592
VWidth: 0
GlyphClass: 2
Flags: HMW
LayerCount: 2
Back
Fore
SplineSet
372.946 -129 m 256
 372.946 -93.3486 401.934 -72 436.946 -67 c 257
 381.946 -39 l 257
 467.196 -14.5 l 257
 370 2 l 257
 430 15 l 257
 554 -6 l 257
 444.696 -43.25 l 257
 504.946 -76 l 257
 476.946 -83 422.946 -83.4658 422.946 -104.5 c 256
 422.946 -120.922 454.87 -129 496.946 -129 c 256
 550.946 -129 595.175 -112.984 595.175 -82 c 256
 595.175 -77 594.442 -66.9287 589.196 -59 c 257
 623.946 -59 l 257
 627.537 -71.1182 628.25 -82.833 628.25 -94 c 256
 628.25 -161 576.946 -205 494.946 -205 c 256
 436.946 -205 372.946 -187.466 372.946 -129 c 256
EndSplineSet
Refer: 465 3511 N 1 0 0 1 0 0 2
EndChar

StartChar: si_Bha.reph
Encoding: 328 -1 24
GlifName: si_B_ha.reph
Width: 592
VWidth: 0
GlyphClass: 2
Flags: HMW
LayerCount: 2
Back
Fore
SplineSet
296.9 511 m 256
 296.9 490.854 315.128 474.547 337 474.547 c 256
 358.872 474.547 377.1 490.854 377.1 511 c 256
 377.1 531.146 358.872 547.453 337 547.453 c 256
 315.128 547.453 296.9 531.146 296.9 511 c 256
194 530 m 256
 194 594 252.12 631 334 631 c 256
 411 631 475 588 475 517 c 256
 475 493 466.667 471.333 450 452 c 257
 414.25 452 l 257
 427.42 464.387 443 488.734 443 516 c 256
 443 570.521 394 602.5 333 602.5 c 256
 280.222 602.5 226.75 579.99 226.75 530 c 256
 226.75 490.925 269.901 473.688 287.5 471.25 c 257
 279.5 477.25 269 491 269 512 c 256
 269 547 300.354 572 336 572 c 256
 377 572 405 545 405 510 c 256
 405 471 370 445 312 445 c 256
 253 445 194 474 194 530 c 256
EndSplineSet
Refer: 465 3511 N 1 0 0 1 0 0 2
EndChar

StartChar: si_C.halant
Encoding: 136 -1 25
GlifName: si_C_.halant
Width: 539
VWidth: 1000
GlyphClass: 2
Flags: HMW
LayerCount: 2
Back
Fore
SplineSet
509 400 m 5
 385 400 l 5
 385 441 l 6
 385 459.348632812 378.061523438 464 359 464 c 6
 38 464 l 5
 38 550 l 5
 118 550 l 5
 88.6669921875 557.333007812 74 571.666992188 74 593 c 6
 74 632 l 6
 74 659.333007812 90.3330078125 673 123 673 c 6
 507 673 l 5
 507 589 l 5
 230 589 l 6
 212 589 203 584.333007812 203 575 c 4
 203 565.2265625 210.92578125 558 221 558 c 6
 440 558 l 6
 495.44140625 558 509 533.686523438 509 477 c 6
 509 400 l 5
-6 294.165039062 m 5
 162 294.165039062 l 5
 162 200.165039062 l 5
 -6.001953125 200.165039062 l 5
 -6 294.165039062 l 5
508.997070312 415 m 5
 508.997070312 54 l 6
 508.997070312 16.2705078125 496.072265625 0 458.997070312 0 c 6
 95.9970703125 0 l 6
 58.9248046875 0 45.9970703125 16.2734375 45.9970703125 54 c 6
 45.9970703125 150.967773438 l 6
 45.9970703125 183.178710938 53.9267578125 196.333007812 62 204.967773438 c 6
 62 204.967773438 118.86328125 294.174804688 148 294.174804688 c 6
 167.997070312 294.174804688 l 5
 167.997070312 313.161132812 l 6
 167.997070312 322.494140625 162.6640625 327.161132812 151.997070312 327.161132812 c 6
 45.99609375 327.161132812 l 5
 45.99609375 430.161132812 l 5
 228.997070312 430.161132812 l 6
 270.702148438 430.161132812 291.99609375 408.571289062 291.99609375 372.161132812 c 6
 291.99609375 200.174804688 l 5
 205.3984375 200.174804688 l 6
 177.74609375 200.174804688 169.997070312 184.666992188 169.997070312 155.17578125 c 6
 169.997070312 129 l 6
 169.997070312 114.333007812 175.997070312 107 187.997070312 107 c 6
 366.997070312 107 l 6
 378.997070312 107 384.997070312 114.333007812 384.997070312 129 c 6
 384.997070312 415 l 5
 508.997070312 415 l 5
EndSplineSet
EndChar

StartChar: si_CI
Encoding: 137 -1 26
GlifName: si_C_I_
Width: 539
VWidth: 1000
GlyphClass: 2
Flags: HMW
LayerCount: 2
Back
Fore
SplineSet
508.999023438 400 m 5
 384.999023438 400 l 5
 384.999023438 441 l 6
 384.999023438 459.348632812 378.060546875 464 358.999023438 464 c 6
 92.9990234375 464 l 6
 61.666015625 464 45.9990234375 480 45.9990234375 512 c 6
 45.9990234375 612 l 6
 45.9990234375 656.15625 61.841796875 672 105.999023438 672 c 6
 507.499023438 672 l 5
 507.499023438 589 l 5
 188.999023438 589 l 6
 176.33203125 589 169.999023438 585.666992188 169.999023438 577 c 6
 169.999023438 568 l 6
 169.999023438 561.333007812 175.666015625 558 186.999023438 558 c 6
 439.999023438 558 l 6
 496.813476562 558 508.999023438 535.084960938 508.999023438 477 c 6
 508.999023438 400 l 5
-6 294.165039062 m 5
 162 294.165039062 l 5
 162 200.165039062 l 5
 -6.001953125 200.165039062 l 5
 -6 294.165039062 l 5
508.997070312 415 m 5
 508.997070312 54 l 6
 508.997070312 16.2705078125 496.072265625 0 458.997070312 0 c 6
 95.9970703125 0 l 6
 58.9248046875 0 45.9970703125 16.2734375 45.9970703125 54 c 6
 45.9970703125 150.967773438 l 6
 45.9970703125 183.178710938 53.9267578125 196.333007812 62 204.967773438 c 6
 62 204.967773438 118.86328125 294.174804688 148 294.174804688 c 6
 167.997070312 294.174804688 l 5
 167.997070312 313.161132812 l 6
 167.997070312 322.494140625 162.6640625 327.161132812 151.997070312 327.161132812 c 6
 45.99609375 327.161132812 l 5
 45.99609375 430.161132812 l 5
 228.997070312 430.161132812 l 6
 270.702148438 430.161132812 291.99609375 408.571289062 291.99609375 372.161132812 c 6
 291.99609375 200.174804688 l 5
 205.3984375 200.174804688 l 6
 177.74609375 200.174804688 169.997070312 184.666992188 169.997070312 155.17578125 c 6
 169.997070312 129 l 6
 169.997070312 114.333007812 175.997070312 107 187.997070312 107 c 6
 366.997070312 107 l 6
 378.997070312 107 384.997070312 114.333007812 384.997070312 129 c 6
 384.997070312 415 l 5
 508.997070312 415 l 5
EndSplineSet
EndChar

StartChar: si_CIi
Encoding: 138 -1 27
GlifName: si_C_I_i
Width: 539
VWidth: 1000
GlyphClass: 2
Flags: HMW
LayerCount: 2
Back
Fore
SplineSet
384.999023438 405 m 5
 384.999023438 434 l 6
 384.999023438 452.190429688 367.681640625 464 348.999023438 464 c 6
 88.9990234375 464 l 6
 59.15625 464 45.9990234375 472.771484375 45.9990234375 505 c 6
 45.9990234375 618 l 6
 45.9990234375 654.859375 59.41015625 672 95.9990234375 672 c 6
 458.999023438 672 l 6
 495.586914062 672 508.999023438 654.858398438 508.999023438 618 c 6
 508.999023438 552 l 6
 508.999023438 529.837890625 492.8671875 512.7734375 473.999023438 509 c 5
 495.91015625 502.15234375 508.999023438 474.274414062 508.999023438 445 c 6
 508.999023438 405 l 5
 384.999023438 405 l 5
255.999023438 539 m 5
 248.065429688 543.655273438 244.999023438 547.826171875 244.999023438 564 c 6
 244.999023438 575 l 6
 244.999023438 581.85546875 245.140625 584.018554688 247.999023438 587 c 5
 176.999023438 587 l 6
 165.666015625 587 159.999023438 582.333007812 159.999023438 573 c 6
 159.999023438 554 l 6
 159.999023438 544 165.33203125 539 175.999023438 539 c 6
 255.999023438 539 l 5
349.999023438 594 m 6
 341.618164062 594 336.999023438 588.387695312 336.999023438 581 c 6
 336.999023438 558 l 6
 336.999023438 547.623046875 346.200195312 543 354.999023438 543 c 6
 391.999023438 543 l 6
 403.681640625 543 411.999023438 549.518554688 411.999023438 564 c 6
 411.999023438 582 l 6
 411.999023438 591.395507812 405.68359375 594 400.999023438 594 c 6
 349.999023438 594 l 6
-6 294.165039062 m 1
 162 294.165039062 l 1
 162 200.165039062 l 1
 -6.001953125 200.165039062 l 1
 -6 294.165039062 l 1
508.997070312 415 m 1
 508.997070312 54 l 2
 508.997070312 16.2705078125 496.072265625 0 458.997070312 0 c 2
 95.9970703125 0 l 2
 58.9248046875 0 45.9970703125 16.2734375 45.9970703125 54 c 2
 45.9970703125 150.967773438 l 2
 45.9970703125 183.178710938 53.9267578125 196.333007812 62 204.967773438 c 2
 62 204.967773438 118.86328125 294.174804688 148 294.174804688 c 2
 167.997070312 294.174804688 l 1
 167.997070312 313.161132812 l 2
 167.997070312 322.494140625 162.6640625 327.161132812 151.997070312 327.161132812 c 2
 45.99609375 327.161132812 l 1
 45.99609375 430.161132812 l 1
 228.997070312 430.161132812 l 2
 270.702148438 430.161132812 291.99609375 408.571289062 291.99609375 372.161132812 c 2
 291.99609375 200.174804688 l 1
 205.3984375 200.174804688 l 2
 177.74609375 200.174804688 169.997070312 184.666992188 169.997070312 155.17578125 c 2
 169.997070312 129 l 2
 169.997070312 114.333007812 175.997070312 107 187.997070312 107 c 2
 366.997070312 107 l 2
 378.997070312 107 384.997070312 114.333007812 384.997070312 129 c 2
 384.997070312 415 l 1
 508.997070312 415 l 1
EndSplineSet
EndChar

StartChar: si_CRI
Encoding: 143 -1 28
GlifName: si_C_R_I_
Width: 538
VWidth: 0
GlyphClass: 2
Flags: HMW
LayerCount: 2
Back
Fore
SplineSet
47.7939453125 -15.8076171875 m 5
 47.7939453125 -114.82421875 l 6
 47.7939453125 -144.818359375 64.7099609375 -159.021484375 91.7939453125 -159.021484375 c 6
 467.603515625 -159.021484375 l 6
 492.936523438 -159.021484375 508.603515625 -147.586914062 508.603515625 -116.021484375 c 6
 508.603515625 -15.8076171875 l 5
 384.598632812 -15.8076171875 l 5
 384.598632812 -35.009765625 l 6
 384.598632812 -47.8876953125 383.8828125 -53.0107421875 371.002929688 -53.0107421875 c 6
 184.793945312 -53.0107421875 l 6
 173.4609375 -53.0107421875 171.798828125 -47.0107421875 171.798828125 -35.0107421875 c 6
 171.798828125 -15.8076171875 l 5
 47.7939453125 -15.8076171875 l 5
EndSplineSet
Refer: 26 -1 N 1 0 0 1 0 0 2
EndChar

StartChar: si_CRIi
Encoding: 144 -1 29
GlifName: si_C_R_I_i
Width: 597
VWidth: 0
GlyphClass: 2
Flags: HMW
LayerCount: 2
Back
Fore
SplineSet
47.7939453125 -15.8076171875 m 5
 47.7939453125 -114.82421875 l 6
 47.7939453125 -144.818359375 64.7099609375 -159.021484375 91.7939453125 -159.021484375 c 6
 467.603515625 -159.021484375 l 6
 492.936523438 -159.021484375 508.603515625 -147.586914062 508.603515625 -116.021484375 c 6
 508.603515625 -15.8076171875 l 5
 384.598632812 -15.8076171875 l 5
 384.598632812 -35.009765625 l 6
 384.598632812 -47.8876953125 383.8828125 -53.0107421875 371.002929688 -53.0107421875 c 6
 184.793945312 -53.0107421875 l 6
 173.4609375 -53.0107421875 171.798828125 -47.0107421875 171.798828125 -35.0107421875 c 6
 171.798828125 -15.8076171875 l 5
 47.7939453125 -15.8076171875 l 5
EndSplineSet
Refer: 27 -1 N 1 0 0 1 0 0 2
EndChar

StartChar: si_CRa
Encoding: 142 -1 30
GlifName: si_C_R_a
Width: 539
VWidth: 0
GlyphClass: 2
Flags: HMW
LayerCount: 2
Back
Fore
SplineSet
47.7939453125 -15.8076171875 m 5
 47.7939453125 -114.82421875 l 6
 47.7939453125 -144.818359375 64.7099609375 -159.021484375 91.7939453125 -159.021484375 c 6
 467.603515625 -159.021484375 l 6
 492.936523438 -159.021484375 508.603515625 -147.586914062 508.603515625 -116.021484375 c 6
 508.603515625 -15.8076171875 l 5
 384.598632812 -15.8076171875 l 5
 384.598632812 -35.009765625 l 6
 384.598632812 -47.8876953125 383.8828125 -53.0107421875 371.002929688 -53.0107421875 c 6
 184.793945312 -53.0107421875 l 6
 173.4609375 -53.0107421875 171.798828125 -47.0107421875 171.798828125 -35.0107421875 c 6
 171.798828125 -15.8076171875 l 5
 47.7939453125 -15.8076171875 l 5
EndSplineSet
Refer: 443 3488 N 1 0 0 1 0 0 2
EndChar

StartChar: si_Ca.reph
Encoding: 141 -1 33
GlifName: si_C_a.reph
Width: 539
VWidth: 0
GlyphClass: 2
Flags: HMW
LayerCount: 2
Back
Fore
SplineSet
-6 296.3671875 m 1
 162 296.3671875 l 1
 162 202.3671875 l 1
 -6.001953125 202.3671875 l 1
 -6 296.3671875 l 1
508.997070312 392.377929688 m 1
 508.997070312 54 l 2
 508.997070312 16.2705078125 496.072265625 0 458.997070312 0 c 2
 95.9970703125 0 l 2
 58.9248046875 0 45.9970703125 16.2734375 45.9970703125 54 c 2
 45.9970703125 153.169921875 l 2
 45.9970703125 185.380859375 53.9267578125 198.53515625 62 207.169921875 c 2
 62 207.169921875 118.86328125 296.376953125 148 296.376953125 c 2
 167.997070312 296.376953125 l 1
 167.997070312 318 l 2
 167.997070312 327.333007812 162.6640625 332 151.997070312 332 c 2
 45.99609375 332 l 1
 45.99609375 435 l 1
 228.997070312 435 l 2
 270.702148438 435 291.99609375 413.41015625 291.99609375 377 c 2
 291.99609375 202.376953125 l 1
 205.3984375 202.376953125 l 2
 177.74609375 202.376953125 169.997070312 186.868164062 169.997070312 157.377929688 c 2
 169.997070312 129 l 2
 169.997070312 114.333007812 175.997070312 107 187.997070312 107 c 2
 366.997070312 107 l 2
 378.997070312 107 384.997070312 114.333007812 384.997070312 129 c 2
 384.997070312 392.377929688 l 1
 508.997070312 392.377929688 l 1
439.997070312 560.211914062 m 2
 494.997070312 560.211914062 508.997070312 535.8984375 508.997070312 479.211914062 c 2
 508.997070312 377.377929688 l 1
 384.997070312 377.377929688 l 1
 384.997070312 446.979492188 l 2
 384.997070312 465.328125 378.05859375 469.979492188 358.997070312 469.979492188 c 2
 45.9970703125 469.979492188 l 1
 45.9970703125 560.211914062 l 1
 439.997070312 560.211914062 l 2
238.791015625 628 m 5
 323 628 l 5
 323 590.188476562 l 6
 323 563.010742188 311.508789062 553.188476562 292 553.188476562 c 6
 120 553.188476562 l 6
 93.5302734375 553.188476562 80 567.083984375 80 599.188476562 c 6
 80 669 l 6
 80 697.736328125 97.2490234375 717 134 717 c 6
 419 717 l 6
 452.4453125 717 470 700.163890459 470 661 c 6
 470 575.198242188 l 5
 357 575.198242188 l 5
 357 630 l 6
 357 645.321123821 351.666992188 653 341 653 c 6
 208 653 l 6
 197.333007812 653 192 648.666992188 192 640 c 6
 192 612 l 6
 192 603.333007812 195.719726562 599 204 599 c 6
 226 599 l 6
 237.264648438 599 238.791015625 604.333007812 238.791015625 615 c 6
 238.791015625 628 l 5
EndSplineSet
EndChar

StartChar: si_Ch.halant
Encoding: 145 -1 34
GlifName: si_C_h.halant
Width: 513
VWidth: 0
GlyphClass: 2
Flags: HMW
LayerCount: 2
Back
Fore
SplineSet
199.797851562 477 m 5
 199.797851562 656 l 5
 310 656 l 5
 310 433 l 5
 282.130859375 476.7890625 277.765625 477 199.797851562 477 c 5
EndSplineSet
Refer: 444 3489 N 1 0 0 1 0 0 2
EndChar

StartChar: si_ChI
Encoding: 146 -1 35
GlifName: si_C_hI_
Width: 513
VWidth: 0
GlyphClass: 2
Flags: HMW
LayerCount: 2
Back
Fore
SplineSet
40 511.604492188 m 5
 163.408203125 511.604492188 l 5
 163.408203125 541 l 6
 163.408203125 553 169.07421875 559 180.408203125 559 c 6
 304 559 l 5
 371 642.990234375 l 5
 98.7978515625 642.989257812 l 6
 68.669921875 642.989257812 40 624.453125 40 590.990234375 c 6
 40 511.604492188 l 5
EndSplineSet
Refer: 444 3489 N 1 0 0 1 0 0 2
EndChar

StartChar: si_ChIi
Encoding: 147 -1 36
GlifName: si_C_hI_i
Width: 513
VWidth: 0
GlyphClass: 2
Flags: HMW
LayerCount: 2
Back
Fore
SplineSet
252.586914062 564 m 6
 252.586914062 546 l 6
 252.586914062 542 255.938476562 540 262.586914062 540 c 6
 290 540 l 6
 296 540 299 542.333007812 299 547 c 6
 299 564 l 6
 299 568.666992188 296 571 290 571 c 6
 261.586914062 571 l 6
 255.602539062 571 252.586914062 568.666992188 252.586914062 564 c 6
324 507 m 22
 218 507 l 6
 207 507 201 513 201 525 c 6
 201 559 l 5
 172 559 l 6
 160.666666667 559 155 553 155 541 c 6
 155 507 l 5
 40 507 l 5
 40 600.791992188 l 6
 40 625.454101562 61.7109375 644.791992188 86 644.791992188 c 6
 306 644.791992188 l 6
 331.431640625 644.791992188 350.113158177 631.849974158 350.188476562 599 c 6
 350.346679687 530 l 14
 350 517 337 507 324 507 c 22
EndSplineSet
Refer: 444 3489 N 1 0 0 1 0 0 2
EndChar

StartChar: si_D.halant
Encoding: 254 -1 39
GlifName: si_D_.halant
Width: 460
VWidth: 0
GlyphClass: 2
Flags: HMW
LayerCount: 2
Back
Fore
SplineSet
262.75 413 m 257
 262.75 681 l 257
 316.75 639 414.25 634 414.25 542 c 256
 414.25 498 379.441 468 336.25 468 c 256
 321.583 468 306.583 471.333 291.25 478 c 257
 291.25 396 l 257
 262.75 413 l 257
291.355 504.273 m 257
 299.85 499.699 310.632 497.413 323.698 497.413 c 256
 355.704 497.413 369.25 521.915 369.25 545.438 c 256
 369.25 586.602 337.42 606.203 291.355 636.587 c 257
 291.355 504.273 l 257
EndSplineSet
Refer: 458 3503 N 1 0 0 1 0 0 2
EndChar

StartChar: si_DDhU
Encoding: 490 -1 47
GlifName: si_D_D_hU_
Width: 729
VWidth: 0
GlyphClass: 2
Flags: HMW
LayerCount: 2
Back
Fore
SplineSet
143.75 -142.5 m 256
 143.75 -90.4912 190.043 -50.5 245.25 -50.5 c 256
 287.156 -50.5 324.5 -74.1416 339.25 -110 c 257
 306.5 -121.5 l 257
 299.676 -104.358 278.25 -81.75 245.25 -81.75 c 256
 208.546 -81.75 179.25 -109.716 179.25 -142.5 c 256
 179.25 -171.663 200.998 -192.5 270.75 -192.5 c 258
 632 -192.5 l 257
 632 128 l 257
 667.25 219 l 257
 667.25 -235 l 257
 249.25 -235 l 258
 169.707 -235 143.75 -186.092 143.75 -142.5 c 256
EndSplineSet
Refer: 49 -1 N 1 0 0 1 0 0 2
EndChar

StartChar: si_DDhUu
Encoding: 491 -1 48
GlifName: si_D_D_hU_u
Width: 729
VWidth: 0
GlyphClass: 2
Flags: HMW
LayerCount: 2
Back
Fore
SplineSet
143.25 -138 m 256
 143.25 -80 192.25 -40 245.25 -40 c 256
 287.25 -40 319.583 -55 342.25 -91 c 257
 309.25 -102 l 257
 297.934 -84.6992 279.25 -70 250.25 -70 c 256
 211.25 -70 186.25 -95.0762 186.25 -120 c 256
 186.25 -151.995 215.065 -167 249.25 -167 c 256
 325.465 -167 400.577 -114.5 508.25 -114.5 c 256
 559.332 -114.5 605.25 -133.75 632.25 -165.75 c 257
 632.25 152 l 257
 667.25 212 l 257
 667.25 -231 l 257
 641.75 -231 l 257
 626.75 -195 581.199 -146.25 518.25 -146.25 c 256
 427.25 -146.25 352.25 -237 254.25 -237 c 256
 199.25 -237 143.25 -206 143.25 -138 c 256
EndSplineSet
Refer: 49 -1 N 1 0 0 1 0 0 2
EndChar

StartChar: si_DDha
Encoding: 438 -1 49
GlifName: si_D_D_ha
Width: 729
VWidth: 0
GlyphClass: 2
Flags: HMW
LayerCount: 2
Back
Fore
SplineSet
27 211.5 m 256
 27 343.2 101.731 433 220.25 433 c 256
 246.319 433 288.876 427.134 313.25 398 c 257
 300.255 396.265 275.707 393.113 271.75 393 c 257
 266.632 398.879 247.82 404.5 223.75 404.5 c 256
 97.2451 404.5 58.75 297.872 58.75 208.5 c 256
 58.75 131.217 85.9997 75.2388 135 33.75 c 257
 135 0 l 257
 68.5828 33.2086 27 110.57 27 211.5 c 256
EndSplineSet
Refer: 459 3504 N 1 0 0 1 93 0 2
EndChar

StartChar: si_DI
Encoding: 258 -1 50
GlifName: si_D_I_
Width: 460
VWidth: 0
GlyphClass: 2
Flags: HMW
LayerCount: 2
Back
Fore
SplineSet
22.181640625 511 m 5
 22.181640625 595.802734375 l 6
 22.181640625 625.796875 39.09765625 640 66.181640625 640 c 6
 383 640 l 6
 408.333007812 640 424 628.565429688 424 597 c 6
 424 511 l 5
 299.995117188 511 l 5
 299.995117188 528 l 6
 299.995117188 540.877929688 299.279296875 546.000976562 286.399414062 546.000976562 c 6
 159.181640625 546.000976562 l 6
 147.848632812 546.000976562 146.186523438 540.000976562 146.186523438 528.000976562 c 6
 146.186523438 511 l 5
 22.181640625 511 l 5
EndSplineSet
Refer: 458 3503 N 1 0 0 1 0 0 2
EndChar

StartChar: si_DIi
Encoding: 259 -1 51
GlifName: si_D_I_i
Width: 460
VWidth: 0
GlyphClass: 2
Flags: HMW
LayerCount: 2
Back
Fore
SplineSet
291.217773438 582.198242188 m 6
 281.217773438 582.198242188 276.217773438 578.198242188 276.217773438 570.198242188 c 6
 276.217773438 562.010742188 l 6
 276.217773438 553.34375 281.55078125 549.010742188 292.217773438 549.010742188 c 6
 313.999023438 549.010742188 l 6
 324.666015625 549.010742188 329.999023438 553.677734375 329.999023438 563.010742188 c 6
 329.999023438 570.198242188 l 6
 329.999023438 578.198242188 324.33203125 582.198242188 312.999023438 582.198242188 c 6
 291.217773438 582.198242188 l 6
158.991210938 553.80859375 m 6
 148.000976562 553.807617188 145.99609375 547.80859375 145.99609375 535.80859375 c 6
 145.99609375 511 l 5
 21.9912109375 511 l 5
 21.9912109375 595.802734375 l 6
 21.9912109375 625.796875 38.2109375 640.010742188 65.201171875 640.010742188 c 6
 380 640.01171875 l 6
 407.479492188 640.01171875 421.999023438 626.66015625 421.999023438 600 c 6
 421.999023438 540.99609375 l 6
 421.999023438 521 411.997070312 510.99609375 391.999023438 510.99609375 c 6
 211.217773438 510.994140625 l 6
 187.942382812 510.994140625 183.217773438 520.250976562 183.217773438 531.99609375 c 6
 183.217773438 545.80078125 l 6
 183.217773438 550.33203125 184.03515625 552.809570312 185.6171875 553.80078125 c 5
 158.991210938 553.80859375 l 6
EndSplineSet
Refer: 458 3503 N 1 0 0 1 0 0 2
EndChar

StartChar: si_DRI
Encoding: 267 -1 52
GlifName: si_D_R_I_
Width: 460
VWidth: 1000
GlyphClass: 2
Flags: HMW
LayerCount: 2
Back
Fore
SplineSet
22.181640625 511 m 5
 22.181640625 595.802734375 l 6
 22.181640625 625.796875 39.09765625 640 66.181640625 640 c 6
 383 640 l 6
 408.333007812 640 424 628.565429688 424 597 c 6
 424 511 l 5
 299.995117188 511 l 5
 299.995117188 528 l 6
 299.995117188 540.877929688 299.279296875 546.000976562 286.399414062 546.000976562 c 6
 159.181640625 546.000976562 l 6
 147.848632812 546.000976562 146.186523438 540.000976562 146.186523438 528.000976562 c 6
 146.186523438 511 l 5
 22.181640625 511 l 5
EndSplineSet
Refer: 54 -1 N 1 0 0 1 0 0 2
EndChar

StartChar: si_DRIi
Encoding: 268 -1 53
GlifName: si_D_R_I_i
Width: 460
VWidth: 1000
GlyphClass: 2
Flags: HMW
LayerCount: 2
Back
Fore
SplineSet
291.217773438 582.198242188 m 6
 281.217773438 582.198242188 276.217773438 578.198242188 276.217773438 570.198242188 c 6
 276.217773438 562.010742188 l 6
 276.217773438 553.34375 281.55078125 549.010742188 292.217773438 549.010742188 c 6
 313.999023438 549.010742188 l 6
 324.666015625 549.010742188 329.999023438 553.677734375 329.999023438 563.010742188 c 6
 329.999023438 570.198242188 l 6
 329.999023438 578.198242188 324.33203125 582.198242188 312.999023438 582.198242188 c 6
 291.217773438 582.198242188 l 6
158.991210938 553.80859375 m 6
 148.000976562 553.807617188 145.99609375 547.80859375 145.99609375 535.80859375 c 6
 145.99609375 511 l 5
 21.9912109375 511 l 5
 21.9912109375 595.802734375 l 6
 21.9912109375 625.796875 38.2109375 640.010742188 65.201171875 640.010742188 c 6
 380 640.01171875 l 6
 407.479492188 640.01171875 421.999023438 626.66015625 421.999023438 600 c 6
 421.999023438 540.99609375 l 6
 421.999023438 521 411.997070312 510.99609375 391.999023438 510.99609375 c 6
 211.217773438 510.994140625 l 6
 187.942382812 510.994140625 183.217773438 520.250976562 183.217773438 531.99609375 c 6
 183.217773438 545.80078125 l 6
 183.217773438 550.33203125 184.03515625 552.809570312 185.6171875 553.80078125 c 5
 158.991210938 553.80859375 l 6
EndSplineSet
Refer: 54 -1 N 1 0 0 1 0 0 2
EndChar

StartChar: si_DRa
Encoding: 266 -1 54
GlifName: si_D_R_a
Width: 460
VWidth: 1000
GlyphClass: 2
Flags: HMW
LayerCount: 2
Back
Fore
SplineSet
22.19921875 -15.8076171875 m 5
 146.204101562 -15.8076171875 l 5
 146.204101562 -34.810546875 l 6
 146.204101562 -46.810546875 147.866210938 -52.810546875 159.19921875 -52.810546875 c 6
 291.19921875 -52.810546875 l 6
 304.079101562 -52.810546875 304.794921875 -47.68707409 304.794921875 -34.8095703125 c 6
 304.794921875 12 l 5
 428.799804688 12 l 5
 428.799804688 -115.821289062 l 6
 428.799804688 -147.386624445 413.1328125 -158.821289062 387.799804688 -158.821289062 c 6
 66.19921875 -158.821289062 l 6
 39.115234375 -158.821289062 22.19921875 -144.618164062 22.19921875 -114.624023438 c 6
 22.19921875 -15.8076171875 l 5
429 0.0009765625 m 1
 66.2001953125 0 l 2
 32.2001953125 -0 22 17.9256114795 22 49.599609375 c 2
 22 298 l 2
 22 338.656512024 43.1062931376 355 80 355 c 2
 301 355 l 1
 300.999023438 378 l 2
 300.998458375 391.308355904 296.337890625 394.000976562 287.004882812 394.000976562 c 2
 22 394.000976562 l 1
 22 497.000976562 l 1
 372 497 l 2
 405.564874373 496.999906348 425 480.912637473 425 444 c 2
 425 253.000976562 l 1
 168 253 l 2
 151.333007812 253 146 245.66796875 146 231.000976562 c 2
 146 133.000976562 l 2
 146 113.158847975 151.047851562 107 166.200195312 107 c 2
 429 107.000976562 l 1
 429 0.0009765625 l 1
EndSplineSet
EndChar

StartChar: si_DU
Encoding: 260 -1 55
GlifName: si_D_U_
Width: 460
VWidth: 1000
GlyphClass: 2
Flags: HMW
LayerCount: 2
Back
Fore
SplineSet
429 -159 m 29
 20.9990234375 -159 l 5
 20.9990234375 -52 l 5
 305.0078125 -52 l 5
 305.004882812 14.00390625 l 29
 429.001953125 14 l 5
 429 -159 l 29
429 0.0009765625 m 5
 66.2001953125 0 l 6
 32.2001953125 -0 22 17.9256114795 22 49.599609375 c 6
 22 298 l 6
 22 338.656512024 43.1062931376 355 80 355 c 6
 301 355 l 5
 300.999023438 378 l 6
 300.998458375 391.308355904 296.337890625 394.000976562 287.004882812 394.000976562 c 6
 22 394.000976562 l 5
 22 497.000976562 l 5
 372 497 l 6
 405.564874373 496.999906348 425 480.912637473 425 444 c 6
 425 253.000976562 l 5
 168 253 l 6
 151.333007812 253 146 245.66796875 146 231.000976562 c 6
 146 133.000976562 l 6
 146 113.158847975 151.047851562 107 166.200195312 107 c 6
 429 107.000976562 l 5
 429 0.0009765625 l 5
EndSplineSet
EndChar

StartChar: si_DUu
Encoding: 261 -1 56
GlifName: si_D_U_u
Width: 460
VWidth: 1000
GlyphClass: 2
Flags: HMW
LayerCount: 2
Back
Fore
SplineSet
429.000976562 -158.999023438 m 1
 312.401367188 -158.999023438 l 1
 304.846679688 -151.036132812 296.934570312 -141.53515625 289.206054688 -136.201171875 c 0
 279.03515625 -129.181640625 267.514648438 -129.001953125 257.40625 -129.001953125 c 1
 252.821289062 -129.001953125 l 1
 240.845703125 -129.001953125 231.25 -131.704101562 218.821289062 -136.802734375 c 9
 175.6171875 -153.803710938 l 1
 163.829101562 -158.020507812 155.828125 -162.8046875 127.828125 -162.8046875 c 2
 70.0498046875 -162.8046875 l 2
 37.6357421875 -162.8046875 22.048828125 -150.575195312 22.048828125 -122.001953125 c 2
 22.048828125 -29.0029296875 l 1
 139.048828125 -29.0029296875 l 1
 139.048828125 -48.19921875 l 2
 139.048828125 -59.4833984375 140.313476562 -66.2001953125 152.25 -66.2001953125 c 2
 155.04296875 -66.2001953125 l 2
 163.459960938 -66.2001953125 171.087890625 -63.216796875 180.196289062 -58.6005859375 c 1
 208.817382812 -46.0009765625 l 1
 221.783203125 -40.673828125 234.969726562 -39.001953125 250.6171875 -39.001953125 c 1
 259.415039062 -39.001953125 l 1
 269.375976562 -39.001953125 286.438476562 -39.1923828125 294.611328125 -45.001953125 c 0
 300.41796875 -49.1298828125 301.251953125 -50.2412109375 305.999023438 -55.001953125 c 1
 305.999023438 14 l 1
 384.000976562 14 l 2
 410.000976562 14 425.000976562 28 429.000976562 56 c 1
 429.000976562 -158.999023438 l 1
429 0.0009765625 m 1
 66.2001953125 0 l 2
 32.2001953125 -0 22 17.9256114795 22 49.599609375 c 2
 22 298 l 2
 22 338.656512024 43.1062931376 355 80 355 c 2
 301 355 l 1
 300.999023438 378 l 2
 300.998458375 391.308355904 296.337890625 394.000976562 287.004882812 394.000976562 c 2
 22 394.000976562 l 1
 22 497.000976562 l 1
 372 497 l 2
 405.564874373 496.999906348 425 480.912637473 425 444 c 2
 425 253.000976562 l 1
 168 253 l 2
 151.333007812 253 146 245.66796875 146 231.000976562 c 2
 146 133.000976562 l 2
 146 113.158847975 151.047851562 107 166.200195312 107 c 2
 429 107.000976562 l 1
 429 0.0009765625 l 1
EndSplineSet
EndChar

StartChar: si_DdRa
Encoding: 220 -1 74
GlifName: si_D_dR_a
Width: 515
VWidth: 0
GlyphClass: 2
Flags: HMW
LayerCount: 2
Back
Fore
SplineSet
55.75 -44 m 257
 85.25 -44 l 257
 122.726 -86.9578 189.667 -114.25 295 -114.25 c 256
 438 -114.25 549 -31.0107 549 63.25 c 256
 549 78.2842 547.438 90.446 542 102 c 257
 555 133 l 257
 573 106.333 582 74.667 582 38 c 256
 582 -123.729 453.75 -219 309.75 -219 c 256
 176.75 -219 93.083 -153.333 55.75 -44 c 257
EndSplineSet
Refer: 452 3497 N 1 0 0 1 0 0 2
EndChar

StartChar: si_Dda.reph
Encoding: 219 -1 77
GlifName: si_D_da.reph
Width: 515
VWidth: 0
GlyphClass: 2
Flags: HMW
LayerCount: 2
Back
Fore
SplineSet
278.15 622 m 256
 278.15 601.854 296.378 585.547 318.25 585.547 c 256
 340.122 585.547 358.35 601.854 358.35 622 c 256
 358.35 642.146 340.122 658.453 318.25 658.453 c 256
 296.378 658.453 278.15 642.146 278.15 622 c 256
175.25 641 m 256
 175.25 705 233.37 742 315.25 742 c 256
 392.25 742 456.25 699 456.25 628 c 256
 456.25 604 447.917 582.333 431.25 563 c 257
 395.5 563 l 257
 408.67 575.387 424.25 599.734 424.25 627 c 256
 424.25 681.521 375.25 713.5 314.25 713.5 c 256
 261.472 713.5 208 690.99 208 641 c 256
 208 601.925 251.151 584.688 268.75 582.25 c 257
 260.75 588.25 250.25 602 250.25 623 c 256
 250.25 658 281.604 683 317.25 683 c 256
 358.25 683 386.25 656 386.25 621 c 256
 386.25 582 351.25 556 293.25 556 c 256
 234.25 556 175.25 585 175.25 641 c 256
EndSplineSet
Refer: 452 3497 N 1 0 0 1 0 0 2
EndChar

StartChar: si_DdhU
Encoding: 226 -1 81
GlifName: si_D_dhU_
Width: 515
VWidth: 0
GlyphClass: 2
Flags: HMW
LayerCount: 2
Back
Fore
SplineSet
51.5 -142.5 m 256
 51.5 -90.4912 97.793 -50.5 153 -50.5 c 256
 194.906 -50.5 232.25 -74.1416 247 -110 c 257
 214.25 -121.5 l 257
 207.426 -104.358 186 -81.75 153 -81.75 c 256
 116.296 -81.75 87 -109.716 87 -142.5 c 256
 87 -171.663 108.748 -192.5 178.5 -192.5 c 258
 550 -192.5 l 257
 550 128 l 257
 585.25 219 l 257
 585.25 -235 l 257
 157 -235 l 258
 77.457 -235 51.5 -186.092 51.5 -142.5 c 256
EndSplineSet
Refer: 453 3498 N 1 0 0 1 0 0 2
EndChar

StartChar: si_DdhUu
Encoding: 227 -1 82
GlifName: si_D_dhU_u
Width: 515
VWidth: 0
GlyphClass: 2
Flags: HMW
LayerCount: 2
Back
Fore
SplineSet
51 -138 m 256
 51 -80 100 -40 153 -40 c 256
 195 -40 227.333 -55 250 -91 c 257
 217 -102 l 257
 205.684 -84.6992 187 -70 158 -70 c 256
 119 -70 94 -95.0762 94 -120 c 256
 94 -151.995 122.815 -167 157 -167 c 256
 233.215 -167 319.327 -114.5 427 -114.5 c 256
 478.082 -114.5 524 -133.75 551 -165.75 c 257
 551 152 l 257
 586 212 l 257
 586 -231 l 257
 560.5 -231 l 257
 545.5 -195 499.949 -146.25 437 -146.25 c 256
 346 -146.25 260 -237 162 -237 c 256
 107 -237 51 -206 51 -138 c 256
EndSplineSet
Refer: 453 3498 N 1 0 0 1 0 0 2
EndChar

StartChar: si_Dh.halant
Encoding: 274 -1 83
GlifName: si_D_h.halant
Width: 515
VWidth: 1000
GlyphClass: 2
Flags: HMW
LayerCount: 2
Back
Fore
SplineSet
485 400 m 5
 361 400 l 5
 361 441 l 6
 361 459.349108322 354.06133753 464 335 464 c 6
 14 464 l 5
 14 550 l 5
 94 550 l 5
 64.6666666667 557.333333333 50 571.666666666 50 593 c 6
 50 632 l 6
 50 659.333333333 66.3333333333 673 99 673 c 6
 483 673 l 5
 483 589 l 5
 206 589 l 6
 188 589 179 584.333333333 179 575 c 4
 179 565.226440189 186.925753819 558 197 558 c 6
 416 558 l 6
 471.441005527 558 485 533.686193211 485 477 c 6
 485 400 l 5
484.998046875 415 m 5
 484.998046875 49 l 6
 484.998046875 16.6827040062 471.396408352 -4.08988045913e-15 438 0 c 6
 301.802734375 0 l 6
 275.802734375 0 259.46875 12.3330078125 252.802734375 37 c 5
 249.62890625 16.3779296875 229.072265625 0 205.802734375 0 c 6
 69 0 l 6
 37.6095578425 0 22 15.0175781253 22 48 c 6
 22 361.0078125 l 6
 22 399.5625 40.0205078125 426.0078125 81 426.0078125 c 6
 259.197265625 426.0078125 l 5
 259.198242188 318.407226562 l 29
 156 318.407226562 l 6
 149.064453125 318.407226562 146.00390625 314.69921875 146.00390625 308.606445312 c 6
 146.00390625 126 l 6
 146.00390625 113.333007817 152.336914062 107 165.00390625 107 c 6
 181.802734375 107 l 6
 196.46875 107 203.802734375 115.333007812 203.802734375 132 c 6
 203.802734375 244.795898438 l 5
 303.3984375 244.795898438 l 5
 303.3984375 134 l 6
 303.3984375 116 311.064453125 107 326.3984375 107 c 6
 343.997070312 107 l 6
 355.330078125 107 360.997070312 114 360.997070312 128 c 6
 360.997070312 414.998046875 l 29
 484.998046875 415 l 5
EndSplineSet
EndChar

StartChar: si_DhI
Encoding: 275 -1 84
GlifName: si_D_hI_
Width: 515
VWidth: 1000
GlyphClass: 2
Flags: HMW
LayerCount: 2
Back
Fore
SplineSet
484.998046875 415 m 1
 484.998046875 49 l 2
 484.998046875 16.6827040062 471.396408352 -4.08988045913e-15 438 0 c 2
 301.802734375 0 l 2
 275.802734375 0 259.46875 12.3330078125 252.802734375 37 c 1
 249.62890625 16.3779296875 229.072265625 0 205.802734375 0 c 2
 69 0 l 2
 37.6095578425 0 22 15.0175781253 22 48 c 2
 22 361.0078125 l 2
 22 399.5625 40.0205078125 426.0078125 81 426.0078125 c 2
 259.197265625 426.0078125 l 1
 259.198242188 318.407226562 l 25
 156 318.407226562 l 2
 149.064453125 318.407226562 146.00390625 314.69921875 146.00390625 308.606445312 c 2
 146.00390625 126 l 2
 146.00390625 113.333007817 152.336914062 107 165.00390625 107 c 2
 181.802734375 107 l 2
 196.46875 107 203.802734375 115.333007812 203.802734375 132 c 2
 203.802734375 244.795898438 l 1
 303.3984375 244.795898438 l 1
 303.3984375 134 l 2
 303.3984375 116 311.064453125 107 326.3984375 107 c 2
 343.997070312 107 l 2
 355.330078125 107 360.997070312 114 360.997070312 128 c 2
 360.997070312 414.998046875 l 25
 484.998046875 415 l 1
485 400 m 5
 361 400 l 5
 361 441 l 6
 361 449.666666667 359.166666667 455.666666667 355.5 459 c 132
 351.833333333 462.333333333 345 464 335 464 c 6
 69 464 l 6
 37.6666666667 464 22 480 22 512 c 6
 22 612 l 6
 22 634 26.5 649.5 35.5 658.5 c 132
 44.5 667.5 60 672 82 672 c 6
 483 672 l 5
 484 589 l 5
 165 590 l 6
 152.333333333 590 146 585.666666667 146 577 c 6
 146 568 l 6
 146 561.333333333 151.666666667 558 163 558 c 6
 416 558 l 6
 443.333333333 558 461.666666667 552 471 540 c 132
 480.333333333 528 485 507 485 477 c 6
 485 400 l 5
EndSplineSet
EndChar

StartChar: si_DhIi
Encoding: 276 -1 85
GlifName: si_D_hI_i
Width: 515
VWidth: 1000
GlyphClass: 2
Flags: HMW
LayerCount: 2
Back
Fore
SplineSet
361 405 m 1
 361 434 l 2
 361 452.190543645 343.682574342 464 325 464 c 2
 65 464 l 2
 35.1570560595 464 22 472.771317872 22 505 c 2
 22 618 l 2
 22 654.859629233 35.4108204097 672 72 672 c 2
 435 672 l 2
 471.587569487 672 485 654.858131656 485 618 c 2
 485 552 l 2
 485 529.837830342 468.868088824 512.773617765 450 509 c 1
 471.911245267 502.152735855 485 474.274674872 485 445 c 2
 485 405 l 1
 361 405 l 1
232 539 m 1
 224.06628565 543.65574933 221 547.826031591 221 564 c 2
 221 575 l 2
 221 581.854980469 221.141925812 584.018230438 224 587 c 1
 153 587 l 2
 141.666666667 587 136 582.333333333 136 573 c 2
 136 554 l 2
 136 544 141.333333333 539 152 539 c 2
 232 539 l 1
326 594 m 6
 317.618943977 594 313 588.387773465 313 581 c 6
 313 558 l 6
 313 547.622646757 322.201151981 543 331 543 c 6
 368 543 l 6
 379.68243658 543 388 549.518346217 388 564 c 6
 388 582 l 6
 388 591.395955218 381.684582201 594 377 594 c 6
 326 594 l 6
484.998046875 415 m 1
 484.998046875 49 l 2
 484.998046875 16.6827040062 471.396408352 -4.08988045913e-15 438 0 c 2
 301.802734375 0 l 2
 275.802734375 0 259.46875 12.3330078125 252.802734375 37 c 1
 249.62890625 16.3779296875 229.072265625 0 205.802734375 0 c 2
 69 0 l 2
 37.6095578425 0 22 15.0175781253 22 48 c 2
 22 361.0078125 l 2
 22 399.5625 40.0205078125 426.0078125 81 426.0078125 c 2
 259.197265625 426.0078125 l 1
 259.198242188 318.407226562 l 25
 156 318.407226562 l 2
 149.064453125 318.407226562 146.00390625 314.69921875 146.00390625 308.606445312 c 2
 146.00390625 126 l 2
 146.00390625 113.333007817 152.336914062 107 165.00390625 107 c 2
 181.802734375 107 l 2
 196.46875 107 203.802734375 115.333007812 203.802734375 132 c 2
 203.802734375 244.795898438 l 1
 303.3984375 244.795898438 l 1
 303.3984375 134 l 2
 303.3984375 116 311.064453125 107 326.3984375 107 c 2
 343.997070312 107 l 2
 355.330078125 107 360.997070312 114 360.997070312 128 c 2
 360.997070312 414.998046875 l 25
 484.998046875 415 l 1
EndSplineSet
EndChar

StartChar: si_DhRa
Encoding: 280 -1 88
GlifName: si_D_hR_a
Width: 515
VWidth: 0
GlyphClass: 2
Flags: HMW
LayerCount: 2
Back
Fore
SplineSet
55.75 -44 m 257
 85.25 -44 l 257
 122.726 -86.9578 189.667 -114.25 295 -114.25 c 256
 438 -114.25 549 -31.0107 549 63.25 c 256
 549 78.2842 547.438 90.446 542 102 c 257
 555 133 l 257
 573 106.333 582 74.667 582 38 c 256
 582 -123.729 453.75 -219 309.75 -219 c 256
 176.75 -219 93.083 -153.333 55.75 -44 c 257
EndSplineSet
Refer: 459 3504 N 1 0 0 1 0 0 2
EndChar

StartChar: si_Dha.reph
Encoding: 279 -1 91
GlifName: si_D_ha.reph
Width: 515
VWidth: 0
GlyphClass: 2
Flags: HMW
LayerCount: 2
Back
Fore
SplineSet
259.198242188 295 m 29
 156 295 l 6
 149.064453125 295 146.00390625 291.291992188 146.00390625 285.19921875 c 6
 146.00390625 126 l 6
 146.00390625 113.333007812 152.336914062 107 165.00390625 107 c 6
 181.802734375 107 l 6
 196.46875 107 203.802734375 115.333007812 203.802734375 132 c 6
 203.802734375 244.795898438 l 5
 303.3984375 244.795898438 l 5
 303.3984375 134 l 6
 303.3984375 116 311.064453125 107 326.3984375 107 c 6
 343.997070312 107 l 6
 355.330078125 107 360.997070312 114 360.997070312 128 c 6
 360.997070312 411.599609375 l 6
 360.997070312 436.451171875 353.883789062 442.599609375 330 442.599609375 c 6
 22.0009765625 442.599609375 l 5
 22.0009765625 558.599609375 l 5
 412 558.599609375 l 6
 454.30859375 558.599609375 484.998046875 541.86328125 484.998046875 492.599609375 c 6
 484.998046875 50 l 6
 484.998046875 19.6376953125 471.396484375 -0 438 0 c 6
 301.802734375 0 l 6
 275.802734375 0 259.46875 12.3330078125 252.802734375 37 c 5
 249.62890625 16.3779296875 229.072265625 0 205.802734375 0 c 6
 69 0 l 6
 37.609375 0 22 15.017578125 22 48 c 6
 22 337.600585938 l 6
 22 376.155273438 40.0205078125 402.600585938 81 402.600585938 c 6
 259.197265625 402.600585938 l 5
 259.198242188 295 l 29
213.592773438 628 m 5
 297.801757812 628 l 5
 297.801757812 590.188476562 l 6
 297.801757812 563.010742188 286.310546875 553.188476562 266.801757812 553.188476562 c 6
 94.8017578125 553.188476562 l 6
 68.33203125 553.188476562 54.8017578125 567.083984375 54.8017578125 599.188476562 c 6
 54.8017578125 669 l 6
 54.8017578125 697.736328125 72.05078125 717 108.801757812 717 c 6
 393.801757812 717 l 6
 427.247070312 717 444.801757812 700.1640625 444.801757812 661 c 6
 444.801757812 575.198242188 l 5
 331.801757812 575.198242188 l 5
 331.801757812 630 l 6
 331.801757812 645.321289062 326.46875 653 315.801757812 653 c 6
 182.801757812 653 l 6
 172.134765625 653 166.801757812 648.666992188 166.801757812 640 c 6
 166.801757812 612 l 6
 166.801757812 603.333007812 170.521484375 599 178.801757812 599 c 6
 200.801757812 599 l 6
 212.06640625 599 213.592773438 604.333007812 213.592773438 615 c 6
 213.592773438 628 l 5
EndSplineSet
EndChar

StartChar: si_G.halant
Encoding: 109 -1 103
GlifName: si_G_.halant
Width: 630
VWidth: 0
GlyphClass: 2
Flags: HMW
LayerCount: 2
Back
Fore
SplineSet
23.400390625 -15.8076171875 m 5
 23.400390625 -114.82421875 l 6
 23.400390625 -144.818359375 40.31640625 -159.021484375 67.400390625 -159.021484375 c 6
 443 -159.021484375 l 6
 468.333007812 -159.021484375 484 -147.586914062 484 -116.021484375 c 6
 484 -15.8076171875 l 5
 359.995117188 -15.8076171875 l 5
 359.995117188 -35.009765625 l 6
 359.995117188 -47.8876953125 359.279296875 -53.0107421875 346.399414062 -53.0107421875 c 6
 160.400390625 -53.0107421875 l 6
 149.067382812 -53.0107421875 147.405273438 -47.0107421875 147.405273438 -35.0107421875 c 6
 147.405273438 -15.8076171875 l 5
 23.400390625 -15.8076171875 l 5
EndSplineSet
Refer: 184 -1 N 1 0 0 1 0 0 2
EndChar

StartChar: si_GDha
Encoding: 437 -1 104
GlifName: si_G_D_ha
Width: 942
VWidth: 0
GlyphClass: 2
Flags: HMW
LayerCount: 2
Back
Fore
SplineSet
34 207 m 256
 34 330 109 431.5 220 431.5 c 256
 223.953 431.5 228.954 431.25 233 431 c 257
 233 405 l 257
 229.645 405.284 225.311 405.45 222 405.45 c 256
 138 405.45 88 329 88 258 c 256
 88 186 142 140 211 140 c 256
 270 140 294 164 294 191 c 256
 294 216 276 220 269 220 c 256
 258 220 251 217 246 214 c 257
 245 208 244 197.333 244 194 c 257
 214.75 194 l 257
 224.946 318.901 288 431.5 410 431.5 c 256
 466.521 431.5 491.823 420.777 527.75 398 c 257
 514.927 390.982 488.756 394.64 476.75 392 c 257
 455.328 399.842 431.432 402.25 414.5 402.25 c 256
 309.653 402.25 266.733 315.347 251 241.75 c 257
 254.837 244.272 265.252 246 270 246 c 256
 320 246 352 202 352 136 c 256
 352 56 295 -2 208 -2 c 256
 97 -2 34 96 34 207 c 256
EndSplineSet
Refer: 459 3504 N 1 0 0 1 306 0 2
EndChar

StartChar: si_GhIi
Encoding: 121 -1 116
GlifName: si_G_hI_i
Width: 564
VWidth: 0
GlyphClass: 2
Flags: HMW
LayerCount: 2
Back
Fore
SplineSet
24 511 m 5
 24 595.802734375 l 6
 24 625.796875 40.916015625 640 68 640 c 6
 490.201171875 640 l 6
 515.534179688 640 531.201171875 628.565429688 531.201171875 597 c 6
 531.201171875 511 l 5
 407.196289062 511 l 5
 407.196289062 528 l 6
 407.196289062 540.877929688 406.48046875 546.000976562 393.600585938 546.000976562 c 6
 161 546.000976562 l 6
 149.666992188 546.000976562 148.004882812 540.000976562 148.004882812 528.000976562 c 6
 148.004882812 511 l 5
 24 511 l 5
EndSplineSet
Refer: 440 3485 N 1 0 0 1 0 0 2
EndChar

StartChar: si_GhRIi
Encoding: 126 -1 118
GlifName: si_G_hR_I_i
Width: 565
VWidth: 0
GlyphClass: 2
Flags: HMW
LayerCount: 2
Back
Fore
SplineSet
23.400390625 -15.8076171875 m 5
 23.400390625 -114.82421875 l 6
 23.400390625 -144.818359375 40.31640625 -159.021484375 67.400390625 -159.021484375 c 6
 490.400390625 -159.021484375 l 6
 515.733398438 -159.021484375 531.400390625 -147.586914062 531.400390625 -116.021484375 c 6
 531.400390625 -15.8076171875 l 5
 407.395507812 -15.8076171875 l 5
 407.395507812 -35.009765625 l 6
 407.395507812 -47.8876953125 406.6796875 -53.0107421875 393.799804688 -53.0107421875 c 6
 160.400390625 -53.0107421875 l 6
 149.067382812 -53.0107421875 147.405273438 -47.0107421875 147.405273438 -35.0107421875 c 6
 147.405273438 -15.8076171875 l 5
 23.400390625 -15.8076171875 l 5
EndSplineSet
Refer: 115 -1 N 1 0 0 1 0 0 2
EndChar

StartChar: si_GhRa
Encoding: 127 -1 119
GlifName: si_G_hR_a
Width: 566
VWidth: 0
GlyphClass: 2
Flags: HMW
LayerCount: 2
Back
Fore
SplineSet
23.400390625 -15.8076171875 m 1
 23.400390625 -114.82421875 l 2
 23.400390625 -144.818359375 40.31640625 -159.021484375 67.400390625 -159.021484375 c 2
 490.400390625 -159.021484375 l 2
 515.733398438 -159.021484375 531.400390625 -147.586914062 531.400390625 -116.021484375 c 2
 531.400390625 -15.8076171875 l 1
 407.395507812 -15.8076171875 l 1
 407.395507812 -35.009765625 l 2
 407.395507812 -47.8876953125 406.6796875 -53.0107421875 393.799804688 -53.0107421875 c 2
 160.400390625 -53.0107421875 l 2
 149.067382812 -53.0107421875 147.405273438 -47.0107421875 147.405273438 -35.0107421875 c 2
 147.405273438 -15.8076171875 l 1
 23.400390625 -15.8076171875 l 1
EndSplineSet
Refer: 116 -1 N 1 0 0 1 0 0 2
EndChar

StartChar: si_GhU
Encoding: 122 -1 120
GlifName: si_G_hU_
Width: 564
VWidth: 0
GlyphClass: 2
Flags: HMW
LayerCount: 2
Back
Fore
SplineSet
383.994140625 582.198242188 m 2
 373.994140625 582.198242188 368.994140625 578.198242188 368.994140625 570.198242188 c 2
 368.994140625 562.010742188 l 2
 368.994140625 553.34375 374.327148438 549.010742188 384.994140625 549.010742188 c 2
 425.994140625 549.010742188 l 2
 436.661132812 549.010742188 441.994140625 553.677734375 441.994140625 563.010742188 c 2
 441.994140625 570.198242188 l 2
 441.994140625 578.198242188 436.327148438 582.198242188 424.994140625 582.198242188 c 2
 383.994140625 582.198242188 l 2
160.397460938 546.000976562 m 2
 149.407226562 546 147.40234375 540.000976562 147.40234375 528.000976562 c 2
 147.40234375 511 l 1
 23.3974609375 511 l 1
 23.3974609375 595.802734375 l 2
 23.3974609375 625.796875 39.6171875 640.010742188 66.607421875 640.010742188 c 2
 492.1953125 640.01171875 l 2
 519.674804688 640.01171875 533.994140625 626.66015625 533.994140625 600 c 2
 533.994140625 540.99609375 l 2
 533.994140625 521 523.9921875 510.99609375 503.994140625 510.99609375 c 2
 303.994140625 510.994140625 l 2
 280.71875 510.994140625 275.994140625 520.250976562 275.994140625 531.99609375 c 2
 275.994140625 537.993164062 l 2
 275.994140625 542.524414062 276.811523438 545.001953125 278.393554688 545.993164062 c 1
 160.397460938 546.000976562 l 2
EndSplineSet
Refer: 440 3485 N 1 0 0 1 0 0 2
EndChar

StartChar: si_GhUu
Encoding: 123 -1 121
GlifName: si_G_hU_u
Width: 564
VWidth: 0
GlyphClass: 2
Flags: HMW
LayerCount: 2
Back
Fore
SplineSet
533.887695312 -159 m 1
 22 -159 l 1
 22 -53 l 1
 410.887695312 -53 l 1
 410.887695312 25 l 1
 482.887695312 25 l 2
 511.5546875 25 528.5546875 38 533.887695312 64 c 1
 533.887695312 -159 l 1
EndSplineSet
Refer: 440 3485 N 1 0 0 1 0 0 2
EndChar

StartChar: si_Gha.reph
Encoding: 124 -1 122
GlifName: si_G_ha.reph
Width: 564
VWidth: 0
GlyphClass: 2
Flags: HMW
LayerCount: 2
Back
Fore
SplineSet
534.005859375 -158.999023438 m 1
 417.40625 -158.999023438 l 1
 409.8515625 -151.036132812 401.939453125 -141.53515625 394.2109375 -136.201171875 c 0
 384.040039062 -129.181640625 372.51953125 -129.001953125 362.411132812 -129.001953125 c 1
 336.405273438 -129.001953125 l 1
 324.4296875 -129.001953125 312.596147248 -129.477849932 294 -137 c 1
 248 -153 l 1
 234.936399985 -157.679200005 217 -162.8046875 189 -162.8046875 c 2
 70.0009765625 -162.8046875 l 2
 37.5869140625 -162.8046875 22 -150.575195312 22 -122.001953125 c 2
 22 -29.0029296875 l 1
 139 -29.0029296875 l 1
 139 -51.001953125 l 2
 139 -62.2861328125 143.868164062 -69.0029296875 155.8046875 -69.0029296875 c 2
 194.793945312 -69.0029296875 l 2
 207.793945312 -69.0029296875 226.38671875 -65.3271484375 244 -59 c 1
 279 -47 l 5
 298.456054688 -39.259765625 318.553710938 -39.001953125 334.201171875 -39.001953125 c 1
 364.419921875 -39.001953125 l 1
 374.380859375 -39.001953125 391.443359375 -39.1923828125 399.616210938 -45.001953125 c 0
 405.422851562 -49.1298828125 406.256835938 -50.2412109375 411.00390625 -55.001953125 c 1
 411.00390625 14 l 1
 489.005859375 14 l 2
 515.005859375 14 530.005859375 28 534.005859375 56 c 1
 534.005859375 -158.999023438 l 1
EndSplineSet
Refer: 440 3485 N 1 0 0 1 0 0 2
EndChar

StartChar: si_H.halant
Encoding: 407 -1 123
GlifName: si_H_.halant
Width: 592
VWidth: 0
GlyphClass: 2
Flags: HMW
LayerCount: 2
Back
Fore
SplineSet
451.5 413 m 257
 451.5 681 l 257
 505.5 639 603 634 603 542 c 256
 603 498 568.191 468 525 468 c 256
 510.333 468 495.333 471.333 480 478 c 257
 480 407 l 257
 451.5 413 l 257
480.105 504.273 m 257
 488.6 499.699 499.382 497.413 512.448 497.413 c 256
 544.454 497.413 558 521.915 558 545.438 c 256
 558 586.602 526.17 606.203 480.105 636.587 c 257
 480.105 504.273 l 257
EndSplineSet
Refer: 475 3524 N 1 0 0 1 0 0 2
EndChar

StartChar: si_HRIi
Encoding: 414 -1 126
GlifName: si_H_R_I_i
Width: 592
VWidth: 0
GlyphClass: 2
Flags: HMW
LayerCount: 2
Back
Fore
SplineSet
393.546 520 m 256
 393.546 487.107 423.082 460.258 460 460.258 c 256
 496.918 460.258 526.454 487.107 526.454 520 c 256
 526.454 552.893 496.918 579.742 460 579.742 c 256
 423.082 579.742 393.546 552.893 393.546 520 c 256
150 537 m 256
 150 628 248.984 667 351 667 c 256
 456.345 667 559 618.415 559 525 c 256
 559 456.817 502.17 431 460 431 c 256
 414.356 431 361 463.284 361 520 c 256
 361 538.988 367.643 554.466 375 565.781 c 257
 369.354 565.931 363.678 566 358 566 c 256
 276.527 566 221 537.781 221 503 c 256
 221 453.811 325 431.492 411 431.492 c 256
 412.006 431.492 412.006 431.494 413 431.5 c 257
 397 409.5 l 257
 237 412.833 150 462 150 537 c 256
61.25 -44 m 257
 90.75 -44 l 257
 124.283 -93.29 184.302 -113.75 297.5 -113.75 c 256
 449.064 -113.75 572.25 -31.0107 572.25 63.25 c 256
 572.25 78.2842 569.5 90.793 562.5 102 c 257
 575.5 133 l 257
 593.5 106.333 602.5 74.667 602.5 38 c 256
 602.5 -123.729 471.55 -219 320 -219 c 256
 180.156 -219 98.583 -153.333 61.25 -44 c 257
EndSplineSet
Refer: 475 3524 N 1 0 0 1 0 0 2
EndChar

StartChar: si_HRa
Encoding: 413 -1 127
GlifName: si_H_R_a
Width: 592
VWidth: 0
GlyphClass: 2
Flags: HMW
LayerCount: 2
Back
Fore
SplineSet
61.25 -44 m 257
 90.75 -44 l 257
 124.283 -93.29 184.302 -113.75 297.5 -113.75 c 256
 449.064 -113.75 572.25 -31.0107 572.25 63.25 c 256
 572.25 78.2842 569.5 90.793 562.5 102 c 257
 575.5 133 l 257
 593.5 106.333 602.5 74.667 602.5 38 c 256
 602.5 -123.729 471.55 -219 320 -219 c 256
 180.156 -219 98.583 -153.333 61.25 -44 c 257
EndSplineSet
Refer: 475 3524 N 1 0 0 1 0 0 2
EndChar

StartChar: si_HU
Encoding: 410 -1 128
GlifName: si_H_U_
Width: 592
VWidth: 0
GlyphClass: 2
Flags: HMW
LayerCount: 2
Back
Fore
SplineSet
562 -159 m 5
 24 -159 l 5
 24 -53 l 5
 439 -53 l 5
 439 25 l 5
 511 25 l 6
 539.666992188 25 556.666992188 38 562 64 c 5
 562 -159 l 5
EndSplineSet
Refer: 475 3524 N 1 0 0 1 0 0 2
EndChar

StartChar: si_HUu
Encoding: 411 -1 129
GlifName: si_H_U_u
Width: 592
VWidth: 0
GlyphClass: 2
Flags: HMW
LayerCount: 2
Back
Fore
SplineSet
561.801757812 -158.999023438 m 1
 445.202148438 -158.999023438 l 1
 437.647460938 -151.036132812 429.735351562 -141.53515625 422.006835938 -136.201171875 c 0
 411.8359375 -129.181640625 400.315429688 -129.001953125 390.20703125 -129.001953125 c 1
 355.993164062 -129.001953125 l 1
 344.017578125 -129.001953125 334.421875 -131.704101562 321.993164062 -136.802734375 c 9
 278.7890625 -153.803710938 l 1
 267.000976562 -158.020507812 254.99609375 -162.8046875 226.99609375 -162.8046875 c 2
 72.0009765625 -162.8046875 l 2
 39.5869140625 -162.8046875 24 -150.575195312 24 -122.001953125 c 2
 24 -29.0029296875 l 1
 148.006835938 -29.0029296875 l 1
 148.006835938 -51.001953125 l 2
 148.006835938 -62.2861328125 152.875 -69.0029296875 164.811523438 -69.0029296875 c 2
 228.986328125 -69.0029296875 l 2
 241.986328125 -69.0029296875 258.130859375 -65.4404296875 274.985351562 -58.80078125 c 1
 311.989257812 -46.0009765625 l 17
 324.955078125 -40.673828125 338.141601562 -39.001953125 353.7890625 -39.001953125 c 1
 392.215820312 -39.001953125 l 1
 402.176757812 -39.001953125 419.239257812 -39.1923828125 427.412109375 -45.001953125 c 0
 433.21875 -49.1298828125 434.052734375 -50.2412109375 438.799804688 -55.001953125 c 1
 438.799804688 18.404296875 l 1
 516.801757812 18.404296875 l 2
 542.801757812 18.404296875 557.801757812 32.404296875 561.801757812 60.404296875 c 1
 561.801757812 -158.999023438 l 1
EndSplineSet
Refer: 475 3524 N 1 0 0 1 0 0 2
EndChar

StartChar: si_Ha.reph
Encoding: 412 -1 130
GlifName: si_H_a.reph
Width: 592
VWidth: 0
GlyphClass: 2
Flags: HMW
LayerCount: 2
Back
Fore
SplineSet
271.15 511 m 256
 271.15 490.854 289.378 474.547 311.25 474.547 c 256
 333.122 474.547 351.35 490.854 351.35 511 c 256
 351.35 531.146 333.122 547.453 311.25 547.453 c 256
 289.378 547.453 271.15 531.146 271.15 511 c 256
168.25 530 m 256
 168.25 594 226.37 631 308.25 631 c 256
 385.25 631 449.25 588 449.25 517 c 256
 449.25 493 440.917 471.333 424.25 452 c 257
 388.5 452 l 257
 401.67 464.387 417.25 488.734 417.25 516 c 256
 417.25 570.521 368.25 602.5 307.25 602.5 c 256
 254.472 602.5 201 579.99 201 530 c 256
 201 490.925 244.151 473.688 261.75 471.25 c 257
 253.75 477.25 243.25 491 243.25 512 c 256
 243.25 547 274.604 572 310.25 572 c 256
 351.25 572 379.25 545 379.25 510 c 256
 379.25 471 344.25 445 286.25 445 c 256
 227.25 445 168.25 474 168.25 530 c 256
EndSplineSet
Refer: 475 3524 N 1 0 0 1 0 0 2
EndChar

StartChar: si_J.halant
Encoding: 150 -1 131
GlifName: si_J_.halant
Width: 513
VWidth: 0
GlyphClass: 2
Flags: HMW
LayerCount: 2
Back
Fore
SplineSet
429 486 m 1
 291.999023438 486.400390625 l 1
 301.8515625 493.376953125 312.73828125 498.216796875 331 532 c 2
 391 643 l 1
 524 643 l 1
 465.99609375 524 l 2
 455.392578125 502.245117188 437.586914062 489.982421875 429 486 c 1
164 107 m 2
 343 107 l 2
 355 107 361 114.333007812 361 129 c 2
 361 234 l 2
 361 246.666992188 354 253 340 253 c 2
 242.995117188 253 l 1
 242.995117188 443 l 2
 242.995117188 480.765625 276.326171875 497 314.995117188 497 c 2
 484 497 l 1
 484 394 l 1
 354.995117188 394 l 2
 344.328125 394 338.995117188 389.333007812 338.995117188 380 c 2
 338.995117188 356 l 1
 429 356 l 2
 466.333007812 356 485 337.333007812 485 300 c 2
 485 54 l 2
 485 16.2734375 472.072265625 0 435 0 c 2
 72 0 l 2
 34.9248046875 0 22 16.2705078125 22 54 c 2
 22 300 l 2
 22 337.333007812 40.6669921875 356 78 356 c 2
 124.78125 356 l 1
 124.78125 380 l 10
 124.78125 389 119.448242188 394 108.78125 394 c 2
 23 394 l 1
 23 497 l 1
 143.995117188 497 l 2
 182.651367188 497 215.995117188 480.760742188 215.995117188 443 c 2
 215.995117188 253 l 1
 167 253 l 2
 156 253 146 246.666992188 146 234 c 2
 146 129 l 2
 146 114.333007812 152 107 164 107 c 2
242.990234375 438 m 25
 242.990234375 656 l 1
 345.78515625 656 l 1
 345.78515625 437.204101562 l 25
 242.990234375 438 l 25
EndSplineSet
EndChar

StartChar: si_JI
Encoding: 151 -1 132
GlifName: si_J_I_
Width: 513
VWidth: 0
GlyphClass: 2
Flags: HMW
LayerCount: 2
Back
Fore
SplineSet
40 511.604492188 m 5
 163.408203125 511.604492188 l 5
 163.408203125 541 l 6
 163.408203125 553 169.07421875 559 180.408203125 559 c 6
 328 559 l 5
 373.802734375 642.990234375 l 5
 98.7978515625 642.989257812 l 6
 68.669921875 642.989257812 40 624.453125 40 590.990234375 c 6
 40 511.604492188 l 5
EndSplineSet
Refer: 445 3490 N 1 0 0 1 0 0 2
EndChar

StartChar: si_JIi
Encoding: 152 -1 133
GlifName: si_J_I_i
Width: 513
VWidth: 0
GlyphClass: 2
Flags: HMW
LayerCount: 2
Back
Fore
SplineSet
252.586914062 564 m 6
 252.586914062 546 l 6
 252.586914062 542 255.938476562 540 262.586914062 540 c 6
 290 540 l 6
 296 540 299 542.333007812 299 547 c 6
 299 564 l 6
 299 568.666992188 296 571 290 571 c 6
 261.586914062 571 l 6
 255.602539062 571 252.586914062 568.666992188 252.586914062 564 c 6
324 507 m 22
 218 507 l 6
 207 507 201 513 201 525 c 6
 201 559 l 5
 172 559 l 6
 160.666666667 559 155 553 155 541 c 6
 155 507 l 5
 40 507 l 5
 40 600.791992188 l 6
 40 625.454101562 61.7109375 644.791992188 86 644.791992188 c 6
 306 644.791992188 l 6
 331.431640625 644.791992188 350.113158177 631.849974158 350.188476562 599 c 6
 350.346679687 530 l 14
 350 517 337 507 324 507 c 22
EndSplineSet
Refer: 445 3490 N 1 0 0 1 0 0 2
EndChar

StartChar: si_JRI
Encoding: 157 -1 134
GlifName: si_J_R_I_
Width: 513
VWidth: 0
GlyphClass: 2
Flags: HMW
LayerCount: 2
Back
Fore
SplineSet
21.990234375 -15.8076171875 m 5
 21.990234375 -114.82421875 l 6
 21.990234375 -144.818359375 38.90625 -159.021484375 65.990234375 -159.021484375 c 6
 443.801757812 -159.021484375 l 6
 469.134765625 -159.021484375 484.801757812 -147.586914062 484.801757812 -116.021484375 c 6
 484.801757812 -15.8076171875 l 5
 360.796875 -15.8076171875 l 5
 360.796875 -35.009765625 l 6
 360.796875 -47.8876953125 360.081054688 -53.0107421875 347.201171875 -53.0107421875 c 6
 158.990234375 -53.0107421875 l 6
 147.657226562 -53.0107421875 145.995117188 -47.0107421875 145.995117188 -35.0107421875 c 6
 145.995117188 -15.8076171875 l 5
 21.990234375 -15.8076171875 l 5
40 511.604492188 m 1
 163.408203125 511.604492188 l 1
 163.408203125 541 l 2
 163.408203125 553 169.07421875 559 180.408203125 559 c 2
 328 559 l 1
 373.802734375 642.990234375 l 1
 98.7978515625 642.989257812 l 2
 68.669921875 642.989257812 40 624.453125 40 590.990234375 c 2
 40 511.604492188 l 1
EndSplineSet
Refer: 445 3490 N 1 0 0 1 0 0 2
EndChar

StartChar: si_JRIi
Encoding: 158 -1 135
GlifName: si_J_R_I_i
Width: 513
VWidth: 0
GlyphClass: 2
Flags: HMW
LayerCount: 2
Back
Fore
SplineSet
21.990234375 -15.8076171875 m 5
 21.990234375 -114.82421875 l 6
 21.990234375 -144.818359375 38.90625 -159.021484375 65.990234375 -159.021484375 c 6
 443.801757812 -159.021484375 l 6
 469.134765625 -159.021484375 484.801757812 -147.586914062 484.801757812 -116.021484375 c 6
 484.801757812 -15.8076171875 l 5
 360.796875 -15.8076171875 l 5
 360.796875 -35.009765625 l 6
 360.796875 -47.8876953125 360.081054688 -53.0107421875 347.201171875 -53.0107421875 c 6
 158.990234375 -53.0107421875 l 6
 147.657226562 -53.0107421875 145.995117188 -47.0107421875 145.995117188 -35.0107421875 c 6
 145.995117188 -15.8076171875 l 5
 21.990234375 -15.8076171875 l 5
252.586914062 564 m 2
 252.586914062 546 l 2
 252.586914062 542 255.938476562 540 262.586914062 540 c 2
 290 540 l 2
 296 540 299 542.333007812 299 547 c 2
 299 564 l 2
 299 568.666992188 296 571 290 571 c 2
 261.586914062 571 l 2
 255.602539062 571 252.586914062 568.666992188 252.586914062 564 c 2
324 507 m 18
 218 507 l 2
 207 507 201 513 201 525 c 2
 201 559 l 1
 172 559 l 2
 160.666666667 559 155 553 155 541 c 2
 155 507 l 1
 40 507 l 1
 40 600.791992188 l 2
 40 625.454101562 61.7109375 644.791992188 86 644.791992188 c 2
 306 644.791992188 l 2
 331.431640625 644.791992188 350.113158177 631.849974158 350.188476562 599 c 2
 350.346679687 530 l 10
 350 517 337 507 324 507 c 18
EndSplineSet
Refer: 445 3490 N 1 0 0 1 0 0 2
EndChar

StartChar: si_JRa
Encoding: 156 -1 136
GlifName: si_J_R_a
Width: 513
VWidth: 0
GlyphClass: 2
Flags: HMW
LayerCount: 2
Back
Fore
SplineSet
21.990234375 -15.8076171875 m 5
 21.990234375 -114.82421875 l 6
 21.990234375 -144.818359375 38.90625 -159.021484375 65.990234375 -159.021484375 c 6
 443.801757812 -159.021484375 l 6
 469.134765625 -159.021484375 484.801757812 -147.586914062 484.801757812 -116.021484375 c 6
 484.801757812 -15.8076171875 l 5
 360.796875 -15.8076171875 l 5
 360.796875 -35.009765625 l 6
 360.796875 -47.8876953125 360.081054688 -53.0107421875 347.201171875 -53.0107421875 c 6
 158.990234375 -53.0107421875 l 6
 147.657226562 -53.0107421875 145.995117188 -47.0107421875 145.995117188 -35.0107421875 c 6
 145.995117188 -15.8076171875 l 5
 21.990234375 -15.8076171875 l 5
EndSplineSet
Refer: 445 3490 N 1 0 0 1 0 0 2
EndChar

StartChar: si_Ja.reph
Encoding: 155 -1 139
GlifName: si_J_a.reph
Width: 513
VWidth: 0
GlyphClass: 2
Flags: HMW
LayerCount: 2
Back
Fore
SplineSet
154.405273438 618 m 5
 212.405273438 618 l 5
 212.405273438 552 l 6
 212.405273438 524.822265625 200.9140625 515 181.405273438 515 c 6
 63.19921875 515 l 2
 36.73046875 515 23.19921875 528.895507812 23.19921875 561 c 2
 23.19921875 659 l 2
 23.19921875 687.736328125 40.4482421875 707 77.19921875 707 c 2
 286.799804688 707 l 2
 320.245117188 707 337.799804688 690.178710938 337.799804688 651 c 2
 337.799804688 518 l 1
 240.19921875 518 l 5
 240.19921875 620 l 6
 240.19921875 635.333007812 234.866210938 643 224.19921875 643 c 6
 143.033203125 643 l 2
 132.366210938 643 127.033203125 638.666992188 127.033203125 630 c 2
 127.033203125 602 l 2
 127.033203125 593.333007812 130.752929688 589 139.033203125 589 c 2
 141.614257812 589 l 6
 152.87890625 589 154.405273438 594.333007812 154.405273438 605 c 6
 154.405273438 618 l 5
EndSplineSet
Refer: 445 3490 N 1 0 0 1 0 0 2
EndChar

StartChar: si_Jh.halant
Encoding: 159 -1 140
GlifName: si_J_h.halant
Width: 912
VWidth: 1000
GlyphClass: 2
Flags: HMW
LayerCount: 2
Back
Fore
SplineSet
881 400 m 5
 757 400 l 5
 757 441 l 6
 757 459.348632812 750.061523438 464 731 464 c 6
 425.196289062 464 l 5
 425 550 l 5
 484.412109375 550 l 5
 455.079101562 557.333007812 440.412109375 571.666992188 440.412109375 593 c 6
 440.412109375 632 l 6
 440.412109375 659.333007812 456.745117188 673 489.412109375 673 c 6
 879 673 l 5
 879 589 l 5
 596.412109375 589 l 6
 578.412109375 589 569.412109375 584.333007812 569.412109375 575 c 4
 569.412109375 565.2265625 577.337890625 558 587.412109375 558 c 6
 812 558 l 6
 867.44140625 558 881 533.686523438 881 477 c 6
 881 400 l 5
880.998046875 415 m 5
 880.998046875 49 l 6
 880.998046875 16.6826171875 867.396484375 0 834 0 c 6
 697.802734375 0 l 6
 671.802734375 0 655.46875 12.3330078125 648.802734375 37 c 5
 645.62890625 16.3779296875 625.072265625 0 601.802734375 0 c 6
 465 0 l 6
 433.609375 0 418 15.017578125 418 48 c 6
 418 326.606445312 l 6
 418 365.161132812 436.020507812 391.606445312 477 391.606445312 c 6
 598.999023438 391.606445312 l 5
 599 284.005859375 l 29
 552 284.005859375 l 6
 545.064453125 284.005859375 542.00390625 280.297851562 542.00390625 274.205078125 c 6
 542.00390625 126 l 6
 542.00390625 113.333007812 548.336914062 107 561.00390625 107 c 6
 577.802734375 107 l 6
 592.46875 107 599.802734375 115.333007812 599.802734375 132 c 6
 599.802734375 244.795898438 l 5
 699.3984375 244.795898438 l 5
 699.3984375 134 l 6
 699.3984375 116 707.064453125 107 722.3984375 107 c 6
 739.997070312 107 l 6
 751.330078125 107 756.997070312 114 756.997070312 128 c 6
 756.997070312 414.998046875 l 29
 880.998046875 415 l 5
275.400390625 243 m 6
 275.400390625 255.665039062 270.400390625 262 260.400390625 262 c 6
 145 262 l 5
 115.399414062 236 l 5
 143.79296875 236 l 5
 143.99609375 222 l 21
 138.510742188 218.223632812 131.99609375 204.954101562 131.99609375 180.802734375 c 6
 131.99609375 127 l 6
 131.99609375 109.666015625 134.65625 107 145.99609375 107 c 6
 154.397460938 107 l 6
 167.482421875 107 169.397460938 112.666992188 169.397460938 124.000976562 c 6
 169.397460938 188 l 5
 237.397460938 188 l 5
 237.397460938 126 l 6
 237.397460938 111.333007812 240.106445312 107 251.397460938 107 c 6
 262.400390625 107 l 6
 272.60546875 107 275.400390625 111.802734375 275.400390625 129.801757812 c 6
 275.400390625 243 l 6
598.999023438 391.606445312 m 5
 433 350 l 6
 343 382.198242188 l 6
 331.381835938 386.587890625 315.375 391.201171875 309 391.201171875 c 4
 296.885742188 391.201171875 292.494175967 390.784139108 276.198242188 376.591796875 c 6
 251.407226562 355.000976562 l 5
 331.400390625 355.000976562 l 6
 363.212890625 355.000976562 384.400390625 337.696289062 384.400390625 298.000976562 c 6
 384.400390625 51.0009765625 l 6
 384.400390625 14.955078125 361.044921875 0.0009765625 331.400390625 0.0009765625 c 6
 241.397460938 0.0009765625 l 6
 222.4375 0.0009765625 209.064453125 9.66796875 204.397460938 29.001953125 c 5
 199.73046875 9.66796875 183.08984375 0.0009765625 165.397460938 0.0009765625 c 6
 65.99609375 0.0009765625 l 6
 34.1328125 0.0009765625 22 19.8173828125 22 50.001953125 c 6
 22 140.201171875 l 6
 22 180.99609375 34.2734375 195.265625 48 203.001953125 c 5
 11.9970703125 203.001953125 l 5
 11.9970703125 276.397460938 l 5
 11.9970703125 276.397460938 87.408203125 342.000976562 130.608398438 380.401367188 c 5
 130.608398438 381.999023438 l 6
 130.608398438 391.228515625 119.918945312 393.971679688 107.01171875 394.001953125 c 6
 22 394.201171875 l 5
 22 497.201171875 l 5
 185.409179688 497.000976562 l 6
 217.091796875 496.962890625 221.004882812 469.791015625 221.004882812 461.598632812 c 6
 221.004882812 459.3984375 l 5
 243.599609375 475.202148438 l 6
 267.182617188 490.3828125 280.127929688 491.401367188 301 491.401367188 c 4
 308.069335938 491.401367188 335.533144883 486.575171787 351 481 c 6
 598.999023438 391.606445312 l 5
EndSplineSet
EndChar

StartChar: si_JhI
Encoding: 160 -1 141
GlifName: si_J_hI_
Width: 912
VWidth: 1000
GlyphClass: 2
Flags: HMW
LayerCount: 2
Back
Fore
SplineSet
881 394 m 5
 757 394 l 5
 757 435 l 6
 757 443.666992188 755.166992188 449.666992188 751.5 453 c 132
 747.833007812 456.333007812 741 458 731 458 c 6
 465 458 l 6
 433.666992188 458 418 474 418 506 c 6
 418 606 l 6
 418 628 422.5 643.5 431.5 652.5 c 132
 440.5 661.5 456 666 478 666 c 6
 879 666 l 5
 880 583 l 5
 561 584 l 6
 548.333007812 584 542 579.666992188 542 571 c 6
 542 562 l 6
 542 555.333007812 547.666992188 552 559 552 c 6
 812 552 l 6
 839.333007812 552 857.666992188 546 867 534 c 132
 876.333007812 522 881 501 881 471 c 6
 881 394 l 5
880.998046875 415 m 5
 880.998046875 49 l 6
 880.998046875 16.6826171875 867.396484375 0 834 0 c 6
 697.802734375 0 l 6
 671.802734375 0 655.46875 12.3330078125 648.802734375 37 c 5
 645.62890625 16.3779296875 625.072265625 0 601.802734375 0 c 6
 465 0 l 6
 433.609375 0 418 15.017578125 418 48 c 6
 418 326.606445312 l 6
 418 365.161132812 436.020507812 391.606445312 477 391.606445312 c 6
 598.999023438 391.606445312 l 5
 599 284.005859375 l 29
 552 284.005859375 l 6
 545.064453125 284.005859375 542.00390625 280.297851562 542.00390625 274.205078125 c 6
 542.00390625 126 l 6
 542.00390625 113.333007812 548.336914062 107 561.00390625 107 c 6
 577.802734375 107 l 6
 592.46875 107 599.802734375 115.333007812 599.802734375 132 c 6
 599.802734375 244.795898438 l 5
 699.3984375 244.795898438 l 5
 699.3984375 134 l 6
 699.3984375 116 707.064453125 107 722.3984375 107 c 6
 739.997070312 107 l 6
 751.330078125 107 756.997070312 114 756.997070312 128 c 6
 756.997070312 414.998046875 l 29
 880.998046875 415 l 5
275.400390625 243 m 6
 275.400390625 255.665039062 270.400390625 262 260.400390625 262 c 6
 145 262 l 5
 115.399414062 236 l 5
 143.79296875 236 l 5
 143.99609375 222 l 21
 138.510742188 218.223632812 131.99609375 204.954101562 131.99609375 180.802734375 c 6
 131.99609375 127 l 6
 131.99609375 109.666015625 134.65625 107 145.99609375 107 c 6
 154.397460938 107 l 6
 167.482421875 107 169.397460938 112.666992188 169.397460938 124.000976562 c 6
 169.397460938 188 l 5
 237.397460938 188 l 5
 237.397460938 126 l 6
 237.397460938 111.333007812 240.106445312 107 251.397460938 107 c 6
 262.400390625 107 l 6
 272.60546875 107 275.400390625 111.802734375 275.400390625 129.801757812 c 6
 275.400390625 243 l 6
598.999023438 391.606445312 m 5
 433 350 l 6
 343 382.198242188 l 6
 331.381835938 386.587890625 315.375 391.201171875 309 391.201171875 c 4
 296.885742188 391.201171875 292.494175967 390.784139108 276.198242188 376.591796875 c 6
 251.407226562 355.000976562 l 5
 331.400390625 355.000976562 l 6
 363.212890625 355.000976562 384.400390625 337.696289062 384.400390625 298.000976562 c 6
 384.400390625 51.0009765625 l 6
 384.400390625 14.955078125 361.044921875 0.0009765625 331.400390625 0.0009765625 c 6
 241.397460938 0.0009765625 l 6
 222.4375 0.0009765625 209.064453125 9.66796875 204.397460938 29.001953125 c 5
 199.73046875 9.66796875 183.08984375 0.0009765625 165.397460938 0.0009765625 c 6
 65.99609375 0.0009765625 l 6
 34.1328125 0.0009765625 22 19.8173828125 22 50.001953125 c 6
 22 140.201171875 l 6
 22 180.99609375 34.2734375 195.265625 48 203.001953125 c 5
 11.9970703125 203.001953125 l 5
 11.9970703125 276.397460938 l 5
 11.9970703125 276.397460938 87.408203125 342.000976562 130.608398438 380.401367188 c 5
 130.608398438 381.999023438 l 6
 130.608398438 391.228515625 119.918945312 393.971679688 107.01171875 394.001953125 c 6
 22 394.201171875 l 5
 22 497.201171875 l 5
 185.409179688 497.000976562 l 6
 217.091796875 496.962890625 221.004882812 469.791015625 221.004882812 461.598632812 c 6
 221.004882812 459.3984375 l 5
 243.599609375 475.202148438 l 6
 267.182617188 490.3828125 280.127929688 491.401367188 301 491.401367188 c 4
 308.069335938 491.401367188 335.533144883 486.575171787 351 481 c 6
 598.999023438 391.606445312 l 5
EndSplineSet
EndChar

StartChar: si_JhIi
Encoding: 161 -1 142
GlifName: si_J_hI_i
Width: 912
VWidth: 1000
GlyphClass: 2
Flags: HMW
LayerCount: 2
Back
Fore
SplineSet
756.999023438 405 m 5
 756.999023438 434 l 6
 756.999023438 452.190429688 739.681640625 464 720.999023438 464 c 6
 460.999023438 464 l 6
 431.15625 464 417.999023438 472.771484375 417.999023438 505 c 6
 417.999023438 618 l 6
 417.999023438 654.859375 431.41015625 672 467.999023438 672 c 6
 830.999023438 672 l 6
 867.586914062 672 880.999023438 654.858398438 880.999023438 618 c 6
 880.999023438 552 l 6
 880.999023438 529.837890625 864.8671875 512.7734375 845.999023438 509 c 5
 867.91015625 502.15234375 880.999023438 474.274414062 880.999023438 445 c 6
 880.999023438 405 l 5
 756.999023438 405 l 5
627.999023438 539 m 5
 620.065429688 543.655273438 616.999023438 547.826171875 616.999023438 564 c 6
 616.999023438 575 l 6
 616.999023438 581.85546875 617.140625 584.018554688 619.999023438 587 c 5
 548.999023438 587 l 6
 537.666015625 587 531.999023438 582.333007812 531.999023438 573 c 6
 531.999023438 554 l 6
 531.999023438 544 537.33203125 539 547.999023438 539 c 6
 627.999023438 539 l 5
721.999023438 594 m 6
 713.618164062 594 708.999023438 588.387695312 708.999023438 581 c 6
 708.999023438 558 l 6
 708.999023438 547.623046875 718.200195312 543 726.999023438 543 c 6
 763.999023438 543 l 6
 775.681640625 543 783.999023438 549.518554688 783.999023438 564 c 6
 783.999023438 582 l 6
 783.999023438 591.395507812 777.68359375 594 772.999023438 594 c 6
 721.999023438 594 l 6
880.998046875 415 m 1
 880.998046875 49 l 2
 880.998046875 16.6826171875 867.396484375 0 834 0 c 2
 697.802734375 0 l 2
 671.802734375 0 655.46875 12.3330078125 648.802734375 37 c 1
 645.62890625 16.3779296875 625.072265625 0 601.802734375 0 c 2
 465 0 l 2
 433.609375 0 418 15.017578125 418 48 c 2
 418 326.606445312 l 2
 418 365.161132812 436.020507812 391.606445312 477 391.606445312 c 2
 598.999023438 391.606445312 l 1
 599 284.005859375 l 25
 552 284.005859375 l 2
 545.064453125 284.005859375 542.00390625 280.297851562 542.00390625 274.205078125 c 2
 542.00390625 126 l 2
 542.00390625 113.333007812 548.336914062 107 561.00390625 107 c 2
 577.802734375 107 l 2
 592.46875 107 599.802734375 115.333007812 599.802734375 132 c 2
 599.802734375 244.795898438 l 1
 699.3984375 244.795898438 l 1
 699.3984375 134 l 2
 699.3984375 116 707.064453125 107 722.3984375 107 c 2
 739.997070312 107 l 2
 751.330078125 107 756.997070312 114 756.997070312 128 c 2
 756.997070312 414.998046875 l 25
 880.998046875 415 l 1
275.400390625 243 m 2
 275.400390625 255.665039062 270.400390625 262 260.400390625 262 c 2
 145 262 l 1
 115.399414062 236 l 1
 143.79296875 236 l 1
 143.99609375 222 l 17
 138.510742188 218.223632812 131.99609375 204.954101562 131.99609375 180.802734375 c 2
 131.99609375 127 l 2
 131.99609375 109.666015625 134.65625 107 145.99609375 107 c 2
 154.397460938 107 l 2
 167.482421875 107 169.397460938 112.666992188 169.397460938 124.000976562 c 2
 169.397460938 188 l 1
 237.397460938 188 l 1
 237.397460938 126 l 2
 237.397460938 111.333007812 240.106445312 107 251.397460938 107 c 2
 262.400390625 107 l 2
 272.60546875 107 275.400390625 111.802734375 275.400390625 129.801757812 c 2
 275.400390625 243 l 2
598.999023438 391.606445312 m 1
 433 350 l 2
 343 382.198242188 l 2
 331.381835938 386.587890625 315.375 391.201171875 309 391.201171875 c 0
 296.885742188 391.201171875 292.494175967 390.784139108 276.198242188 376.591796875 c 2
 251.407226562 355.000976562 l 1
 331.400390625 355.000976562 l 2
 363.212890625 355.000976562 384.400390625 337.696289062 384.400390625 298.000976562 c 2
 384.400390625 51.0009765625 l 2
 384.400390625 14.955078125 361.044921875 0.0009765625 331.400390625 0.0009765625 c 2
 241.397460938 0.0009765625 l 2
 222.4375 0.0009765625 209.064453125 9.66796875 204.397460938 29.001953125 c 1
 199.73046875 9.66796875 183.08984375 0.0009765625 165.397460938 0.0009765625 c 2
 65.99609375 0.0009765625 l 2
 34.1328125 0.0009765625 22 19.8173828125 22 50.001953125 c 2
 22 140.201171875 l 2
 22 180.99609375 34.2734375 195.265625 48 203.001953125 c 1
 11.9970703125 203.001953125 l 1
 11.9970703125 276.397460938 l 1
 11.9970703125 276.397460938 87.408203125 342.000976562 130.608398438 380.401367188 c 1
 130.608398438 381.999023438 l 2
 130.608398438 391.228515625 119.918945312 393.971679688 107.01171875 394.001953125 c 2
 22 394.201171875 l 1
 22 497.201171875 l 1
 185.409179688 497.000976562 l 2
 217.091796875 496.962890625 221.004882812 469.791015625 221.004882812 461.598632812 c 2
 221.004882812 459.3984375 l 1
 243.599609375 475.202148438 l 2
 267.182617188 490.3828125 280.127929688 491.401367188 301 491.401367188 c 0
 308.069335938 491.401367188 335.533144883 486.575171787 351 481 c 2
 598.999023438 391.606445312 l 1
EndSplineSet
EndChar

StartChar: si_JhRI
Encoding: 168 -1 143
GlifName: si_J_hR_I_
Width: 911
VWidth: 0
GlyphClass: 2
Flags: HMW
LayerCount: 2
Back
Fore
SplineSet
419.381835938 -15.8076171875 m 5
 419.381835938 -114.82421875 l 6
 419.381835938 -144.818359375 436.297851562 -159.021484375 463.381835938 -159.021484375 c 6
 839.791992188 -159.021484375 l 6
 865.125 -159.021484375 880.791992188 -147.586914062 880.791992188 -116.021484375 c 6
 880.791992188 -15.8076171875 l 5
 756.787109375 -15.8076171875 l 5
 756.787109375 -35.009765625 l 6
 756.787109375 -47.8876953125 756.071289062 -53.0107421875 743.19140625 -53.0107421875 c 6
 556.381835938 -53.0107421875 l 6
 545.048828125 -53.0107421875 543.38671875 -47.0107421875 543.38671875 -35.0107421875 c 6
 543.38671875 -15.8076171875 l 5
 419.381835938 -15.8076171875 l 5
EndSplineSet
Refer: 141 -1 N 1 0 0 1 0 0 2
EndChar

StartChar: si_JhRIi
Encoding: 169 -1 144
GlifName: si_J_hR_I_i
Width: 911
VWidth: 0
GlyphClass: 2
Flags: HMW
LayerCount: 2
Back
Fore
SplineSet
419.381835938 -15.8076171875 m 5
 419.381835938 -114.82421875 l 6
 419.381835938 -144.818359375 436.297851562 -159.021484375 463.381835938 -159.021484375 c 6
 839.791992188 -159.021484375 l 6
 865.125 -159.021484375 880.791992188 -147.586914062 880.791992188 -116.021484375 c 6
 880.791992188 -15.8076171875 l 5
 756.787109375 -15.8076171875 l 5
 756.787109375 -35.009765625 l 6
 756.787109375 -47.8876953125 756.071289062 -53.0107421875 743.19140625 -53.0107421875 c 6
 556.381835938 -53.0107421875 l 6
 545.048828125 -53.0107421875 543.38671875 -47.0107421875 543.38671875 -35.0107421875 c 6
 543.38671875 -15.8076171875 l 5
 419.381835938 -15.8076171875 l 5
EndSplineSet
Refer: 142 -1 N 1 0 0 1 0 0 2
EndChar

StartChar: si_JhRa
Encoding: 167 -1 145
GlifName: si_J_hR_a
Width: 917
VWidth: 0
GlyphClass: 2
Flags: HMW
LayerCount: 2
Back
Fore
SplineSet
425.587890625 -15.8076171875 m 1
 425.587890625 -114.82421875 l 2
 425.587890625 -144.818359375 442.50390625 -159.021484375 469.587890625 -159.021484375 c 2
 845.998046875 -159.021484375 l 2
 871.331054688 -159.021484375 886.998046875 -147.586914062 886.998046875 -116.021484375 c 2
 886.998046875 -15.8076171875 l 1
 762.993164062 -15.8076171875 l 1
 762.993164062 -35.009765625 l 2
 762.993164062 -47.8876953125 762.27734375 -53.0107421875 749.397460938 -53.0107421875 c 2
 562.587890625 -53.0107421875 l 2
 551.254882812 -53.0107421875 549.592773438 -47.0107421875 549.592773438 -35.0107421875 c 2
 549.592773438 -15.8076171875 l 1
 425.587890625 -15.8076171875 l 1
EndSplineSet
Refer: 446 3491 N 1 0 0 1 0 0 2
EndChar

StartChar: si_JhU.reph
Encoding: 165 -1 147
GlifName: si_J_hU_.reph
Width: 912
VWidth: 1000
GlyphClass: 2
Flags: HMW
LayerCount: 2
Back
Fore
SplineSet
598.196289062 284.790039062 m 29
 555.997070312 284.790039062 l 6
 549.061523438 284.790039062 546.000976562 281.08203125 546.000976562 274.989257812 c 6
 546.000976562 126 l 6
 546.000976562 113.333007812 552.333984375 107 565.000976562 107 c 6
 581.799804688 107 l 6
 596.465820312 107 603.799804688 115.333007812 603.799804688 132 c 6
 603.799804688 244.795898438 l 5
 703.395507812 244.795898438 l 5
 703.395507812 134 l 6
 703.395507812 116 711.061523438 107 726.395507812 107 c 6
 743.994140625 107 l 6
 755.327148438 107 760.994140625 114 760.994140625 128 c 6
 760.994140625 426 l 6
 760.994140625 450.8515625 753.880859375 457 729.997070312 457 c 6
 448 457 l 5
 448 558.599609375 l 5
 811.997070312 558.599609375 l 6
 854.305664062 558.599609375 884.995117188 541.86328125 884.995117188 492.599609375 c 6
 884.995117188 50 l 6
 884.995117188 19.6376953125 871.393554688 0 837.997070312 0 c 6
 701.799804688 0 l 6
 675.799804688 0 659.465820312 12.3330078125 652.799804688 37 c 5
 649.625976562 16.3779296875 629.069335938 0 605.799804688 0 c 6
 468.997070312 0 l 6
 437.606445312 0 421.997070312 15.017578125 421.997070312 48 c 6
 421.997070312 327.390625 l 6
 421.997070312 365.9453125 440.017578125 392.390625 480.997070312 392.390625 c 6
 598.1953125 392.390625 l 5
 598.196289062 284.790039062 l 29
631.177734375 628 m 5
 715.38671875 628 l 5
 715.38671875 590.188476562 l 6
 715.38671875 563.010742188 703.895507812 553.188476562 684.38671875 553.188476562 c 6
 512.38671875 553.188476562 l 6
 485.916992188 553.188476562 472.38671875 567.083984375 472.38671875 599.188476562 c 6
 472.38671875 669 l 6
 472.38671875 697.736328125 489.635742188 717 526.38671875 717 c 6
 811.38671875 717 l 6
 844.83203125 717 862.38671875 700.1640625 862.38671875 661 c 6
 862.38671875 575.198242188 l 5
 749.38671875 575.198242188 l 5
 749.38671875 630 l 6
 749.38671875 645.321289062 744.053710938 653 733.38671875 653 c 6
 600.38671875 653 l 6
 589.719726562 653 584.38671875 648.666992188 584.38671875 640 c 6
 584.38671875 612 l 6
 584.38671875 603.333007812 588.106445312 599 596.38671875 599 c 6
 618.38671875 599 l 6
 629.651367188 599 631.177734375 604.333007812 631.177734375 615 c 6
 631.177734375 628 l 5
275.400390625 243 m 6
 275.400390625 255.665039062 270.400390625 262 260.400390625 262 c 6
 145 262 l 5
 115.399414062 236 l 5
 143.79296875 236 l 5
 143.99609375 222 l 21
 138.510742188 218.223632812 131.99609375 204.954101562 131.99609375 180.802734375 c 6
 131.99609375 127 l 6
 131.99609375 109.666015625 134.65625 107 145.99609375 107 c 6
 154.397460938 107 l 6
 167.482421875 107 169.397460938 112.666992188 169.397460938 124.000976562 c 6
 169.397460938 188 l 5
 237.397460938 188 l 5
 237.397460938 126 l 6
 237.397460938 111.333007812 240.106445312 107 251.397460938 107 c 6
 262.400390625 107 l 6
 272.60546875 107 275.400390625 111.802734375 275.400390625 129.801757812 c 6
 275.400390625 243 l 6
598.999023438 391.606445312 m 5
 433 350 l 6
 343 382.198242188 l 6
 331.381835938 386.587890625 315.375 391.201171875 309 391.201171875 c 4
 296.885742188 391.201171875 292.494175967 390.784139108 276.198242188 376.591796875 c 6
 251.407226562 355.000976562 l 5
 331.400390625 355.000976562 l 6
 363.212890625 355.000976562 384.400390625 337.696289062 384.400390625 298.000976562 c 6
 384.400390625 51.0009765625 l 6
 384.400390625 14.955078125 361.044921875 0.0009765625 331.400390625 0.0009765625 c 6
 241.397460938 0.0009765625 l 6
 222.4375 0.0009765625 209.064453125 9.66796875 204.397460938 29.001953125 c 5
 199.73046875 9.66796875 183.08984375 0.0009765625 165.397460938 0.0009765625 c 6
 65.99609375 0.0009765625 l 6
 34.1328125 0.0009765625 22 19.8173828125 22 50.001953125 c 6
 22 140.201171875 l 6
 22 180.99609375 34.2734375 195.265625 48 203.001953125 c 5
 11.9970703125 203.001953125 l 5
 11.9970703125 276.397460938 l 5
 11.9970703125 276.397460938 87.408203125 342.000976562 130.608398438 380.401367188 c 5
 130.608398438 381.999023438 l 6
 130.608398438 391.228515625 119.918945312 393.971679688 107.01171875 394.001953125 c 6
 22 394.201171875 l 5
 22 497.201171875 l 5
 185.409179688 497.000976562 l 6
 217.091796875 496.962890625 221.004882812 469.791015625 221.004882812 461.598632812 c 6
 221.004882812 459.3984375 l 5
 243.599609375 475.202148438 l 6
 267.182617188 490.3828125 280.127929688 491.401367188 301 491.401367188 c 4
 308.069335938 491.401367188 335.533144883 486.575171787 351 481 c 6
 598.999023438 391.606445312 l 5
EndSplineSet
Refer: 484 3540 S 1 0 0 1 926.8 0 2
EndChar

StartChar: si_JhUu.reph
Encoding: 166 -1 149
GlifName: si_J_hU_u.reph
Width: 912
VWidth: 1000
GlyphClass: 2
Flags: HMW
LayerCount: 2
Back
Fore
SplineSet
598.196289062 284.790039062 m 25
 555.997070312 284.790039062 l 2
 549.061523438 284.790039062 546.000976562 281.08203125 546.000976562 274.989257812 c 2
 546.000976562 126 l 2
 546.000976562 113.333007812 552.333984375 107 565.000976562 107 c 2
 581.799804688 107 l 2
 596.465820312 107 603.799804688 115.333007812 603.799804688 132 c 2
 603.799804688 244.795898438 l 1
 703.395507812 244.795898438 l 1
 703.395507812 134 l 2
 703.395507812 116 711.061523438 107 726.395507812 107 c 2
 743.994140625 107 l 2
 755.327148438 107 760.994140625 114 760.994140625 128 c 2
 760.994140625 426 l 2
 760.994140625 450.8515625 753.880859375 457 729.997070312 457 c 2
 448 457 l 1
 448 558.599609375 l 1
 811.997070312 558.599609375 l 2
 854.305664062 558.599609375 884.995117188 541.86328125 884.995117188 492.599609375 c 2
 884.995117188 50 l 2
 884.995117188 19.6376953125 871.393554688 0 837.997070312 0 c 2
 701.799804688 0 l 2
 675.799804688 0 659.465820312 12.3330078125 652.799804688 37 c 1
 649.625976562 16.3779296875 629.069335938 0 605.799804688 0 c 2
 468.997070312 0 l 2
 437.606445312 0 421.997070312 15.017578125 421.997070312 48 c 2
 421.997070312 327.390625 l 2
 421.997070312 365.9453125 440.017578125 392.390625 480.997070312 392.390625 c 2
 598.1953125 392.390625 l 1
 598.196289062 284.790039062 l 25
631.177734375 628 m 1
 715.38671875 628 l 1
 715.38671875 590.188476562 l 2
 715.38671875 563.010742188 703.895507812 553.188476562 684.38671875 553.188476562 c 2
 512.38671875 553.188476562 l 2
 485.916992188 553.188476562 472.38671875 567.083984375 472.38671875 599.188476562 c 2
 472.38671875 669 l 2
 472.38671875 697.736328125 489.635742188 717 526.38671875 717 c 2
 811.38671875 717 l 2
 844.83203125 717 862.38671875 700.1640625 862.38671875 661 c 2
 862.38671875 575.198242188 l 1
 749.38671875 575.198242188 l 1
 749.38671875 630 l 2
 749.38671875 645.321289062 744.053710938 653 733.38671875 653 c 2
 600.38671875 653 l 2
 589.719726562 653 584.38671875 648.666992188 584.38671875 640 c 2
 584.38671875 612 l 2
 584.38671875 603.333007812 588.106445312 599 596.38671875 599 c 2
 618.38671875 599 l 2
 629.651367188 599 631.177734375 604.333007812 631.177734375 615 c 2
 631.177734375 628 l 1
275.400390625 243 m 2
 275.400390625 255.665039062 270.400390625 262 260.400390625 262 c 2
 145 262 l 1
 115.399414062 236 l 1
 143.79296875 236 l 1
 143.99609375 222 l 17
 138.510742188 218.223632812 131.99609375 204.954101562 131.99609375 180.802734375 c 2
 131.99609375 127 l 2
 131.99609375 109.666015625 134.65625 107 145.99609375 107 c 2
 154.397460938 107 l 2
 167.482421875 107 169.397460938 112.666992188 169.397460938 124.000976562 c 2
 169.397460938 188 l 1
 237.397460938 188 l 1
 237.397460938 126 l 2
 237.397460938 111.333007812 240.106445312 107 251.397460938 107 c 2
 262.400390625 107 l 2
 272.60546875 107 275.400390625 111.802734375 275.400390625 129.801757812 c 2
 275.400390625 243 l 2
598.999023438 391.606445312 m 1
 433 350 l 2
 343 382.198242188 l 2
 331.381835938 386.587890625 315.375 391.201171875 309 391.201171875 c 0
 296.885742188 391.201171875 292.494175967 390.784139108 276.198242188 376.591796875 c 2
 251.407226562 355.000976562 l 1
 331.400390625 355.000976562 l 2
 363.212890625 355.000976562 384.400390625 337.696289062 384.400390625 298.000976562 c 2
 384.400390625 51.0009765625 l 2
 384.400390625 14.955078125 361.044921875 0.0009765625 331.400390625 0.0009765625 c 2
 241.397460938 0.0009765625 l 2
 222.4375 0.0009765625 209.064453125 9.66796875 204.397460938 29.001953125 c 1
 199.73046875 9.66796875 183.08984375 0.0009765625 165.397460938 0.0009765625 c 2
 65.99609375 0.0009765625 l 2
 34.1328125 0.0009765625 22 19.8173828125 22 50.001953125 c 2
 22 140.201171875 l 2
 22 180.99609375 34.2734375 195.265625 48 203.001953125 c 1
 11.9970703125 203.001953125 l 1
 11.9970703125 276.397460938 l 1
 11.9970703125 276.397460938 87.408203125 342.000976562 130.608398438 380.401367188 c 1
 130.608398438 381.999023438 l 2
 130.608398438 391.228515625 119.918945312 393.971679688 107.01171875 394.001953125 c 2
 22 394.201171875 l 1
 22 497.201171875 l 1
 185.409179688 497.000976562 l 2
 217.091796875 496.962890625 221.004882812 469.791015625 221.004882812 461.598632812 c 2
 221.004882812 459.3984375 l 1
 243.599609375 475.202148438 l 2
 267.182617188 490.3828125 280.127929688 491.401367188 301 491.401367188 c 0
 308.069335938 491.401367188 335.533144883 486.575171787 351 481 c 2
 598.999023438 391.606445312 l 1
EndSplineSet
Refer: 485 3542 N 1 0 0 1 927 0 2
EndChar

StartChar: si_Jha.reph
Encoding: 164 -1 150
GlifName: si_J_ha.reph
Width: 912
VWidth: 1000
GlyphClass: 2
Flags: HMW
LayerCount: 2
Back
Fore
SplineSet
598.196289062 284.790039062 m 29
 555.997070312 284.790039062 l 6
 549.061523438 284.790039062 546.000976562 281.08203125 546.000976562 274.989257812 c 6
 546.000976562 126 l 6
 546.000976562 113.333007812 552.333984375 107 565.000976562 107 c 6
 581.799804688 107 l 6
 596.465820312 107 603.799804688 115.333007812 603.799804688 132 c 6
 603.799804688 244.795898438 l 5
 703.395507812 244.795898438 l 5
 703.395507812 134 l 6
 703.395507812 116 711.061523438 107 726.395507812 107 c 6
 743.994140625 107 l 6
 755.327148438 107 760.994140625 114 760.994140625 128 c 6
 760.994140625 426 l 6
 760.994140625 450.8515625 753.880859375 457 729.997070312 457 c 6
 448 457 l 5
 448 558.599609375 l 5
 811.997070312 558.599609375 l 6
 854.305664062 558.599609375 884.995117188 541.86328125 884.995117188 492.599609375 c 6
 884.995117188 50 l 6
 884.995117188 19.6376953125 871.393554688 0 837.997070312 0 c 6
 701.799804688 0 l 6
 675.799804688 0 659.465820312 12.3330078125 652.799804688 37 c 5
 649.625976562 16.3779296875 629.069335938 0 605.799804688 0 c 6
 468.997070312 0 l 6
 437.606445312 0 421.997070312 15.017578125 421.997070312 48 c 6
 421.997070312 327.390625 l 6
 421.997070312 365.9453125 440.017578125 392.390625 480.997070312 392.390625 c 6
 598.1953125 392.390625 l 5
 598.196289062 284.790039062 l 29
631.177734375 628 m 5
 715.38671875 628 l 5
 715.38671875 590.188476562 l 6
 715.38671875 563.010742188 703.895507812 553.188476562 684.38671875 553.188476562 c 6
 512.38671875 553.188476562 l 6
 485.916992188 553.188476562 472.38671875 567.083984375 472.38671875 599.188476562 c 6
 472.38671875 669 l 6
 472.38671875 697.736328125 489.635742188 717 526.38671875 717 c 6
 811.38671875 717 l 6
 844.83203125 717 862.38671875 700.1640625 862.38671875 661 c 6
 862.38671875 575.198242188 l 5
 749.38671875 575.198242188 l 5
 749.38671875 630 l 6
 749.38671875 645.321289062 744.053710938 653 733.38671875 653 c 6
 600.38671875 653 l 6
 589.719726562 653 584.38671875 648.666992188 584.38671875 640 c 6
 584.38671875 612 l 6
 584.38671875 603.333007812 588.106445312 599 596.38671875 599 c 6
 618.38671875 599 l 6
 629.651367188 599 631.177734375 604.333007812 631.177734375 615 c 6
 631.177734375 628 l 5
275.400390625 243 m 6
 275.400390625 255.665039062 270.400390625 262 260.400390625 262 c 6
 145 262 l 5
 115.399414062 236 l 5
 143.79296875 236 l 5
 143.99609375 222 l 21
 138.510742188 218.223632812 131.99609375 204.954101562 131.99609375 180.802734375 c 6
 131.99609375 127 l 6
 131.99609375 109.666015625 134.65625 107 145.99609375 107 c 6
 154.397460938 107 l 6
 167.482421875 107 169.397460938 112.666992188 169.397460938 124.000976562 c 6
 169.397460938 188 l 5
 237.397460938 188 l 5
 237.397460938 126 l 6
 237.397460938 111.333007812 240.106445312 107 251.397460938 107 c 6
 262.400390625 107 l 6
 272.60546875 107 275.400390625 111.802734375 275.400390625 129.801757812 c 6
 275.400390625 243 l 6
598.999023438 391.606445312 m 5
 433 350 l 6
 343 382.198242188 l 6
 331.381835938 386.587890625 315.375 391.201171875 309 391.201171875 c 4
 296.885742188 391.201171875 292.494175967 390.784139108 276.198242188 376.591796875 c 6
 251.407226562 355.000976562 l 5
 331.400390625 355.000976562 l 6
 363.212890625 355.000976562 384.400390625 337.696289062 384.400390625 298.000976562 c 6
 384.400390625 51.0009765625 l 6
 384.400390625 14.955078125 361.044921875 0.0009765625 331.400390625 0.0009765625 c 6
 241.397460938 0.0009765625 l 6
 222.4375 0.0009765625 209.064453125 9.66796875 204.397460938 29.001953125 c 5
 199.73046875 9.66796875 183.08984375 0.0009765625 165.397460938 0.0009765625 c 6
 65.99609375 0.0009765625 l 6
 34.1328125 0.0009765625 22 19.8173828125 22 50.001953125 c 6
 22 140.201171875 l 6
 22 180.99609375 34.2734375 195.265625 48 203.001953125 c 5
 11.9970703125 203.001953125 l 5
 11.9970703125 276.397460938 l 5
 11.9970703125 276.397460938 87.408203125 342.000976562 130.608398438 380.401367188 c 5
 130.608398438 381.999023438 l 6
 130.608398438 391.228515625 119.918945312 393.971679688 107.01171875 394.001953125 c 6
 22 394.201171875 l 5
 22 497.201171875 l 5
 185.409179688 497.000976562 l 6
 217.091796875 496.962890625 221.004882812 469.791015625 221.004882812 461.598632812 c 6
 221.004882812 459.3984375 l 5
 243.599609375 475.202148438 l 6
 267.182617188 490.3828125 280.127929688 491.401367188 301 491.401367188 c 4
 308.069335938 491.401367188 335.533144883 486.575171787 351 481 c 6
 598.999023438 391.606445312 l 5
EndSplineSet
EndChar

StartChar: si_JnyRI
Encoding: 192 -1 155
GlifName: si_J_nyR_I_
Width: 999
VWidth: 1000
GlyphClass: 2
Flags: HMW
LayerCount: 2
Back
Fore
SplineSet
561.181640625 511 m 5
 561.181640625 595.802734375 l 6
 561.181640625 625.796875 578.09765625 640 605.181640625 640 c 6
 922 640 l 6
 947.333007812 640 963 628.565429688 963 597 c 6
 963 511 l 5
 838.995117188 511 l 5
 838.995117188 528 l 6
 838.995117188 540.877929688 838.279296875 546.000976562 825.399414062 546.000976562 c 6
 698.181640625 546.000976562 l 6
 686.848632812 546.000976562 685.186523438 540.000976562 685.186523438 528.000976562 c 6
 685.186523438 511 l 5
 561.181640625 511 l 5
588.000976562 394.00390625 m 29
 540.389648438 394.00390625 l 6
 527.056640625 394.00390625 519.056640625 388.336914062 516.389648438 377.00390625 c 6
 498.186523438 288 l 5
 500.936523438 287.927734375 l 6
 515.76953125 287.538085938 523.186523438 276.895507812 523.186523438 256 c 6
 523.186523438 60 l 6
 523.186523438 12.607421875 503.786132812 0 456.186523438 0 c 6
 238.000976562 0 l 6
 201.362304688 0 190.000976562 14.0517578125 190.000976562 51 c 6
 190.000976562 440.999023438 l 6
 190.000976562 478.33203125 208.333984375 496.999023438 245.000976562 496.999023438 c 6
 364.782226562 496.999023438 l 5
 364.782226562 394 l 5
 337.000976562 393.998046875 l 6
 316.818359375 393.997070312 314.000976562 389.12890625 314.000976562 368.998046875 c 6
 314.000976562 128 l 6
 314.000976562 114 319.66796875 107 331.000976562 107 c 6
 382.186523438 107 l 6
 401.895507812 107 402.186523438 111.540039062 402.186523438 132 c 6
 402.186523438 196 l 6
 402.186523438 209.333007812 397.186523438 216 387.186523438 216 c 6
 373.186523438 216 l 5
 411.186523438 446 l 6
 417.186523438 480 441.186523438 497 483.186523438 497 c 6
 588 497 l 29
 588.000976562 394.00390625 l 29
158.998046875 398.000976562 m 6
 146.59765625 398.000976562 140.000976562 392 140.000976562 374 c 6
 140.000976562 0 l 5
 22 0 l 5
 22 406 l 6
 22 459.608800016 56.2470703125 497 108.400390625 497 c 6
 255.001953125 496.999023438 l 5
 202.000976562 398 l 5
 158.998046875 398.000976562 l 6
EndSplineSet
Refer: 54 -1 S 1 0 0 1 539 0 2
EndChar

StartChar: si_JnyRIi
Encoding: 193 -1 156
GlifName: si_J_nyR_I_i
Width: 999
VWidth: 1000
GlyphClass: 2
Flags: HMW
LayerCount: 2
Back
Fore
SplineSet
832.41796875 582.198242188 m 6
 822.41796875 582.198242188 817.41796875 578.198242188 817.41796875 570.198242188 c 6
 817.41796875 562.010742188 l 6
 817.41796875 553.34375 822.750976562 549.010742188 833.41796875 549.010742188 c 6
 855.19921875 549.010742188 l 6
 865.866210938 549.010742188 871.19921875 553.677734375 871.19921875 563.010742188 c 6
 871.19921875 570.198242188 l 6
 871.19921875 578.198242188 865.532226562 582.198242188 854.19921875 582.198242188 c 6
 832.41796875 582.198242188 l 6
700.19140625 553.80859375 m 6
 689.201171875 553.807617188 687.196289062 547.80859375 687.196289062 535.80859375 c 6
 687.196289062 511 l 5
 563.19140625 511 l 5
 563.19140625 595.802734375 l 6
 563.19140625 625.796875 579.411132812 640.010742188 606.401367188 640.010742188 c 6
 921.200195312 640.01171875 l 6
 948.6796875 640.01171875 963.19921875 626.66015625 963.19921875 600 c 6
 963.19921875 540.99609375 l 6
 963.19921875 521 953.197265625 510.99609375 933.19921875 510.99609375 c 6
 752.41796875 510.994140625 l 6
 729.142578125 510.994140625 724.41796875 520.250976562 724.41796875 531.99609375 c 6
 724.41796875 545.80078125 l 6
 724.41796875 550.33203125 725.235351562 552.809570312 726.817382812 553.80078125 c 5
 700.19140625 553.80859375 l 6
588.000976562 394.00390625 m 25
 540.389648438 394.00390625 l 2
 527.056640625 394.00390625 519.056640625 388.336914062 516.389648438 377.00390625 c 2
 498.186523438 288 l 1
 500.936523438 287.927734375 l 2
 515.76953125 287.538085938 523.186523438 276.895507812 523.186523438 256 c 2
 523.186523438 60 l 2
 523.186523438 12.607421875 503.786132812 0 456.186523438 0 c 2
 238.000976562 0 l 2
 201.362304688 0 190.000976562 14.0517578125 190.000976562 51 c 2
 190.000976562 440.999023438 l 2
 190.000976562 478.33203125 208.333984375 496.999023438 245.000976562 496.999023438 c 2
 364.782226562 496.999023438 l 1
 364.782226562 394 l 1
 337.000976562 393.998046875 l 2
 316.818359375 393.997070312 314.000976562 389.12890625 314.000976562 368.998046875 c 2
 314.000976562 128 l 2
 314.000976562 114 319.66796875 107 331.000976562 107 c 2
 382.186523438 107 l 2
 401.895507812 107 402.186523438 111.540039062 402.186523438 132 c 2
 402.186523438 196 l 2
 402.186523438 209.333007812 397.186523438 216 387.186523438 216 c 2
 373.186523438 216 l 1
 411.186523438 446 l 2
 417.186523438 480 441.186523438 497 483.186523438 497 c 2
 588 497 l 25
 588.000976562 394.00390625 l 25
158.998046875 398.000976562 m 2
 146.59765625 398.000976562 140.000976562 392 140.000976562 374 c 2
 140.000976562 0 l 1
 22 0 l 1
 22 406 l 2
 22 459.608800016 56.2470703125 497 108.400390625 497 c 2
 255.001953125 496.999023438 l 1
 202.000976562 398 l 1
 158.998046875 398.000976562 l 2
EndSplineSet
Refer: 54 -1 N 1 0 0 1 539 0 2
EndChar

StartChar: si_JnyRa
Encoding: 191 -1 157
GlifName: si_J_nyR_a
Width: 999
VWidth: 1000
GlyphClass: 2
Flags: HMW
LayerCount: 2
Back
Fore
SplineSet
588.000976562 394.00390625 m 29
 540.389648438 394.00390625 l 6
 527.056640625 394.00390625 519.056640625 388.336914062 516.389648438 377.00390625 c 6
 498.186523438 288 l 5
 500.936523438 287.927734375 l 6
 515.76953125 287.538085938 523.186523438 276.895507812 523.186523438 256 c 6
 523.186523438 60 l 6
 523.186523438 12.607421875 503.786132812 0 456.186523438 0 c 6
 238.000976562 0 l 6
 201.362304688 0 190.000976562 14.0517578125 190.000976562 51 c 6
 190.000976562 440.999023438 l 6
 190.000976562 478.33203125 208.333984375 496.999023438 245.000976562 496.999023438 c 6
 364.782226562 496.999023438 l 5
 364.782226562 394 l 5
 337.000976562 393.998046875 l 6
 316.818359375 393.997070312 314.000976562 389.12890625 314.000976562 368.998046875 c 6
 314.000976562 128 l 6
 314.000976562 114 319.66796875 107 331.000976562 107 c 6
 382.186523438 107 l 6
 401.895507812 107 402.186523438 111.540039062 402.186523438 132 c 6
 402.186523438 196 l 6
 402.186523438 209.333007812 397.186523438 216 387.186523438 216 c 6
 373.186523438 216 l 5
 411.186523438 446 l 6
 417.186523438 480 441.186523438 497 483.186523438 497 c 6
 588 497 l 29
 588.000976562 394.00390625 l 29
158.998046875 398.000976562 m 6
 146.59765625 398.000976562 140.000976562 392 140.000976562 374 c 6
 140.000976562 0 l 5
 22 0 l 5
 22 406 l 6
 22 459.608800016 56.2470703125 497 108.400390625 497 c 6
 255.001953125 496.999023438 l 5
 202.000976562 398 l 5
 158.998046875 398.000976562 l 6
EndSplineSet
Refer: 54 -1 S 1 0 0 1 539 0 2
EndChar

StartChar: si_JnyU
Encoding: 189 -1 158
GlifName: si_J_nyU_
Width: 998
VWidth: 1000
GlyphClass: 2
Flags: HMW
LayerCount: 2
Back
Fore
SplineSet
588.000976562 394.00390625 m 29
 540.389648438 394.00390625 l 6
 527.056640625 394.00390625 519.056640625 388.336914062 516.389648438 377.00390625 c 6
 498.186523438 288 l 5
 500.936523438 287.927734375 l 6
 515.76953125 287.538085938 523.186523438 276.895507812 523.186523438 256 c 6
 523.186523438 60 l 6
 523.186523438 12.607421875 503.786132812 0 456.186523438 0 c 6
 238.000976562 0 l 6
 201.362304688 0 190.000976562 14.0517578125 190.000976562 51 c 6
 190.000976562 440.999023438 l 6
 190.000976562 478.33203125 208.333984375 496.999023438 245.000976562 496.999023438 c 6
 364.782226562 496.999023438 l 5
 364.782226562 394 l 5
 337.000976562 393.998046875 l 6
 316.818359375 393.997070312 314.000976562 389.12890625 314.000976562 368.998046875 c 6
 314.000976562 128 l 6
 314.000976562 114 319.66796875 107 331.000976562 107 c 6
 382.186523438 107 l 6
 401.895507812 107 402.186523438 111.540039062 402.186523438 132 c 6
 402.186523438 196 l 6
 402.186523438 209.333007812 397.186523438 216 387.186523438 216 c 6
 373.186523438 216 l 5
 411.186523438 446 l 6
 417.186523438 480 441.186523438 497 483.186523438 497 c 6
 588 497 l 29
 588.000976562 394.00390625 l 29
158.998046875 398.000976562 m 6
 146.59765625 398.000976562 140.000976562 392 140.000976562 374 c 6
 140.000976562 0 l 5
 22 0 l 5
 22 406 l 6
 22 459.608800016 56.2470703125 497 108.400390625 497 c 6
 255.001953125 496.999023438 l 5
 202.000976562 398 l 5
 158.998046875 398.000976562 l 6
EndSplineSet
Refer: 55 -1 S 1 0 0 1 539 0 2
EndChar

StartChar: si_JnyUu
Encoding: 190 -1 159
GlifName: si_J_nyU_u
Width: 998
VWidth: 1000
GlyphClass: 2
Flags: HMW
LayerCount: 2
Back
Fore
SplineSet
588.000976562 394.00390625 m 25
 540.389648438 394.00390625 l 2
 527.056640625 394.00390625 519.056640625 388.336914062 516.389648438 377.00390625 c 2
 498.186523438 288 l 1
 500.936523438 287.927734375 l 2
 515.76953125 287.538085938 523.186523438 276.895507812 523.186523438 256 c 2
 523.186523438 60 l 2
 523.186523438 12.607421875 503.786132812 0 456.186523438 0 c 2
 238.000976562 0 l 2
 201.362304688 0 190.000976562 14.0517578125 190.000976562 51 c 2
 190.000976562 440.999023438 l 2
 190.000976562 478.33203125 208.333984375 496.999023438 245.000976562 496.999023438 c 2
 364.782226562 496.999023438 l 1
 364.782226562 394 l 1
 337.000976562 393.998046875 l 2
 316.818359375 393.997070312 314.000976562 389.12890625 314.000976562 368.998046875 c 2
 314.000976562 128 l 2
 314.000976562 114 319.66796875 107 331.000976562 107 c 2
 382.186523438 107 l 2
 401.895507812 107 402.186523438 111.540039062 402.186523438 132 c 2
 402.186523438 196 l 2
 402.186523438 209.333007812 397.186523438 216 387.186523438 216 c 2
 373.186523438 216 l 1
 411.186523438 446 l 2
 417.186523438 480 441.186523438 497 483.186523438 497 c 2
 588 497 l 25
 588.000976562 394.00390625 l 25
158.998046875 398.000976562 m 2
 146.59765625 398.000976562 140.000976562 392 140.000976562 374 c 2
 140.000976562 0 l 1
 22 0 l 1
 22 406 l 2
 22 459.608800016 56.2470703125 497 108.400390625 497 c 2
 255.001953125 496.999023438 l 1
 202.000976562 398 l 1
 158.998046875 398.000976562 l 2
EndSplineSet
Refer: 56 -1 N 1 0 0 1 539 0 2
EndChar

StartChar: si_K.halant
Encoding: 90 -1 160
GlifName: si_K_.halant
Width: 2
VWidth: 0
GlyphClass: 2
Flags: HMW
LayerCount: 2
Back
Fore
SplineSet
-600.619140625 -15.8076171875 m 5
 -600.619140625 -100.610351562 l 6
 -600.619140625 -130.604492188 -583.703125 -144.807617188 -556.619140625 -144.807617188 c 6
 -104.598632812 -144.807617188 l 6
 -79.265625 -144.807617188 -63.5986328125 -133.373046875 -63.5986328125 -101.807617188 c 6
 -63.5986328125 -15.8076171875 l 5
 -187.603515625 -15.8076171875 l 5
 -187.603515625 -32.8076171875 l 6
 -187.603515625 -45.685546875 -188.319335938 -50.80859375 -201.19921875 -50.80859375 c 6
 -463.619140625 -50.80859375 l 6
 -474.952148438 -50.80859375 -476.614257812 -44.80859375 -476.614257812 -32.80859375 c 6
 -476.614257812 -15.8076171875 l 5
 -600.619140625 -15.8076171875 l 5
EndSplineSet
EndChar

StartChar: si_KVI
Encoding: 446 -1 176
GlifName: si_K_V_I_
Width: 1061
VWidth: 0
GlyphClass: 2
Flags: HMW
LayerCount: 2
Back
Fore
SplineSet
21 22 m 257
 28.6963 91.2695 74.4521 184.165 109 232 c 256
 135 268 148 280 171 304 c 257
 180 314 191.25 331 191.25 352 c 256
 191.25 371 182 386 158 386 c 256
 144 386 128.438 378.533 124 363 c 256
 118 342 122 342 113 323 c 256
 104.732 305.546 87 297 72 297 c 256
 35 297 29 328 29 340 c 256
 29 394.099 79.3633 433 136 433 c 256
 188.348 433 220 399 220 358 c 256
 220 352 220 349 219 341 c 257
 255.113 366.766 302.488 392.006 367 411 c 256
 433.129 432.139 507.859 436 551.25 436 c 256
 620.209 436 655.331 429.207 673 425 c 257
 667.583 424.159 606.053 405.082 597 404 c 257
 581.982 404.563 561.476 406 549 406 c 256
 490.313 406 439.896 397.343 411.5 391 c 256
 324.891 372.933 262.161 335.075 220.25 306.25 c 257
 248.415 312.696 277.667 314 305 314 c 256
 425 314 515 250 515 126 c 256
 515 67.8477 482 -1 397 -1 c 256
 351 -1 317.333 20.333 296 63 c 257
 278.667 21.667 246.021 -1 204 -1 c 256
 117 -1 120 73 87 73 c 256
 64.6748 73 52 51 49 11 c 257
 21 22 l 257
91 143 m 257
 103 153 115 160 129 160 c 256
 161 160 172 140 212 140 c 256
 258 140 280 157 280 214 c 256
 280 216.209 280.041 214.305 280 216 c 257
 308 216 l 257
 307.964 214.664 308 216.33 308 215 c 256
 308 154 332 140 377 140 c 256
 418 140 443 169 443 204 c 256
 443 246 402 287 301 287 c 256
 244.333 287 204.667 280 180 268 c 257
 162.667 253.333 146.522 234.996 131 212 c 256
 104 172 101 163 91 143 c 257
EndSplineSet
Refer: 396 -1 N 1 0 0 1 465 0 2
EndChar

StartChar: si_KVIi
Encoding: 447 -1 177
GlifName: si_K_V_I_i
Width: 1061
VWidth: 0
GlyphClass: 2
Flags: HMW
LayerCount: 2
Back
Fore
SplineSet
21 22 m 257
 28.6963 91.2695 74.4521 184.165 109 232 c 256
 135 268 148 280 171 304 c 257
 180 314 191.25 331 191.25 352 c 256
 191.25 371 182 386 158 386 c 256
 144 386 128.438 378.533 124 363 c 256
 118 342 122 342 113 323 c 256
 104.732 305.546 87 297 72 297 c 256
 35 297 29 328 29 340 c 256
 29 394.099 79.3633 433 136 433 c 256
 188.348 433 220 399 220 358 c 256
 220 352 220 349 219 341 c 257
 255.113 366.766 302.488 392.006 367 411 c 256
 433.129 432.139 507.859 436 551.25 436 c 256
 620.209 436 655.331 429.207 673 425 c 257
 667.583 424.159 606.053 405.082 597 404 c 257
 581.982 404.563 561.476 406 549 406 c 256
 490.313 406 439.896 397.343 411.5 391 c 256
 324.891 372.933 262.161 335.075 220.25 306.25 c 257
 248.415 312.696 277.667 314 305 314 c 256
 425 314 515 250 515 126 c 256
 515 67.8477 482 -1 397 -1 c 256
 351 -1 317.333 20.333 296 63 c 257
 278.667 21.667 246.021 -1 204 -1 c 256
 117 -1 120 73 87 73 c 256
 64.6748 73 52 51 49 11 c 257
 21 22 l 257
91 143 m 257
 103 153 115 160 129 160 c 256
 161 160 172 140 212 140 c 256
 258 140 280 157 280 214 c 256
 280 216.209 280.041 214.305 280 216 c 257
 308 216 l 257
 307.964 214.664 308 216.33 308 215 c 256
 308 154 332 140 377 140 c 256
 418 140 443 169 443 204 c 256
 443 246 402 287 301 287 c 256
 244.333 287 204.667 280 180 268 c 257
 162.667 253.333 146.522 234.996 131 212 c 256
 104 172 101 163 91 143 c 257
EndSplineSet
Refer: 397 -1 N 1 0 0 1 465 0 2
EndChar

StartChar: si_KVU
Encoding: 448 -1 178
GlifName: si_K_V_U_
Width: 1061
VWidth: 0
GlyphClass: 2
Flags: HMW
LayerCount: 2
Back
Fore
SplineSet
509 -142.5 m 256
 509 -90.4912 555.293 -50.5 610.5 -50.5 c 256
 652.406 -50.5 689.75 -74.1416 704.5 -110 c 257
 671.75 -121.5 l 257
 664.926 -104.358 643.5 -81.75 610.5 -81.75 c 256
 573.796 -81.75 544.5 -109.716 544.5 -142.5 c 256
 544.5 -171.663 566.248 -192.5 636 -192.5 c 258
 967.75 -192.5 l 257
 967.75 128 l 257
 1003 219 l 257
 1003 -235 l 257
 614.5 -235 l 258
 534.957 -235 509 -186.092 509 -142.5 c 256
EndSplineSet
Refer: 180 -1 N 1 0 0 1 0 0 2
EndChar

StartChar: si_KVUu
Encoding: 449 -1 179
GlifName: si_K_V_U_u
Width: 1061
VWidth: 0
GlyphClass: 2
Flags: HMW
LayerCount: 2
Back
Fore
SplineSet
510.75 -138 m 256
 510.75 -80 559.75 -40 612.75 -40 c 256
 654.75 -40 687.083 -55 709.75 -91 c 257
 676.75 -102 l 257
 665.434 -84.6992 646.75 -70 617.75 -70 c 256
 578.75 -70 553.75 -95.0762 553.75 -120 c 256
 553.75 -151.995 582.565 -167 616.75 -167 c 256
 692.965 -167 749.201 -114.5 849.25 -114.5 c 256
 895.835 -114.5 940.75 -133.75 967.75 -165.75 c 257
 967.75 152 l 257
 1002.75 212 l 257
 1002.75 -231 l 257
 977.25 -231 l 257
 962.25 -195 922.199 -146.25 859.25 -146.25 c 256
 768.25 -146.25 719.75 -237 621.75 -237 c 256
 566.75 -237 510.75 -206 510.75 -138 c 256
EndSplineSet
Refer: 180 -1 N 1 0 0 1 0 0 2
EndChar

StartChar: si_KVa
Encoding: 430 -1 180
GlifName: si_K_V_a
Width: 912
VWidth: 1000
GlyphClass: 2
Flags: HMW
LayerCount: 2
Back
Fore
SplineSet
882.404296875 415 m 1
 882.404296875 54 l 2
 882.404296875 16.2705078125 869.479492188 0 832.404296875 0 c 2
 469.404296875 0 l 2
 432.33203125 0 419.404296875 16.2734375 419.404296875 54 c 2
 419.404296875 275.610351562 l 2
 419.404296875 312.27734375 438.071289062 330.610351562 475.404296875 330.610351562 c 2
 541.404296875 330.610351562 l 1
 541.404296875 353 l 2
 541.404296875 362.333007812 536.071289062 367 525.404296875 367 c 2
 456 367 l 1
 456 470 l 1
 602.404296875 470 l 2
 644.109375 470 665.403320312 448.41015625 665.403320312 412 c 2
 665.403320312 236.610351562 l 1
 564.404296875 236.610351562 l 2
 550.404296875 236.610351562 543.404296875 230.27734375 543.404296875 217.610351562 c 2
 543.404296875 129 l 2
 543.404296875 114.333007812 549.404296875 107 561.404296875 107 c 2
 740.404296875 107 l 2
 752.404296875 107 758.404296875 114.333007812 758.404296875 129 c 2
 758.404296875 415 l 1
 882.404296875 415 l 1
813.404296875 625 m 2
 868.404296875 625 882.404296875 600.686523438 882.404296875 544 c 2
 882.404296875 400 l 1
 758.404296875 400 l 1
 758.404296875 494.6015625 l 2
 758.404296875 512.950195312 751.465820312 517.6015625 732.404296875 517.6015625 c 2
 419.404296875 517.6015625 l 1
 419.404296875 625 l 1
 813.404296875 625 l 2
275.400390625 243 m 2
 275.400390625 255.665039062 270.400390625 262 260.400390625 262 c 2
 145 262 l 1
 115.399414062 236 l 1
 143.79296875 236 l 1
 143.99609375 222 l 17
 138.510742188 218.223632812 131.99609375 204.954101562 131.99609375 180.802734375 c 2
 131.99609375 127 l 2
 131.99609375 109.666015625 134.65625 107 145.99609375 107 c 2
 154.397460938 107 l 2
 167.482421875 107 169.397460938 112.666992188 169.397460938 124.000976562 c 2
 169.397460938 188 l 1
 237.397460938 188 l 1
 237.397460938 126 l 2
 237.397460938 111.333007812 240.106445312 107 251.397460938 107 c 2
 262.400390625 107 l 2
 272.60546875 107 275.400390625 111.802734375 275.400390625 129.801757812 c 2
 275.400390625 243 l 2
468 470 m 1
 455.99609375 367 l 2
 365 384.598632812 l 2
 341.575386617 388.938013546 325.002929688 390.999023438 315.99609375 390.999023438 c 0
 304.5 390.999023438 288.94487366 387.693005227 276.198242188 376.591796875 c 2
 251.407226562 355.000976562 l 1
 331.400390625 355.000976562 l 2
 363.212890625 355.000976562 384.400390625 337.696289062 384.400390625 298.000976562 c 2
 384.400390625 51.0009765625 l 2
 384.400390625 14.955078125 361.044921875 0.0009765625 331.400390625 0.0009765625 c 2
 241.397460938 0.0009765625 l 2
 222.4375 0.0009765625 209.064453125 9.66796875 204.397460938 29.001953125 c 1
 199.73046875 9.66796875 183.08984375 0.0009765625 165.397460938 0.0009765625 c 2
 65.99609375 0.0009765625 l 2
 34.1328125 0.0009765625 22 19.8173828125 22 50.001953125 c 2
 22 140.201171875 l 2
 22 180.99609375 34.2734375 195.265625 48 203.001953125 c 1
 11.9970703125 203.001953125 l 1
 11.9970703125 276.397460938 l 1
 11.9970703125 276.397460938 87.408203125 342.000976562 130.608398438 380.401367188 c 1
 130.608398438 381.999023438 l 2
 130.608398438 391.228515625 119.918945312 393.971679688 107.01171875 394.001953125 c 2
 22 394.201171875 l 1
 22 497.201171875 l 1
 185.409179688 497.000976562 l 2
 217.091796875 496.962890625 221.004882812 469.791015625 221.004882812 461.598632812 c 2
 221.004882812 459.3984375 l 1
 243.599609375 475.202148438 l 2
 264.149265846 489.575450538 285.761687933 494.202148438 306.204101562 494.202148438 c 0
 315.14453125 494.202148438 337.6640625 491.408203125 371.8046875 486 c 2
 468 470 l 1
EndSplineSet
EndChar

StartChar: si_KhI
Encoding: 101 -1 183
GlifName: si_K_hI_
Width: 518
VWidth: 1000
GlyphClass: 2
Flags: HMW
LayerCount: 2
Back
Fore
SplineSet
484.995117188 417.998046875 m 25
 484.995117188 51 l 2
 484.995117188 26.0733951602 473.261288987 -4.19579778928e-15 439 0 c 2
 350 0 l 2
 316.666666667 0 294.666992188 20 288 44 c 1
 270.400390625 -5 l 1
 178.400390625 -5 l 1
 199 203 l 1
 199.000976562 307 l 2
 198.912109375 318.333007812 195 324 181 324 c 2
 166.009765625 324 l 2
 148.009765625 324 146.010742188 316.666992188 146.009765625 302 c 2
 146 123 l 2
 146 115.200195312 147.666015625 107 157 107 c 2
 168.006835938 107 l 1
 157.997070312 0 l 1
 65 0 l 2
 38.3046995551 0 22 16.7649177167 22 48 c 2
 22 371.025390625 l 2
 22 406.991210938 40.6513671875 435 81 435 c 2
 256 435 l 2
 288.526367188 435 312 417.693359375 312 380.025390625 c 2
 312 212 l 1
 305 144 l 1
 317 125.333007812 328.218799973 107 340 107 c 2
 346 107 l 2
 358.666992188 107 360.994140625 114 360.994140625 128 c 2
 360.994140625 418 l 25
 484.995117188 417.998046875 l 25
485 400 m 5
 361 400 l 5
 361 441 l 6
 361 459.349108321 354.06133753 464 335 464 c 6
 14 464 l 5
 14 550 l 5
 94 550 l 5
 64.6666666667 557.333333333 50 571.666666666 50 593 c 6
 50 632 l 6
 50 659.333333333 66.3333333333 673 99 673 c 6
 483 673 l 5
 483 589 l 5
 206 589 l 6
 188 589 179 584.333333333 179 575 c 4
 179 565.22644019 186.925753818 558 197 558 c 6
 416 558 l 6
 471.441005528 558 485 533.686193211 485 477 c 6
 485 400 l 5
EndSplineSet
EndChar

StartChar: si_KhIi
Encoding: 102 -1 184
GlifName: si_K_hI_i
Width: 518
VWidth: 1000
GlyphClass: 2
Flags: HMW
LayerCount: 2
Back
Fore
SplineSet
485 400 m 5
 361 400 l 5
 361 441 l 6
 361 459.349108322 354.06133753 464 335 464 c 6
 69 464 l 6
 37.6666666667 464 22 480 22 512 c 6
 22 612 l 6
 22 656.156313995 37.8431358697 672 82 672 c 6
 483.5 672 l 5
 483.5 589 l 5
 165 589 l 6
 152.333007812 589 146 585.666666667 146 577 c 6
 146 568 l 6
 146 561.333333333 151.666666667 558 163 558 c 6
 416 558 l 6
 472.81416846 558 485 535.085000089 485 477 c 6
 485 400 l 5
484.995117188 417.998046875 m 25
 484.995117188 51 l 2
 484.995117188 26.0733951602 473.261288987 -4.19579778928e-15 439 0 c 2
 350 0 l 2
 316.666666667 0 294.666992188 20 288 44 c 1
 270.400390625 -5 l 1
 178.400390625 -5 l 1
 199 203 l 1
 199.000976562 307 l 2
 198.912109375 318.333007812 195 324 181 324 c 2
 166.009765625 324 l 2
 148.009765625 324 146.010742188 316.666992188 146.009765625 302 c 2
 146 123 l 2
 146 115.200195312 147.666015625 107 157 107 c 2
 168.006835938 107 l 1
 157.997070312 0 l 1
 65 0 l 2
 38.3046995551 0 22 16.7649177167 22 48 c 2
 22 371.025390625 l 2
 22 406.991210938 40.6513671875 435 81 435 c 2
 256 435 l 2
 288.526367188 435 312 417.693359375 312 380.025390625 c 2
 312 212 l 1
 305 144 l 1
 317 125.333007812 328.218799973 107 340 107 c 2
 346 107 l 2
 358.666992188 107 360.994140625 114 360.994140625 128 c 2
 360.994140625 418 l 25
 484.995117188 417.998046875 l 25
EndSplineSet
EndChar

StartChar: si_KhR.halant
Encoding: 106 -1 185
GlifName: si_K_hR_.halant
Width: 516
VWidth: 0
GlyphClass: 2
Flags: HMW
LayerCount: 2
Back
Fore
SplineSet
23.400390625 -15.8076171875 m 5
 23.400390625 -114.82421875 l 6
 23.400390625 -144.818359375 40.31640625 -159.021484375 67.400390625 -159.021484375 c 6
 443 -159.021484375 l 6
 468.333007812 -159.021484375 484 -147.586914062 484 -116.021484375 c 6
 484 -15.8076171875 l 5
 359.995117188 -15.8076171875 l 5
 359.995117188 -35.009765625 l 6
 359.995117188 -47.8876953125 359.279296875 -53.0107421875 346.399414062 -53.0107421875 c 6
 160.400390625 -53.0107421875 l 6
 149.067382812 -53.0107421875 147.405273438 -47.0107421875 147.405273438 -35.0107421875 c 6
 147.405273438 -15.8076171875 l 5
 23.400390625 -15.8076171875 l 5
EndSplineSet
Refer: 438 3483 N 1 0 0 1 0 0 2
EndChar

StartChar: si_KhRI
Encoding: 107 -1 186
GlifName: si_K_hR_I_
Width: 630
VWidth: 0
GlyphClass: 2
Flags: HMW
LayerCount: 2
Back
Fore
SplineSet
23.400390625 -15.8076171875 m 5
 23.400390625 -114.82421875 l 6
 23.400390625 -144.818359375 40.31640625 -159.021484375 67.400390625 -159.021484375 c 6
 443 -159.021484375 l 6
 468.333007812 -159.021484375 484 -147.586914062 484 -116.021484375 c 6
 484 -15.8076171875 l 5
 359.995117188 -15.8076171875 l 5
 359.995117188 -35.009765625 l 6
 359.995117188 -47.8876953125 359.279296875 -53.0107421875 346.399414062 -53.0107421875 c 6
 160.400390625 -53.0107421875 l 6
 149.067382812 -53.0107421875 147.405273438 -47.0107421875 147.405273438 -35.0107421875 c 6
 147.405273438 -15.8076171875 l 5
 23.400390625 -15.8076171875 l 5
EndSplineSet
Refer: 182 -1 N 1 0 0 1 0 0 2
EndChar

StartChar: si_KhRIi
Encoding: 108 -1 187
GlifName: si_K_hR_I_i
Width: 630
VWidth: 0
GlyphClass: 2
Flags: HMW
LayerCount: 2
Back
Fore
SplineSet
23.400390625 -15.8076171875 m 5
 23.400390625 -114.82421875 l 6
 23.400390625 -144.818359375 40.31640625 -159.021484375 67.400390625 -159.021484375 c 6
 443 -159.021484375 l 6
 468.333007812 -159.021484375 484 -147.586914062 484 -116.021484375 c 6
 484 -15.8076171875 l 5
 359.995117188 -15.8076171875 l 5
 359.995117188 -35.009765625 l 6
 359.995117188 -47.8876953125 359.279296875 -53.0107421875 346.399414062 -53.0107421875 c 6
 160.400390625 -53.0107421875 l 6
 149.067382812 -53.0107421875 147.405273438 -47.0107421875 147.405273438 -35.0107421875 c 6
 147.405273438 -15.8076171875 l 5
 23.400390625 -15.8076171875 l 5
EndSplineSet
Refer: 183 -1 N 1 0 0 1 0 0 2
EndChar

StartChar: si_KhU
Encoding: 103 -1 189
GlifName: si_K_hU_
Width: 518
VWidth: 1000
GlyphClass: 2
Flags: HMW
LayerCount: 2
Back
Fore
SplineSet
361 405 m 5
 361 434 l 6
 361 452.190543645 343.682574342 464 325 464 c 6
 65 464 l 6
 35.1570560595 464 22 472.771317872 22 505 c 6
 22 618 l 6
 22 654.859629233 35.4108204097 672 72 672 c 6
 435 672 l 6
 471.587569487 672 485 654.858131656 485 618 c 6
 485 552 l 6
 485 529.837830342 468.868088824 512.773617765 450 509 c 5
 471.911245267 502.152735855 485 474.274674872 485 445 c 6
 485 405 l 5
 361 405 l 5
232 539 m 5
 224.06628565 543.65574933 221 547.826031591 221 564 c 6
 221 575 l 6
 221 581.854980469 221.141925812 584.018230438 224 587 c 5
 153 587 l 6
 141.666666667 587 136 582.333333333 136 573 c 6
 136 554 l 6
 136 544 141.333333333 539 152 539 c 6
 232 539 l 5
326 594 m 6
 317.618943977 594 313 588.387773465 313 581 c 6
 313 558 l 6
 313 547.622646757 322.201151981 543 331 543 c 6
 368 543 l 6
 379.68243658 543 388 549.518346217 388 564 c 6
 388 582 l 6
 388 591.395955218 381.684582201 594 377 594 c 6
 326 594 l 6
484.995117188 417.998046875 m 25
 484.995117188 51 l 2
 484.995117188 26.0733951602 473.261288987 -4.19579778928e-15 439 0 c 2
 350 0 l 2
 316.666666667 0 294.666992188 20 288 44 c 1
 270.400390625 -5 l 1
 178.400390625 -5 l 1
 199 203 l 1
 199.000976562 307 l 2
 198.912109375 318.333007812 195 324 181 324 c 2
 166.009765625 324 l 2
 148.009765625 324 146.010742188 316.666992188 146.009765625 302 c 2
 146 123 l 2
 146 115.200195312 147.666015625 107 157 107 c 2
 168.006835938 107 l 1
 157.997070312 0 l 1
 65 0 l 2
 38.3046995551 0 22 16.7649177167 22 48 c 2
 22 371.025390625 l 2
 22 406.991210938 40.6513671875 435 81 435 c 2
 256 435 l 2
 288.526367188 435 312 417.693359375 312 380.025390625 c 2
 312 212 l 1
 305 144 l 1
 317 125.333007812 328.218799973 107 340 107 c 2
 346 107 l 2
 358.666992188 107 360.994140625 114 360.994140625 128 c 2
 360.994140625 418 l 25
 484.995117188 417.998046875 l 25
EndSplineSet
EndChar

StartChar: si_M.halant
Encoding: 332 -1 201
GlifName: si_M_.halant
Width: 518
VWidth: 1000
GlyphClass: 2
Flags: HMW
LayerCount: 2
Back
Fore
SplineSet
485 400 m 5
 361 400 l 5
 361 441 l 6
 361 459.349108322 354.06133753 464 335 464 c 6
 14 464 l 5
 14 550 l 5
 94 550 l 5
 64.6666666667 557.333333333 50 571.666666666 50 593 c 6
 50 632 l 6
 50 659.333333333 66.3333333333 673 99 673 c 6
 483 673 l 5
 483 589 l 5
 206 589 l 6
 188 589 179 584.333333333 179 575 c 4
 179 565.226440189 186.925753819 558 197 558 c 6
 416 558 l 6
 471.441005527 558 485 533.686193211 485 477 c 6
 485 400 l 5
485 415 m 5
 485 54 l 6
 485 16.2702793286 472.075077523 0 435 0 c 6
 72 0 l 6
 34.0314662294 0 22 15.7515389988 22 54 c 6
 22 373 l 6
 22 404.537647836 42.279533299 427 74 427 c 6
 268 427 l 6
 298.562457337 427 318 408.588234602 318 378 c 6
 318 196 l 6
 318 166.666666667 303.666666667 152 275 152 c 6
 146 152 l 5
 146 129 l 6
 146 114.333333333 152 107 164 107 c 6
 343 107 l 6
 355 107 361 114.333333333 361 129 c 6
 361 415 l 5
 485 415 l 5
143 244 m 5
 186 244 l 6
 196 244 201 250.333333333 201 263 c 6
 201 315 l 6
 201 324.333333333 196 329 186 329 c 6
 161 329 l 6
 149 329 143 324.333333333 143 315 c 6
 143 244 l 5
EndSplineSet
EndChar

StartChar: si_MI
Encoding: 333 -1 202
GlifName: si_M_I_
Width: 518
VWidth: 1000
GlyphClass: 2
Flags: HMW
LayerCount: 2
Back
Fore
SplineSet
485 400 m 1
 361 400 l 1
 361 441 l 2
 361 449.666666667 359.166666667 455.666666667 355.5 459 c 128
 351.833333333 462.333333333 345 464 335 464 c 2
 69 464 l 2
 37.6666666667 464 22 480 22 512 c 2
 22 612 l 2
 22 634 26.5 649.5 35.5 658.5 c 128
 44.5 667.5 60 672 82 672 c 2
 483 672 l 1
 484 589 l 1
 165 590 l 2
 152.333333333 590 146 585.666666667 146 577 c 2
 146 568 l 2
 146 561.333333333 151.666666667 558 163 558 c 2
 416 558 l 2
 443.333333333 558 461.666666667 552 471 540 c 128
 480.333333333 528 485 507 485 477 c 2
 485 400 l 1
485 415 m 1
 485 54 l 2
 485 34.6666666667 481.166666667 20.8333333333 473.5 12.5 c 128
 465.833333333 4.16666666667 453 0 435 0 c 2
 72 0 l 2
 53.3333333333 0 40.3333333333 4.16666666667 33 12.5 c 128
 25.6666666667 20.8333333333 22 34.6666666667 22 54 c 2
 21 373 l 2
 21 388.333333333 25.8333333333 401.166666667 35.5 411.5 c 128
 45.1666666667 421.833333333 58 427 74 427 c 2
 268 427 l 2
 283.333333333 427 295.5 422.666666667 304.5 414 c 128
 313.5 405.333333333 318 393.333333333 318 378 c 2
 318 196 l 2
 318 166.666666667 303.666666667 152 275 152 c 2
 146 152 l 1
 146 129 l 2
 146 114.333333333 152 107 164 107 c 2
 343 107 l 2
 355 107 361 114.333333333 361 129 c 2
 361 415 l 1
 485 415 l 1
143 244 m 1
 186 244 l 2
 196 244 201 250.333333333 201 263 c 2
 201 315 l 2
 201 324.333333333 196 329 186 329 c 2
 161 329 l 2
 149 329 143 324.333333333 143 315 c 2
 143 244 l 1
EndSplineSet
EndChar

StartChar: si_MIi
Encoding: 334 -1 203
GlifName: si_M_I_i
Width: 518
VWidth: 1000
GlyphClass: 2
Flags: HMW
LayerCount: 2
Back
Fore
SplineSet
361 405 m 5
 361 434 l 6
 361 452.190543645 343.682574342 464 325 464 c 6
 65 464 l 6
 35.1570560595 464 22 472.771317872 22 505 c 6
 22 618 l 6
 22 654.859629233 35.4108204097 672 72 672 c 6
 435 672 l 6
 471.587569487 672 485 654.858131656 485 618 c 6
 485 552 l 6
 485 529.837830342 468.868088824 512.773617765 450 509 c 5
 471.911245267 502.152735855 485 474.274674872 485 445 c 6
 485 405 l 5
 361 405 l 5
232 539 m 5
 224.06628565 543.65574933 221 547.826031591 221 564 c 6
 221 575 l 6
 221 581.854980469 221.141925812 584.018230438 224 587 c 5
 153 587 l 6
 141.666666667 587 136 582.333333333 136 573 c 6
 136 554 l 6
 136 544 141.333333333 539 152 539 c 6
 232 539 l 5
326 594 m 6
 317.618943977 594 313 588.387773465 313 581 c 6
 313 558 l 6
 313 547.622646757 322.201151981 543 331 543 c 6
 368 543 l 6
 379.68243658 543 388 549.518346217 388 564 c 6
 388 582 l 6
 388 591.395955218 381.684582201 594 377 594 c 6
 326 594 l 6
485 415 m 1
 485 54 l 2
 485 34.6666666667 481.166666667 20.8333333333 473.5 12.5 c 128
 465.833333333 4.16666666667 453 0 435 0 c 2
 72 0 l 2
 53.3333333333 0 40.3333333333 4.16666666667 33 12.5 c 128
 25.6666666667 20.8333333333 22 34.6666666667 22 54 c 2
 21 373 l 2
 21 388.333333333 25.8333333333 401.166666667 35.5 411.5 c 128
 45.1666666667 421.833333333 58 427 74 427 c 2
 268 427 l 2
 283.333333333 427 295.5 422.666666667 304.5 414 c 128
 313.5 405.333333333 318 393.333333333 318 378 c 2
 318 196 l 2
 318 166.666666667 303.666666667 152 275 152 c 2
 146 152 l 1
 146 129 l 2
 146 114.333333333 152 107 164 107 c 2
 343 107 l 2
 355 107 361 114.333333333 361 129 c 2
 361 415 l 1
 485 415 l 1
143 244 m 1
 186 244 l 2
 196 244 201 250.333333333 201 263 c 2
 201 315 l 2
 201 324.333333333 196 329 186 329 c 2
 161 329 l 2
 149 329 143 324.333333333 143 315 c 2
 143 244 l 1
EndSplineSet
EndChar

StartChar: si_MRI
Encoding: 339 -1 204
GlifName: si_M_R_I_
Width: 518
VWidth: 1000
GlyphClass: 2
Flags: HMW
LayerCount: 2
Back
Fore
SplineSet
23.400390625 -15.8076171875 m 1
 23.400390625 -100.610351562 l 2
 23.400390625 -130.604492188 40.31640625 -144.807617188 67.400390625 -144.807617188 c 2
 443 -144.807617188 l 2
 468.333007812 -144.807617188 484 -133.373046875 484 -101.807617188 c 2
 484 -15.8076171875 l 1
 359.995117188 -15.8076171875 l 1
 359.995117188 -32.8076171875 l 2
 359.995117188 -45.685546875 359.279296875 -50.80859375 346.399414062 -50.80859375 c 2
 160.400390625 -50.80859375 l 2
 149.067382812 -50.80859375 147.405273438 -44.80859375 147.405273438 -32.80859375 c 2
 147.405273438 -15.8076171875 l 1
 23.400390625 -15.8076171875 l 1
EndSplineSet
Refer: 202 -1 N 1 0 0 1 0 0 2
EndChar

StartChar: si_MRa
Encoding: 338 -1 206
GlifName: si_M_R_a
Width: 515
VWidth: 0
GlyphClass: 2
Flags: HMW
LayerCount: 2
Back
Fore
SplineSet
55.75 -44 m 257
 85.25 -44 l 257
 122.726 -86.9578 180.417 -114.25 285.75 -114.25 c 256
 428.75 -114.25 547.5 -31.0107 547.5 63.25 c 256
 547.5 78.2842 544.077 97.0499 534 112 c 257
 550 140 l 257
 572.252 112.895 582 74.667 582 38 c 256
 582 -123.729 453.75 -219 309.75 -219 c 256
 176.75 -219 93.083 -153.333 55.75 -44 c 257
EndSplineSet
Refer: 466 3512 N 1 0 0 1 0 0 2
EndChar

StartChar: si_Ma.reph
Encoding: 337 -1 209
GlifName: si_M_a.reph
Width: 515
VWidth: 0
GlyphClass: 2
Flags: HMW
LayerCount: 2
Back
Fore
SplineSet
274.4 628 m 256
 274.4 607.854 292.628 591.547 314.5 591.547 c 256
 336.372 591.547 354.6 607.854 354.6 628 c 256
 354.6 648.146 336.372 664.453 314.5 664.453 c 256
 292.628 664.453 274.4 648.146 274.4 628 c 256
171.5 647 m 256
 171.5 711 229.62 748 311.5 748 c 256
 388.5 748 452.5 705 452.5 634 c 256
 452.5 610 444.167 588.333 427.5 569 c 257
 391.75 569 l 257
 404.92 581.387 420.5 605.734 420.5 633 c 256
 420.5 687.521 371.5 719.5 310.5 719.5 c 256
 257.722 719.5 204.25 696.99 204.25 647 c 256
 204.25 607.925 247.401 590.688 265 588.25 c 257
 257 594.25 246.5 608 246.5 629 c 256
 246.5 664 277.854 689 313.5 689 c 256
 354.5 689 382.5 662 382.5 627 c 256
 382.5 588 347.5 562 289.5 562 c 256
 230.5 562 171.5 591 171.5 647 c 256
EndSplineSet
Refer: 466 3512 N 1 0 0 1 0 0 2
EndChar

StartChar: si_MatraU.alt
Encoding: 86 -1 211
GlifName: si_M_atraU_.alt
Width: 2
VWidth: 1000
GlyphClass: 2
Flags: HMW
LayerCount: 2
Back
Fore
SplineSet
-13.0126953125 -53.1923828125 m 5
 -13.0126953125 -159.012695312 l 5
 -165.416015625 -159.012695312 l 6
 -186.749023438 -159.012695312 -197.416015625 -149.012695312 -197.416015625 -129.012695312 c 6
 -197.416015625 107 l 5
 -78.0078125 107 l 5
 -78.0078125 -34.1923828125 l 6
 -78.0078125 -47.826171875 -76.458984375 -53.1923828125 -62.0078125 -53.1923828125 c 6
 -13.0126953125 -53.1923828125 l 5
EndSplineSet
EndChar

StartChar: si_MatraUu.alt
Encoding: 87 -1 212
GlifName: si_M_atraU_u.alt
Width: 2
VWidth: 1000
GlyphClass: 2
Flags: HMW
LayerCount: 2
Back
Fore
SplineSet
-1 -109 m 5
 -1 -173 l 5
 -193 -173 l 6
 -215 -173 -226 -164 -226 -146 c 6
 -226 -124 l 6
 -226 -116 -221 -109.333333333 -211 -104 c 6
 -137 -71.0078125 l 5
 -226 -71.0078125 l 5
 -226 -36.0078125 l 5
 -155 8 l 5
 -29.400390625 8 l 5
 -106 -32.0078125 l 5
 -22 -32.0078125 l 5
 -22 -65.0078125 l 5
 -125 -109 l 5
 -1 -109 l 5
EndSplineSet
EndChar

StartChar: si_MbU
Encoding: 344 -1 216
GlifName: si_M_bU_
Width: 515
VWidth: 0
GlyphClass: 2
Flags: HMW
LayerCount: 2
Back
Fore
SplineSet
51.5 -142.5 m 256
 51.5 -90.4912 97.793 -50.5 153 -50.5 c 256
 194.906 -50.5 232.25 -74.1416 247 -110 c 257
 214.25 -121.5 l 257
 207.426 -104.358 186 -81.75 153 -81.75 c 256
 116.296 -81.75 87 -109.716 87 -142.5 c 256
 87 -171.663 108.748 -192.5 178.5 -192.5 c 258
 539.75 -192.5 l 257
 539.75 128 l 257
 575 219 l 257
 575 -235 l 257
 157 -235 l 258
 77.457 -235 51.5 -186.092 51.5 -142.5 c 256
EndSplineSet
Refer: 467 3513 N 1 0 0 1 0 0 2
EndChar

StartChar: si_MbUu
Encoding: 345 -1 217
GlifName: si_M_bU_u
Width: 515
VWidth: 0
GlyphClass: 2
Flags: HMW
LayerCount: 2
Back
Fore
SplineSet
51 -138 m 256
 51 -80 100 -40 153 -40 c 256
 195 -40 227.333 -55 250 -91 c 257
 217 -102 l 257
 205.684 -84.6992 187 -70 158 -70 c 256
 119 -70 94 -95.0762 94 -120 c 256
 94 -151.995 122.815 -167 157 -167 c 256
 233.215 -167 308.327 -114.5 416 -114.5 c 256
 467.082 -114.5 513 -133.75 540 -165.75 c 257
 540 152 l 257
 575 212 l 257
 575 -231 l 257
 549.5 -231 l 257
 534.5 -195 488.949 -146.25 426 -146.25 c 256
 335 -146.25 260 -237 162 -237 c 256
 107 -237 51 -206 51 -138 c 256
EndSplineSet
Refer: 467 3513 N 1 0 0 1 0 0 2
EndChar

StartChar: si_N.halant
Encoding: 283 -1 218
GlifName: si_N_.halant
Width: 591
VWidth: 0
GlyphClass: 2
Flags: HMW
LayerCount: 2
Back
Fore
SplineSet
605.5 348 m 257
 605.5 681 l 257
 659.5 639 757 634 757 542 c 256
 757 498 722.191 468 679 468 c 256
 664.333 468 649.333 471.333 634 478 c 257
 634 331 l 257
 605.5 348 l 257
634.105 504.273 m 257
 642.6 499.699 653.382 497.413 666.448 497.413 c 256
 698.454 497.413 712 521.915 712 545.438 c 256
 712 586.602 680.17 606.203 634.105 636.587 c 257
 634.105 504.273 l 257
EndSplineSet
Refer: 460 3505 N 1 0 0 1 0 0 2
EndChar

StartChar: si_ND.halant
Encoding: 455 -1 219
GlifName: si_N_D_.halant
Width: 894
VWidth: 0
GlyphClass: 2
Flags: HMW
LayerCount: 2
Back
Fore
SplineSet
701.5 423 m 257
 701.5 681 l 257
 755.5 639 853 634 853 542 c 256
 853 498 818.191 468 775 468 c 256
 760.333 468 745.333 471.333 730 478 c 257
 730 410 l 257
 701.5 423 l 257
730.105 504.273 m 257
 738.6 499.699 749.382 497.413 762.448 497.413 c 256
 794.454 497.413 808 521.915 808 545.438 c 256
 808 586.602 776.17 606.203 730.105 636.587 c 257
 730.105 504.273 l 257
EndSplineSet
Refer: 230 -1 N 1 0 0 1 0 0 2
EndChar

StartChar: si_NDI
Encoding: 459 -1 223
GlifName: si_N_D_I_
Width: 894
VWidth: 0
GlyphClass: 2
Flags: HMW
LayerCount: 2
Back
Fore
SplineSet
473.58 519.75 m 256
 473.58 620.314 564.803 671 661.5 671 c 256
 758.197 671 849.42 617.064 849.42 518 c 256
 849.42 443.457 786.084 406.19 733.59 405 c 257
 717.84 426.75 l 257
 771.926 426.755 795.5 460.608 795.5 486.25 c 256
 795.5 535.901 737.016 552 665 552 c 256
 592.984 552 522 535.744 522 490 c 256
 522 467.944 540.305 439.57 587 436 c 257
 530 431.5 l 257
 521.369 431.668 473.58 457.276 473.58 519.75 c 256
EndSplineSet
Refer: 230 -1 N 1 0 0 1 0 0 2
EndChar

StartChar: si_NDIi
Encoding: 460 -1 224
GlifName: si_N_D_I_i
Width: 894
VWidth: 0
GlyphClass: 2
Flags: HMW
LayerCount: 2
Back
Fore
SplineSet
687.864 514 m 256
 687.864 484.228 716.676 460.218 751.25 460.218 c 256
 785.824 460.218 814.636 484.228 814.636 514 c 256
 814.636 543.772 785.824 567.782 751.25 567.782 c 256
 716.676 567.782 687.864 543.772 687.864 514 c 256
473.58 518 m 256
 473.58 618.564 564.803 671 661.5 671 c 256
 758.197 671 849.42 614.322 849.42 522.75 c 256
 849.42 463.267 801.964 429 750.75 429 c 256
 691.075 429 653.25 470 653.25 515 c 256
 653.25 533.158 660.104 560.177 684 576 c 257
 676.504 577.494 664.609 578 651 578 c 256
 578.984 578 516 551.117 516 498 c 256
 516 467.445 542.843 436 596 436 c 257
 529 431.5 l 257
 520.676 433.108 473.58 454.766 473.58 518 c 256
EndSplineSet
Refer: 230 -1 N 1 0 0 1 0 0 2
EndChar

StartChar: si_NDa
Encoding: 432 -1 230
GlifName: si_N_D_a
Width: 894
VWidth: 0
GlyphClass: 2
Flags: HMW
LayerCount: 2
Back
Fore
SplineSet
24 176 m 257
 32 167 50 160.128 67 160.128 c 256
 130 160.128 131 206 208 279 c 257
 221 292 222.818 309.123 222.818 322 c 256
 222.818 356 204 379.552 180.462 379.552 c 256
 160 379.552 146 370 143.747 345 c 256
 141.767 323.02 131 294 99 294 c 256
 82 294 55.1415 304 55.1415 339 c 256
 55.1415 384.003 89.0174 431 154 431 c 256
 219.025 431 253 385.368 253 333.5 c 256
 253 325.698 252.004 319.252 251 315 c 257
 307.983 369.402 401.404 436.25 591.25 436.25 c 256
 616.139 436.25 675.465 435.937 710 429.25 c 257
 606 406.5 l 257
 596.779 406.635 594.533 407 585 407 c 256
 428.309 407 342.52 359.803 272.25 298.5 c 257
 298.067 307.036 317.103 308.102 345.044 308.102 c 256
 428.955 308.102 498.168 248.944 498.168 168.853 c 256
 498.168 52.8253 398.035 -1.12219 276.065 -1.12219 c 256
 136 -1.12219 24 65 24 176 c 257
125 147 m 257
 153.727 138.228 190.043 133 248 133 c 256
 360 133 418 177 418 225 c 256
 418 259 390 281 334 281 c 256
 190 281 189 190 125 147 c 257
EndSplineSet
Refer: 458 3503 N 1 0 0 1 439 0 2
EndChar

StartChar: si_NDhU
Encoding: 453 -1 233
GlifName: si_N_D_hU_
Width: 1078
VWidth: 0
GlyphClass: 2
Flags: HMW
LayerCount: 2
Back
Fore
SplineSet
492.5 -142.5 m 256
 492.5 -90.4912 538.793 -50.5 594 -50.5 c 256
 635.906 -50.5 673.25 -74.1416 688 -110 c 257
 655.25 -121.5 l 257
 648.426 -104.358 627 -81.75 594 -81.75 c 256
 557.296 -81.75 528 -109.716 528 -142.5 c 256
 528 -171.663 549.748 -192.5 619.5 -192.5 c 258
 980.75 -192.5 l 257
 980.75 128 l 257
 1016 219 l 257
 1016 -235 l 257
 598 -235 l 258
 518.457 -235 492.5 -186.092 492.5 -142.5 c 256
EndSplineSet
Refer: 235 -1 N 1 0 0 1 0 0 2
EndChar

StartChar: si_NDhUu
Encoding: 454 -1 234
GlifName: si_N_D_hU_u
Width: 1078
VWidth: 0
GlyphClass: 2
Flags: HMW
LayerCount: 2
Back
Fore
SplineSet
492 -138 m 256
 492 -80 541 -40 594 -40 c 256
 636 -40 668.333 -55 691 -91 c 257
 658 -102 l 257
 646.684 -84.6992 628 -70 599 -70 c 256
 560 -70 535 -95.0762 535 -120 c 256
 535 -151.995 563.815 -167 598 -167 c 256
 674.215 -167 749.327 -114.5 857 -114.5 c 256
 908.082 -114.5 954 -133.75 981 -165.75 c 257
 981 152 l 257
 1016 212 l 257
 1016 -231 l 257
 990.5 -231 l 257
 975.5 -195 929.949 -146.25 867 -146.25 c 256
 776 -146.25 701 -237 603 -237 c 256
 548 -237 492 -206 492 -138 c 256
EndSplineSet
Refer: 235 -1 N 1 0 0 1 0 0 2
EndChar

StartChar: si_NDha
Encoding: 431 -1 235
GlifName: si_N_D_ha
Width: 1078
VWidth: 0
GlyphClass: 2
Flags: HMW
LayerCount: 2
Back
Fore
SplineSet
24 176 m 257
 32 167 50 160.128 67 160.128 c 256
 130 160.128 131 206 208 279 c 257
 221 292 222.818 309.123 222.818 322 c 256
 222.818 356 204 379.552 180.462 379.552 c 256
 160 379.552 146 370 143.747 345 c 256
 141.767 323.02 131 294 99 294 c 256
 82 294 55.1415 304 55.1415 339 c 256
 55.1415 384.003 89.0174 431 154 431 c 256
 219.025 431 253 385.86 253 331 c 256
 253 325.206 251.926 317.792 251 315 c 257
 302 375 400.636 432.778 506 432.778 c 256
 594.577 432.778 641.648 406.271 662.25 397.75 c 257
 605.5 390.25 l 257
 588.209 396.053 558.901 405 501 405 c 256
 400.868 405 314.729 343.107 270.75 297.75 c 257
 296.261 306.461 317.103 308.102 345.044 308.102 c 256
 428.955 308.102 498.168 248.944 498.168 168.853 c 256
 498.168 52.8253 398.035 -1.12219 276.065 -1.12219 c 256
 136 -1.12219 24 65 24 176 c 257
125 147 m 257
 153.727 138.228 190.043 133 248 133 c 256
 360 133 418 177 418 225 c 256
 418 259 390 281 334 281 c 256
 190 281 189 190 125 147 c 257
EndSplineSet
Refer: 459 3504 N 1 0 0 1 441 0 2
EndChar

StartChar: si_NI
Encoding: 284 -1 237
GlifName: si_N_I_
Width: 591
VWidth: 0
GlyphClass: 2
Flags: HMW
LayerCount: 2
Back
Fore
SplineSet
268.75 421 m 256
 268.75 590 380.75 671 523.75 671 c 256
 653.75 671 738.75 610 738.75 505 c 256
 738.75 444 708.75 402 660.75 383 c 257
 629.5 403.5 l 257
 663.595 407.907 683.75 426.338 683.75 456 c 256
 683.75 514.546 605.75 549.75 523.75 549.75 c 256
 386.75 549.75 298.75 477.591 298.75 391 c 256
 298.75 381.7 300.407 365.607 303 356 c 257
 278 338 l 257
 273.903 355.752 268.75 389.837 268.75 421 c 256
EndSplineSet
Refer: 460 3505 N 1 0 0 1 0 0 2
EndChar

StartChar: si_NIi
Encoding: 285 -1 238
GlifName: si_N_I_i
Width: 591
VWidth: 0
GlyphClass: 2
Flags: HMW
LayerCount: 2
Back
Fore
SplineSet
581.802 476 m 256
 581.802 444.706 608.577 418.458 640.5 418.458 c 256
 672.423 418.458 699.198 444.706 699.198 476 c 256
 699.198 507.294 672.423 533.542 640.5 533.542 c 256
 608.577 533.542 581.802 507.294 581.802 476 c 256
267.5 421 m 256
 267.5 590 379.5 671 522.5 671 c 256
 652.5 671 738.5 600 738.5 495 c 256
 738.5 444 700.5 388 642.5 388 c 256
 584.5 388 549.5 433 549.5 477 c 256
 549.5 500.977 557.463 517.765 568.625 531 c 256
 572.367 535.437 576.469 539.475 580.75 543.25 c 257
 567.443 547.273 541.114 550 523.75 550 c 256
 373.492 550 298 466.557 298 383 c 256
 298 371.432 299.019 366.978 301 358 c 257
 276 336 l 257
 271.903 353.752 267.5 389.837 267.5 421 c 256
EndSplineSet
Refer: 460 3505 N 1 0 0 1 0 0 2
EndChar

StartChar: si_NThI
Encoding: 467 -1 240
GlifName: si_N_T_hI_
Width: 1046
VWidth: 0
GlyphClass: 2
Flags: HMW
LayerCount: 2
Back
Fore
SplineSet
539.75 574 m 256
 539.75 665.82 654.109 700.25 762.25 700.25 c 256
 864.417 700.25 983.75 664.09 983.75 573 c 256
 983.75 526.275 946.138 498.25 891.25 498.25 c 257
 885.668 502.863 878.575 513.196 874.75 520.75 c 257
 887.312 521.31 933.75 525.594 933.75 557 c 256
 933.75 602.026 839.224 618.5 764.75 618.5 c 256
 646.083 618.5 587.75 593.236 587.75 556.75 c 256
 587.75 528.929 621.891 516 655.75 516 c 256
 701.066 516 734.691 528.609 751.75 536.75 c 257
 750.329 530.495 751.465 519.611 747.75 503.75 c 257
 722.717 496.058 697.117 487.75 653.75 487.75 c 256
 593.55 487.75 539.75 515.942 539.75 574 c 256
EndSplineSet
Refer: 244 -1 N 1 0 0 1 0 0 2
EndChar

StartChar: si_NThU
Encoding: 469 -1 242
GlifName: si_N_T_hU_
Width: 1046
VWidth: 0
GlyphClass: 2
Flags: HMW
LayerCount: 2
Back
Fore
SplineSet
487.25 -142.5 m 256
 487.25 -90.4912 533.543 -50.5 588.75 -50.5 c 256
 630.656 -50.5 668 -74.1416 682.75 -110 c 257
 650 -121.5 l 257
 643.176 -104.358 621.75 -81.75 588.75 -81.75 c 256
 552.046 -81.75 522.75 -109.716 522.75 -142.5 c 256
 522.75 -171.663 544.498 -192.5 614.25 -192.5 c 258
 955.75 -192.5 l 257
 955.75 128 l 257
 991 219 l 257
 991 -235 l 257
 592.75 -235 l 258
 513.207 -235 487.25 -186.092 487.25 -142.5 c 256
EndSplineSet
Refer: 244 -1 N 1 0 0 1 0 0 2
EndChar

StartChar: si_NThUu
Encoding: 470 -1 243
GlifName: si_N_T_hU_u
Width: 1046
VWidth: 0
GlyphClass: 2
Flags: HMW
LayerCount: 2
Back
Fore
SplineSet
486.5 -138 m 256
 486.5 -80 535.5 -40 588.5 -40 c 256
 630.5 -40 662.833 -55 685.5 -91 c 257
 652.5 -102 l 257
 641.184 -84.6992 622.5 -70 593.5 -70 c 256
 554.5 -70 529.5 -95.0762 529.5 -120 c 256
 529.5 -151.995 558.315 -167 592.5 -167 c 256
 668.715 -167 727.577 -114.5 835.25 -114.5 c 256
 886.332 -114.5 929 -133.75 956 -165.75 c 257
 956 152 l 257
 991 212 l 257
 991 -231 l 257
 965.5 -231 l 257
 950.5 -195 908.199 -146.25 845.25 -146.25 c 256
 754.25 -146.25 695.5 -237 597.5 -237 c 256
 542.5 -237 486.5 -206 486.5 -138 c 256
EndSplineSet
Refer: 244 -1 N 1 0 0 1 0 0 2
EndChar

StartChar: si_NTha
Encoding: 433 -1 244
GlifName: si_N_T_ha
Width: 1046
VWidth: 0
GlyphClass: 2
Flags: HMW
LayerCount: 2
Back
Fore
SplineSet
24 176 m 257
 32 167 50 160.128 67 160.128 c 256
 130 160.128 131 206 208 279 c 257
 221 292 222.818 309.123 222.818 322 c 256
 222.818 356 204 379.552 180.462 379.552 c 256
 160 379.552 146 370 143.747 345 c 256
 141.767 323.02 131 294 99 294 c 256
 82 294 55.1415 304 55.1415 339 c 256
 55.1415 384.003 89.0174 431 154 431 c 256
 219.025 431 253 384.851 253 332 c 256
 253 326.712 251.901 318.204 251 315 c 257
 307.983 369.402 401.404 436.25 591.25 436.25 c 256
 616.139 436.25 655.83 433.6 679 430.25 c 257
 659.67 426.332 618.272 406.28 606 406.25 c 257
 596.779 406.385 594.533 406.75 585 406.75 c 256
 428.309 406.75 342.818 358.885 274.5 300 c 257
 297.033 305.304 317.103 308.102 345.044 308.102 c 256
 428.955 308.102 498.168 248.944 498.168 168.853 c 256
 498.168 52.8253 398.035 -1.12219 276.065 -1.12219 c 256
 136 -1.12219 24 65 24 176 c 257
125 147 m 257
 153.727 138.228 190.043 133 248 133 c 256
 360 133 418 177 418 225 c 256
 418 259 390 281 334 281 c 256
 190 281 189 190 125 147 c 257
EndSplineSet
Refer: 457 3502 N 1 0 0 1 433 0 2
EndChar

StartChar: si_NU
Encoding: 286 -1 245
GlifName: si_N_U_
Width: 591
VWidth: 0
GlyphClass: 2
Flags: HMW
LayerCount: 2
Back
Fore
SplineSet
562 -159 m 5
 24 -159 l 5
 24 -53 l 5
 439 -53 l 5
 439 25 l 5
 511 25 l 6
 539.666992188 25 556.666992188 38 562 64 c 5
 562 -159 l 5
EndSplineSet
Refer: 460 3505 N 1 0 0 1 0 0 2
EndChar

StartChar: si_NUu
Encoding: 287 -1 246
GlifName: si_N_U_u
Width: 591
VWidth: 0
GlyphClass: 2
Flags: HMW
LayerCount: 2
Back
Fore
SplineSet
138.5 -129.25 m 256
 138.5 -79.6953 184.75 -40 237.75 -40 c 256
 279.75 -40 312.083 -55 334.75 -91 c 257
 301.75 -102 l 257
 290.434 -84.6992 271.25 -69.75 242.25 -69.75 c 256
 203.25 -69.75 179 -93.7451 179 -118.75 c 256
 179 -164.58 247.155 -173.75 277.75 -173.75 c 256
 385.146 -173.75 440.671 -114 569.5 -114 c 256
 628.405 -114 684.372 -135.199 717 -168 c 257
 717 152 l 257
 752 212 l 257
 752 -231 l 257
 726.5 -231 l 257
 711.5 -195 668.783 -145.75 578 -145.75 c 256
 461.294 -145.75 409.869 -237 283.5 -237 c 256
 204.469 -237 138.5 -204.438 138.5 -129.25 c 256
EndSplineSet
Refer: 460 3505 N 1 0 0 1 0 0 2
EndChar

StartChar: si_NVI
Encoding: 472 -1 248
GlifName: si_N_V_I_
Width: 1032
VWidth: 0
GlyphClass: 2
Flags: HMW
LayerCount: 2
Back
Fore
SplineSet
24 176 m 257
 32 167 50 160.128 67 160.128 c 256
 130 160.128 131 206 208 279 c 257
 221 292 222.818 309.123 222.818 322 c 256
 222.818 356 204 379.552 180.462 379.552 c 256
 160 379.552 146 370 143.747 345 c 256
 141.767 323.02 131 294 99 294 c 256
 82 294 55.1415 304 55.1415 339 c 256
 55.1415 384.003 89.0174 431 154 431 c 256
 219.025 431 253.021 385.059 253.021 332 c 256
 253.021 325.136 251.944 318.281 251 315 c 257
 298.744 366.901 395.663 434 557.5 434 c 256
 568.61 434 597.348 433.23 620.5 430.25 c 257
 605.051 423.002 539.486 409.887 527 404 c 257
 423.204 403.994 325.01 351.049 275.75 300 c 257
 297.347 305.924 317.103 308.102 345.044 308.102 c 256
 428.955 308.102 498.168 248.944 498.168 168.853 c 256
 498.168 52.8253 398.035 -1.12219 276.065 -1.12219 c 256
 136 -1.12219 24 65 24 176 c 257
125 147 m 257
 153.727 138.228 190.043 133 248 133 c 256
 360 133 418 177 418 225 c 256
 418 259 390 281 334 281 c 256
 190 281 189 190 125 147 c 257
EndSplineSet
Refer: 396 -1 N 1 0 0 1 437 0 2
EndChar

StartChar: si_NVIi
Encoding: 473 -1 249
GlifName: si_N_V_I_i
Width: 1032
VWidth: 0
GlyphClass: 2
Flags: HMW
LayerCount: 2
Back
Fore
SplineSet
24 176 m 257
 32 167 50 160.128 67 160.128 c 256
 130 160.128 131 206 208 279 c 257
 221 292 222.818 309.123 222.818 322 c 256
 222.818 356 204 379.552 180.462 379.552 c 256
 160 379.552 146 370 143.747 345 c 256
 141.767 323.02 131 294 99 294 c 256
 82 294 55.1415 304 55.1415 339 c 256
 55.1415 384.003 89.0174 431 154 431 c 256
 219.025 431 253.021 385.059 253.021 332 c 256
 253.021 325.136 251.944 318.281 251 315 c 257
 298.744 366.901 395.663 434 557.5 434 c 256
 568.61 434 597.348 433.23 620.5 430.25 c 257
 605.051 423.002 539.486 409.887 527 404 c 257
 423.204 403.994 325.01 351.049 275.75 300 c 257
 297.347 305.924 317.103 308.102 345.044 308.102 c 256
 428.955 308.102 498.168 248.944 498.168 168.853 c 256
 498.168 52.8253 398.035 -1.12219 276.065 -1.12219 c 256
 136 -1.12219 24 65 24 176 c 257
125 147 m 257
 153.727 138.228 190.043 133 248 133 c 256
 360 133 418 177 418 225 c 256
 418 259 390 281 334 281 c 256
 190 281 189 190 125 147 c 257
EndSplineSet
Refer: 397 -1 N 1 0 0 1 437 0 2
EndChar

StartChar: si_Na.reph
Encoding: 288 -1 253
GlifName: si_N_a.reph
Width: 591
VWidth: 0
GlyphClass: 2
Flags: HMW
LayerCount: 2
Back
Fore
SplineSet
455.4 511 m 256
 455.4 490.854 473.628 474.547 495.5 474.547 c 256
 517.372 474.547 535.6 490.854 535.6 511 c 256
 535.6 531.146 517.372 547.453 495.5 547.453 c 256
 473.628 547.453 455.4 531.146 455.4 511 c 256
352.5 530 m 256
 352.5 594 410.62 631 492.5 631 c 256
 569.5 631 633.5 588 633.5 517 c 256
 633.5 493 625.167 471.333 608.5 452 c 257
 572.75 452 l 257
 585.92 464.387 601.5 488.734 601.5 516 c 256
 601.5 570.521 552.5 602.5 491.5 602.5 c 256
 438.722 602.5 385.25 579.99 385.25 530 c 256
 385.25 490.925 428.401 473.688 446 471.25 c 257
 438 477.25 427.5 491 427.5 512 c 256
 427.5 547 458.854 572 494.5 572 c 256
 535.5 572 563.5 545 563.5 510 c 256
 563.5 471 528.5 445 470.5 445 c 256
 411.5 445 352.5 474 352.5 530 c 256
EndSplineSet
Refer: 460 3505 N 1 0 0 1 0 0 2
EndChar

StartChar: si_Nd.halant
Encoding: 289 -1 254
GlifName: si_N_d.halant
Width: 624
VWidth: 0
GlyphClass: 2
Flags: HMW
LayerCount: 2
Back
Fore
SplineSet
347 413 m 261
 347 681 l 261
 401 639 498.5 634 498.5 542 c 260
 498.5 498 463.691 468 420.5 468 c 260
 405.833 468 390.833 471.333 375.5 478 c 261
 375.5 396 l 261
 347 413 l 261
375.605 504.273 m 261
 384.1 499.699 394.882 497.413 407.948 497.413 c 260
 439.954 497.413 453.5 521.915 453.5 545.438 c 260
 453.5 586.602 421.67 606.203 375.605 636.587 c 261
 375.605 504.273 l 261
EndSplineSet
Refer: 461 3507 N 1 0 0 1 0 0 2
EndChar

StartChar: si_NdI
Encoding: 294 -1 258
GlifName: si_N_dI_
Width: 624
VWidth: 0
GlyphClass: 2
Flags: HMW
LayerCount: 2
Back
Fore
SplineSet
118.91 522 m 256
 118.91 616.314 210.133 671 306.83 671 c 256
 403.527 671 494.75 617.064 494.75 518 c 256
 494.75 443.457 431.414 406.19 378.92 405 c 257
 361.42 427.25 l 257
 417.531 427.251 437.83 458.508 437.83 488 c 256
 437.83 534.694 378.846 554 306.83 554 c 256
 234.814 554 167.33 537.953 167.33 486.75 c 256
 167.33 460.452 197.334 435.75 258 435.75 c 257
 241 415 l 257
 172.33 416.064 118.91 450.798 118.91 522 c 256
EndSplineSet
Refer: 461 3507 N 1 0 0 1 0 0 2
EndChar

StartChar: si_NdIi
Encoding: 295 -1 259
GlifName: si_N_dI_i
Width: 624
VWidth: 0
GlyphClass: 2
Flags: HMW
LayerCount: 2
Back
Fore
SplineSet
333.194 492.5 m 256
 333.194 462.728 362.006 438.718 396.58 438.718 c 256
 431.154 438.718 459.966 462.728 459.966 492.5 c 256
 459.966 522.272 431.154 546.282 396.58 546.282 c 256
 362.006 546.282 333.194 522.272 333.194 492.5 c 256
118.91 526 m 256
 118.91 614.658 210.133 671 306.83 671 c 256
 403.527 671 495.75 619.928 495.75 511.25 c 256
 495.75 440.185 447.294 407.5 396.08 407.5 c 256
 336.405 407.5 298.58 448.5 298.58 493.5 c 256
 298.58 535.516 330.982 555.592 337.83 560 c 257
 331.12 560.581 323.242 561.25 307.83 561.25 c 256
 249.183 561.25 170.33 547.647 170.33 489.5 c 256
 170.33 461.723 192.6 426.75 277.83 426.75 c 257
 234.74 405 l 257
 168.781 414.727 118.91 458.955 118.91 526 c 256
EndSplineSet
Refer: 461 3507 N 1 0 0 1 0 0 2
EndChar

StartChar: si_Ndj.halant
Encoding: 194 -1 263
GlifName: si_N_dj.halant
Width: 683
VWidth: 1000
GlyphClass: 2
Flags: HMW
LayerCount: 2
Back
Fore
SplineSet
158.998046875 409.000976562 m 6
 146.59765625 409.000976562 140.000976562 403 140.000976562 385 c 6
 140.000976562 0 l 5
 22 0 l 5
 22 406 l 6
 22 459.608800016 56.2470703125 497 108.400390625 497 c 6
 255.001953125 496.999023438 l 5
 202.000976562 409 l 5
 158.998046875 409.000976562 l 6
EndSplineSet
Refer: 131 -1 S 1 0 0 1 169.2 0 2
EndChar

StartChar: si_NdjI
Encoding: 195 -1 264
GlifName: si_N_djI_
Width: 683
VWidth: 1000
GlyphClass: 2
Flags: HMW
LayerCount: 2
Back
Fore
SplineSet
158.998046875 409.000976562 m 6
 146.59765625 409.000976562 140.000976562 403 140.000976562 385 c 6
 140.000976562 0 l 5
 22 0 l 5
 22 406 l 6
 22 459.608800016 56.2470703125 497 108.400390625 497 c 6
 255.001953125 496.999023438 l 5
 202.000976562 409 l 5
 158.998046875 409.000976562 l 6
EndSplineSet
Refer: 132 -1 S 1 0 0 1 169.2 0 2
EndChar

StartChar: si_NdjIi
Encoding: 196 -1 265
GlifName: si_N_djI_i
Width: 683
VWidth: 1000
GlyphClass: 2
Flags: HMW
LayerCount: 2
Back
Fore
SplineSet
158.998046875 409.000976562 m 2
 146.59765625 409.000976562 140.000976562 403 140.000976562 385 c 2
 140.000976562 0 l 1
 22 0 l 1
 22 406 l 2
 22 459.608800016 56.2470703125 497 108.400390625 497 c 2
 255.001953125 496.999023438 l 1
 202.000976562 409 l 1
 158.998046875 409.000976562 l 2
EndSplineSet
Refer: 133 -1 N 1 0 0 1 169.2 0 2
EndChar

StartChar: si_NdjRa
Encoding: 199 -1 266
GlifName: si_N_djR_a
Width: 683
VWidth: 0
GlyphClass: 2
Flags: HMW
LayerCount: 2
Back
Fore
SplineSet
191.19140625 -15.8076171875 m 5
 191.19140625 -114.82421875 l 6
 191.19140625 -144.818359375 208.107421875 -159.021484375 235.19140625 -159.021484375 c 6
 613.002929688 -159.021484375 l 6
 638.3359375 -159.021484375 654.002929688 -147.586914062 654.002929688 -116.021484375 c 6
 654.002929688 -15.8076171875 l 5
 529.998046875 -15.8076171875 l 5
 529.998046875 -35.009765625 l 6
 529.998046875 -47.8876953125 529.282226562 -53.0107421875 516.40234375 -53.0107421875 c 6
 328.19140625 -53.0107421875 l 6
 316.858398438 -53.0107421875 315.196289062 -47.0107421875 315.196289062 -35.0107421875 c 6
 315.196289062 -15.8076171875 l 5
 191.19140625 -15.8076171875 l 5
EndSplineSet
Refer: 449 3494 N 1 0 0 1 0 -1 2
EndChar

StartChar: si_NnddU
Encoding: 237 -1 281
GlifName: si_N_nddU_
Width: 700
VWidth: 0
GlyphClass: 2
Flags: HMW
LayerCount: 2
Back
Fore
SplineSet
138.608 -142.5 m 256
 138.608 -90.4912 184.901 -50.5 240.108 -50.5 c 256
 282.015 -50.5 319.358 -74.1416 334.108 -110 c 257
 301.358 -121.5 l 257
 294.534 -104.358 273.108 -81.75 240.108 -81.75 c 256
 203.404 -81.75 174.108 -109.716 174.108 -142.5 c 256
 174.108 -171.663 195.856 -192.5 265.608 -192.5 c 258
 637.108 -192.5 l 257
 637.108 128 l 257
 672.358 219 l 257
 672.358 -235 l 257
 244.108 -235 l 258
 164.565 -235 138.608 -186.092 138.608 -142.5 c 256
EndSplineSet
Refer: 455 3500 N 1 0 0 1 0 0 2
EndChar

StartChar: si_NnddUu
Encoding: 238 -1 282
GlifName: si_N_nddU_u
Width: 700
VWidth: 0
GlyphClass: 2
Flags: HMW
LayerCount: 2
Back
Fore
SplineSet
137.358 -138 m 256
 137.358 -80 186.358 -40 239.358 -40 c 256
 281.358 -40 313.691 -55 336.358 -91 c 257
 303.358 -102 l 257
 292.042 -84.6992 273.358 -70 244.358 -70 c 256
 205.358 -70 180.358 -95.0762 180.358 -120 c 256
 180.358 -151.995 209.174 -167 243.358 -167 c 256
 319.573 -167 405.686 -114.5 513.358 -114.5 c 256
 564.44 -114.5 610.358 -133.75 637.358 -165.75 c 257
 637.358 152 l 257
 672.358 212 l 257
 672.358 -231 l 257
 646.858 -231 l 257
 631.858 -195 586.308 -146.25 523.358 -146.25 c 256
 432.358 -146.25 346.358 -237 248.358 -237 c 256
 193.358 -237 137.358 -206 137.358 -138 c 256
EndSplineSet
Refer: 455 3500 N 1 0 0 1 0 0 2
EndChar

StartChar: si_NyU
Encoding: 177 -1 295
GlifName: si_N_yU_
Width: 1014
VWidth: 1000
GlyphClass: 2
Flags: HMW
LayerCount: 2
Back
Fore
SplineSet
437.796875 244.000976562 m 6
 437.796875 256.666015625 432.796875 263.000976562 422.796875 263.000976562 c 6
 307.396484375 263.000976562 l 5
 277.795898438 237.000976562 l 5
 306.189453125 237.000976562 l 5
 306.392578125 223.000976562 l 21
 300.907226562 219.224609375 294.392578125 205.955078125 294.392578125 181.803710938 c 6
 294.392578125 128.000976562 l 6
 294.392578125 110.666992188 297.052734375 108.000976562 308.392578125 108.000976562 c 6
 316.793945312 108.000976562 l 6
 329.87890625 108.000976562 331.793945312 113.66796875 331.793945312 125.001953125 c 6
 331.793945312 189.000976562 l 5
 399.793945312 189.000976562 l 5
 399.793945312 127.000976562 l 6
 399.793945312 112.333984375 402.502929688 108.000976562 413.793945312 108.000976562 c 6
 424.796875 108.000976562 l 6
 435.001953125 108.000976562 437.796875 112.803710938 437.796875 130.802734375 c 6
 437.796875 244.000976562 l 6
591.989257812 497 m 5
 592 394.19921875 l 5
 500 394 l 6
 484.423893319 393.966271168 470.375155204 392.896537614 461 389 c 4
 454.826154574 386.434002915 443.137662251 379.687501921 434.002929688 372 c 6
 413.803710938 355.000976562 l 5
 493.796875 355.000976562 l 6
 525.609375 355.000976562 546.796875 337.696289062 546.796875 298.000976562 c 6
 546.796875 51.0009765625 l 6
 546.796875 14.955078125 523.44140625 0.0009765625 493.796875 0.0009765625 c 6
 403.793945312 0.0009765625 l 6
 384.833984375 0.0009765625 371.4609375 9.66796875 366.793945312 29.001953125 c 5
 362.126953125 9.66796875 345.486328125 0.0009765625 327.793945312 0.0009765625 c 6
 228.392578125 0.0009765625 l 6
 196.529296875 0.0009765625 184.396484375 19.8173828125 184.396484375 50.001953125 c 6
 184.396484375 140.201171875 l 6
 184.396484375 180.99609375 196.669921875 195.265625 210.396484375 203.001953125 c 5
 174.393554688 203.001953125 l 5
 174.393554688 276.397460938 l 5
 174.393554688 276.397460938 249.8046875 342.000976562 293.004882812 380.401367188 c 5
 293.004882812 381.999023438 l 6
 293.004882812 391.228515625 282.315429688 393.971679688 269.408203125 394.001953125 c 6
 184.396484375 394.201171875 l 5
 184.396484375 497.201171875 l 5
 347.805664062 497.000976562 l 6
 379.48828125 496.962890625 383.401367188 469.791015625 383.401367188 461.598632812 c 6
 383.401367188 459.3984375 l 5
 405.99609375 475.202148438 l 6
 431.312427245 492.9094668 461.669986282 497 486 497 c 6
 591.989257812 497 l 5
158.998046875 410.598632812 m 6
 146.59765625 410.598632812 140.000976562 404.59765625 140.000976562 386.59765625 c 6
 140.000976562 0 l 5
 22 0 l 5
 22 406 l 6
 22 459.608800016 56.2470703125 497 108.400390625 497 c 6
 255.001953125 496.999023438 l 5
 202.000976562 410.59765625 l 5
 158.998046875 410.598632812 l 6
EndSplineSet
Refer: 55 -1 S 1 0 0 1 553.4 0 2
EndChar

StartChar: si_NyUu
Encoding: 178 -1 296
GlifName: si_N_yU_u
Width: 1014
VWidth: 1000
GlyphClass: 2
Flags: HMW
LayerCount: 2
Back
Fore
SplineSet
437.796875 244.000976562 m 2
 437.796875 256.666015625 432.796875 263.000976562 422.796875 263.000976562 c 2
 307.396484375 263.000976562 l 1
 277.795898438 237.000976562 l 1
 306.189453125 237.000976562 l 1
 306.392578125 223.000976562 l 17
 300.907226562 219.224609375 294.392578125 205.955078125 294.392578125 181.803710938 c 2
 294.392578125 128.000976562 l 2
 294.392578125 110.666992188 297.052734375 108.000976562 308.392578125 108.000976562 c 2
 316.793945312 108.000976562 l 2
 329.87890625 108.000976562 331.793945312 113.66796875 331.793945312 125.001953125 c 2
 331.793945312 189.000976562 l 1
 399.793945312 189.000976562 l 1
 399.793945312 127.000976562 l 2
 399.793945312 112.333984375 402.502929688 108.000976562 413.793945312 108.000976562 c 2
 424.796875 108.000976562 l 2
 435.001953125 108.000976562 437.796875 112.803710938 437.796875 130.802734375 c 2
 437.796875 244.000976562 l 2
591.989257812 497 m 1
 592 394.19921875 l 1
 500 394 l 2
 484.423893319 393.966271168 470.375155204 392.896537614 461 389 c 0
 454.826154574 386.434002915 443.137662251 379.687501921 434.002929688 372 c 2
 413.803710938 355.000976562 l 1
 493.796875 355.000976562 l 2
 525.609375 355.000976562 546.796875 337.696289062 546.796875 298.000976562 c 2
 546.796875 51.0009765625 l 2
 546.796875 14.955078125 523.44140625 0.0009765625 493.796875 0.0009765625 c 2
 403.793945312 0.0009765625 l 2
 384.833984375 0.0009765625 371.4609375 9.66796875 366.793945312 29.001953125 c 1
 362.126953125 9.66796875 345.486328125 0.0009765625 327.793945312 0.0009765625 c 2
 228.392578125 0.0009765625 l 2
 196.529296875 0.0009765625 184.396484375 19.8173828125 184.396484375 50.001953125 c 2
 184.396484375 140.201171875 l 2
 184.396484375 180.99609375 196.669921875 195.265625 210.396484375 203.001953125 c 1
 174.393554688 203.001953125 l 1
 174.393554688 276.397460938 l 1
 174.393554688 276.397460938 249.8046875 342.000976562 293.004882812 380.401367188 c 1
 293.004882812 381.999023438 l 2
 293.004882812 391.228515625 282.315429688 393.971679688 269.408203125 394.001953125 c 2
 184.396484375 394.201171875 l 1
 184.396484375 497.201171875 l 1
 347.805664062 497.000976562 l 2
 379.48828125 496.962890625 383.401367188 469.791015625 383.401367188 461.598632812 c 2
 383.401367188 459.3984375 l 1
 405.99609375 475.202148438 l 2
 431.312427245 492.9094668 461.669986282 497 486 497 c 2
 591.989257812 497 l 1
158.998046875 410.598632812 m 2
 146.59765625 410.598632812 140.000976562 404.59765625 140.000976562 386.59765625 c 2
 140.000976562 0 l 1
 22 0 l 1
 22 406 l 2
 22 459.608800016 56.2470703125 497 108.400390625 497 c 2
 255.001953125 496.999023438 l 1
 202.000976562 410.59765625 l 1
 158.998046875 410.598632812 l 2
EndSplineSet
Refer: 56 -1 N 1 0 0 1 553.6 0 2
EndChar

StartChar: si_P.halant
Encoding: 299 -1 297
GlifName: si_P_.halant
Width: 513
VWidth: 0
GlyphClass: 2
Flags: HMW
LayerCount: 2
Back
Fore
SplineSet
421.5 428 m 257
 421.5 681 l 257
 475.5 639 573 634 573 542 c 256
 573 498 538.191 468 495 468 c 256
 480.333 468 465.333 471.333 450 478 c 257
 450 411 l 257
 421.5 428 l 257
450.105 504.273 m 257
 458.6 499.699 469.382 497.413 482.448 497.413 c 256
 514.454 497.413 528 521.915 528 545.438 c 256
 528 586.602 496.17 606.203 450.105 636.587 c 257
 450.105 504.273 l 257
EndSplineSet
Refer: 462 3508 N 1 0 0 1 0 0 2
EndChar

StartChar: si_PI
Encoding: 300 -1 298
GlifName: si_P_I_
Width: 513
VWidth: 0
GlyphClass: 2
Flags: HMW
LayerCount: 2
Back
Fore
SplineSet
68 518 m 256
 68 626.291 180.621 671 300 671 c 256
 419.379 671 532 626.291 532 518 c 256
 532 443.457 465.857 408.074 389 405 c 257
 391.5 426.25 l 257
 445.176 429.075 467.25 447.041 467.25 479 c 256
 467.25 521.434 386.438 535.75 300 535.75 c 256
 211.092 535.75 128.5 521.776 128.5 479 c 256
 128.5 450.304 154.824 429.075 208.5 426.25 c 257
 211 405 l 257
 134.143 408.074 68 443.457 68 518 c 256
EndSplineSet
Refer: 462 3508 N 1 0 0 1 0 0 2
EndChar

StartChar: si_PIi
Encoding: 301 -1 299
GlifName: si_P_I_i
Width: 513
VWidth: 0
GlyphClass: 2
Flags: HMW
LayerCount: 2
Back
Fore
SplineSet
386.813 514 m 256
 386.813 483.616 416.217 459.114 451.5 459.114 c 256
 486.783 459.114 516.187 483.616 516.187 514 c 256
 516.187 544.384 486.783 568.886 451.5 568.886 c 256
 416.217 568.886 386.813 544.384 386.813 514 c 256
48.5 517 m 256
 48.5 624.211 172.446 671 299.5 671 c 256
 416.214 671 552.5 627.399 552.5 524 c 256
 552.5 468.769 507.777 429 451.5 429 c 256
 393.5 429 353.5 470 353.5 515 c 256
 353.5 525.451 356.269 549.089 369.5 562 c 257
 360.651 563.391 320.002 565 287.5 565 c 256
 193.336 565 95 542.711 95 482 c 256
 95 459.935 107.541 437 143 428 c 257
 138.5 406 l 257
 85.2549 410.733 48.5 456 48.5 517 c 256
EndSplineSet
Refer: 462 3508 N 1 0 0 1 0 0 2
EndChar

StartChar: si_PRI
Encoding: 306 -1 300
GlifName: si_P_R_I_
Width: 513
VWidth: 0
GlyphClass: 2
Flags: HMW
LayerCount: 2
Back
Fore
SplineSet
68 518 m 256
 68 626.291 180.621 671 300 671 c 256
 419.379 671 532 626.291 532 518 c 256
 532 443.457 465.857 408.074 389 405 c 257
 391.5 426.25 l 257
 445.176 429.075 467.25 447.041 467.25 479 c 256
 467.25 521.434 386.438 535.75 300 535.75 c 256
 211.092 535.75 128.5 521.776 128.5 479 c 256
 128.5 450.304 154.824 429.075 208.5 426.25 c 257
 211 405 l 257
 134.143 408.074 68 443.457 68 518 c 256
50.5 -44 m 257
 80 -44 l 257
 117.476 -86.958 180.167 -114.25 285.5 -114.25 c 256
 428.5 -114.25 537.75 -31.0107 537.75 63.25 c 256
 537.75 78.2842 536.188 90.4463 530.75 102 c 257
 543.75 133 l 257
 561.75 106.333 570.75 74.667 570.75 38 c 256
 570.75 -123.729 442.75 -219 298.75 -219 c 256
 174.159 -219 87.833 -153.333 50.5 -44 c 257
EndSplineSet
Refer: 462 3508 N 1 0 0 1 0 0 2
EndChar

StartChar: si_PRIi
Encoding: 307 -1 301
GlifName: si_P_R_I_i
Width: 513
VWidth: 0
GlyphClass: 2
Flags: HMW
LayerCount: 2
Back
Fore
SplineSet
386.813 514 m 256
 386.813 483.616 416.217 459.114 451.5 459.114 c 256
 486.783 459.114 516.187 483.616 516.187 514 c 256
 516.187 544.384 486.783 568.886 451.5 568.886 c 256
 416.217 568.886 386.813 544.384 386.813 514 c 256
48.5 517 m 256
 48.5 624.211 172.446 671 299.5 671 c 256
 416.214 671 552.5 627.399 552.5 524 c 256
 552.5 468.769 507.777 429 451.5 429 c 256
 393.5 429 353.5 470 353.5 515 c 256
 353.5 525.451 356.269 549.089 369.5 562 c 257
 360.651 563.391 320.002 565 287.5 565 c 256
 193.336 565 95 542.711 95 482 c 256
 95 459.935 107.541 437 143 428 c 257
 138.5 406 l 257
 85.2549 410.733 48.5 456 48.5 517 c 256
50.5 -44 m 257
 80 -44 l 257
 117.476 -86.958 180.167 -114.25 285.5 -114.25 c 256
 428.5 -114.25 537.75 -31.0107 537.75 63.25 c 256
 537.75 78.2842 536.188 90.4463 530.75 102 c 257
 543.75 133 l 257
 561.75 106.333 570.75 74.667 570.75 38 c 256
 570.75 -123.729 442.75 -219 298.75 -219 c 256
 174.159 -219 87.833 -153.333 50.5 -44 c 257
EndSplineSet
Refer: 462 3508 N 1 0 0 1 0 0 2
EndChar

StartChar: si_PRa
Encoding: 305 -1 302
GlifName: si_P_R_a
Width: 513
VWidth: 0
GlyphClass: 2
Flags: HMW
LayerCount: 2
Back
Fore
SplineSet
50.5 -44 m 257
 80 -44 l 257
 117.476 -86.958 180.167 -114.25 285.5 -114.25 c 256
 428.5 -114.25 537.75 -31.0107 537.75 63.25 c 256
 537.75 78.2842 536.188 90.4463 530.75 102 c 257
 543.75 133 l 257
 561.75 106.333 570.75 74.667 570.75 38 c 256
 570.75 -123.729 442.75 -219 298.75 -219 c 256
 174.159 -219 87.833 -153.333 50.5 -44 c 257
EndSplineSet
Refer: 462 3508 N 1 0 0 1 0 0 2
EndChar

StartChar: si_PUu
Encoding: 303 -1 304
GlifName: si_P_U_u
Width: 513
VWidth: 0
GlyphClass: 2
Flags: HMW
LayerCount: 2
Back
Fore
SplineSet
44 -138 m 256
 44 -80 93 -40 146 -40 c 256
 188 -40 220.333 -55 243 -91 c 257
 210 -102 l 257
 198.684 -84.6992 180 -70 151 -70 c 256
 112 -70 87 -95.0762 87 -120 c 256
 87 -151.995 121.315 -167 155.5 -167 c 256
 270.246 -167 304.327 -114.5 412 -114.5 c 256
 463.082 -114.5 506 -133.75 533 -165.75 c 257
 533 152 l 257
 568 212 l 257
 568 -231 l 257
 542.5 -231 l 257
 527.5 -195 484.949 -146.25 422 -146.25 c 256
 331 -146.25 282.552 -237 160.5 -237 c 256
 105.5 -237 44 -206 44 -138 c 256
EndSplineSet
Refer: 462 3508 N 1 0 0 1 0 0 2
EndChar

StartChar: si_Pa.reph
Encoding: 304 -1 305
GlifName: si_P_a.reph
Width: 513
VWidth: 0
GlyphClass: 2
Flags: HMW
LayerCount: 2
Back
Fore
SplineSet
267.65 511 m 256
 267.65 490.854 285.878 474.547 307.75 474.547 c 256
 329.622 474.547 347.85 490.854 347.85 511 c 256
 347.85 531.146 329.622 547.453 307.75 547.453 c 256
 285.878 547.453 267.65 531.146 267.65 511 c 256
164.75 530 m 256
 164.75 594 222.87 631 304.75 631 c 256
 381.75 631 445.75 588 445.75 517 c 256
 445.75 493 437.417 471.333 420.75 452 c 257
 385 452 l 257
 398.17 464.387 413.75 488.734 413.75 516 c 256
 413.75 570.521 364.75 602.5 303.75 602.5 c 256
 250.972 602.5 197.5 579.99 197.5 530 c 256
 197.5 490.925 240.651 473.688 258.25 471.25 c 257
 250.25 477.25 239.75 491 239.75 512 c 256
 239.75 547 271.104 572 306.75 572 c 256
 347.75 572 375.75 545 375.75 510 c 256
 375.75 471 340.75 445 282.75 445 c 256
 223.75 445 164.75 474 164.75 530 c 256
EndSplineSet
Refer: 462 3508 N 1 0 0 1 0 0 2
EndChar

StartChar: si_PhI
Encoding: 309 -1 307
GlifName: si_P_hI_
Width: 515
VWidth: 0
GlyphClass: 2
Flags: HMW
LayerCount: 2
Back
Fore
SplineSet
189.998046875 448 m 5
 80 448 l 6
 49 448 34 463 34 493 c 6
 34 684 l 6
 34 714.666992188 52.338693083 736 90 736 c 6
 484.80078125 736 l 5
 484.80078125 660 l 5
 131 660 l 6
 115.442239965 660 106 656.559094926 106 640 c 6
 106 516 l 6
 106 500.211914062 112.099199978 498 124 498 c 6
 190 498 l 5
 189.998046875 448 l 5
EndSplineSet
Refer: 463 3509 N 1 0 0 1 0 0 2
EndChar

StartChar: si_PhIi
Encoding: 310 -1 308
GlifName: si_P_hI_i
Width: 515
VWidth: 0
GlyphClass: 2
Flags: HMW
LayerCount: 2
Back
Fore
SplineSet
338 691 m 6
 328 691 323 687 323 679 c 6
 323 658 l 6
 323 649.333333333 328.333333333 645 339 645 c 6
 380 645 l 6
 390.666666667 645 396 649.666666667 396 659 c 6
 396 679 l 6
 396 687 390.333333333 691 379 691 c 6
 338 691 l 6
258 621.998046875 m 6
 234.724609375 621.998046875 230 631.254882812 230 643 c 6
 230 652 l 6
 230 656.531445085 230.817382812 659.008789062 232.399414062 660 c 13
 131 660 l 6
 115 660 106 656.559094926 106 640 c 6
 106 516 l 6
 106 500.211914062 112.099199978 498 124 498 c 6
 190 498 l 5
 189.998046875 448 l 5
 80 448 l 6
 49 448 34 463 34 493 c 6
 34 684 l 6
 34 714.666992188 52 736 90 736 c 6
 452.799804688 736.000976562 l 6
 475.799804688 736.000976562 488 726.333984375 488 707.000976562 c 6
 488 652 l 6
 488 632 477.998315121 622.000195296 458 622 c 6
 258 621.998046875 l 6
EndSplineSet
Refer: 463 3509 N 1 0 0 1 0 0 2
EndChar

StartChar: si_R.halant
Encoding: 359 -1 312
GlifName: si_R_.halant
Width: 466
VWidth: 0
GlyphClass: 2
Flags: HMW
LayerCount: 2
Back
Fore
SplineSet
52.5 298 m 257
 52.5 681 l 257
 106.5 639 204 634 204 542 c 256
 204 498 169.191 468 126 468 c 256
 111.333 468 96.333 471.333 81 478 c 257
 81 308 l 257
 52.5 298 l 257
81.1055 504.273 m 257
 89.5996 499.699 100.382 497.413 113.448 497.413 c 256
 145.454 497.413 159 521.915 159 545.438 c 256
 159 586.602 127.17 606.203 81.1055 636.587 c 257
 81.1055 504.273 l 257
EndSplineSet
Refer: 469 3515 N 1 0 0 1 0 0 2
EndChar

StartChar: si_RAae
Encoding: 361 -1 313
GlifName: si_R_A_ae
Width: 681
VWidth: 0
GlyphClass: 2
Flags: HMW
LayerCount: 2
Back
Fore
SplineSet
437.75 420.75 m 257
 437.75 446.25 l 257
 546.5 505.5 l 257
 531.167 511.5 515.782 530.253 507 550 c 257
 502.333 540.667 487.417 527 456.75 509 c 257
 464.441 525.175 496.769 599.311 503 610 c 257
 514.116 608.738 526.281 594.399 527.75 583.75 c 256
 530.417 564.417 536.622 555.163 547.75 541 c 256
 555.083 531.667 567.763 522.613 582 516 c 257
 581.75 495.25 l 257
 490 445.25 l 257
 585.75 445.25 l 257
 585.75 422.75 l 257
 562.129 397.407 503 328.813 503 231 c 256
 503 177.005 530.064 128 575.75 128 c 256
 600.623 128 617 141.265 617 157.5 c 257
 637 157.5 l 257
 640.042 150.003 642 127.417 642 118.75 c 256
 642 36.6104 609.461 0 554 0 c 256
 459.926 0 452.5 114.287 452.5 186 c 256
 452.5 313.918 521.076 387.345 550.75 420.75 c 257
 437.75 420.75 l 257
EndSplineSet
Refer: 469 3515 N 1 0 0 1 0 0 2
EndChar

StartChar: si_RAe
Encoding: 360 -1 314
GlifName: si_R_A_e
Width: 681
VWidth: 0
GlyphClass: 2
Flags: HMW
LayerCount: 2
Back
Fore
SplineSet
451 221.25 m 256
 451 359.902 507.75 496.299 507.75 553 c 257
 507.928 553.159 507.988 606.427 508 608.5 c 257
 526.88 601.461 535.25 580.489 535.25 563.25 c 256
 535.25 489.864 497.5 418.186 497.5 268.25 c 256
 497.5 158.23 531.771 132 570.75 132 c 256
 588.712 132 611.75 148.628 611.75 167.5 c 257
 637 167.5 l 257
 639.881 162.411 641.5 139.417 641.5 130.75 c 256
 641.5 44.7997 609.461 0 554 0 c 256
 459.926 0 451 113.538 451 221.25 c 256
EndSplineSet
Refer: 469 3515 N 1 0 0 1 0 0 2
EndChar

StartChar: si_RI
Encoding: 362 -1 315
GlifName: si_R_I_
Width: 466
VWidth: 0
GlyphClass: 2
Flags: HMW
LayerCount: 2
Back
Fore
SplineSet
49 498 m 256
 49 589.834 164.291 658 270 658 c 256
 332.341 658 392.086 632.427 392 567 c 256
 391.983 553.633 388.896 533.299 382 522 c 257
 369.996 513.577 354.539 499.729 341 492.75 c 257
 348.948 503.698 357.5 521.073 357.5 542 c 256
 357.5 585.334 315.82 587 299 587 c 256
 241.363 587 117 540.716 117 469.5 c 256
 117 435.553 147.193 426 172 426 c 256
 191.977 426 194.682 427.344 212 431.5 c 257
 203.46 425.808 167.765 409.565 150 404 c 257
 85.8001 406.918 49 439.625 49 498 c 256
EndSplineSet
Refer: 469 3515 N 1 0 0 1 0 0 2
EndChar

StartChar: si_RU
Encoding: 364 -1 317
GlifName: si_R_U_
Width: 813
VWidth: 0
GlyphClass: 2
Flags: HMW
LayerCount: 2
Back
Fore
SplineSet
438 311.25 m 257
 438 339 l 257
 727.75 339 l 257
 727.083 337 725.833 329.167 724.5 320.5 c 257
 671.721 238.489 656.75 169 656.75 90 c 256
 656.75 26.4375 680.112 -48.9266 737.178 -76 c 256
 749.97 -82.0688 764.455 -85.711 780.75 -86.25 c 257
 784.75 -106 l 257
 757.417 -136.667 717.5 -147 676.5 -147 c 256
 591.5 -147 528.75 -83.2432 528.75 18.25 c 256
 528.75 154.791 627.282 247.412 687 311.25 c 257
 438 311.25 l 257
EndSplineSet
Refer: 469 3515 N 1 0 0 1 0 0 2
EndChar

StartChar: si_RUu
Encoding: 365 -1 318
GlifName: si_R_U_u
Width: 813
VWidth: 0
GlyphClass: 2
Flags: HMW
LayerCount: 2
Back
Fore
SplineSet
440 312.5 m 257
 440 339 l 257
 728 339 l 257
 728 317 l 257
 601 223 l 257
 751 223 l 257
 751 200.5 l 257
 705.438 165.34 667 118.345 667 36 c 256
 667 -28.8525 705.107 -99.75 785 -99.75 c 257
 785 -126.75 l 257
 751.648 -141.067 716.352 -148 686.25 -148 c 256
 595.658 -148 534.75 -91.1875 534.75 -16 c 256
 534.75 93.2988 638.167 155.98 706.5 196.5 c 257
 551 196.5 l 257
 551 221.25 l 257
 676.75 312.5 l 257
 440 312.5 l 257
EndSplineSet
Refer: 469 3515 N 1 0 0 1 0 0 2
EndChar

StartChar: si_Rakar
Encoding: 89 -1 319
GlifName: si_R_akar
Width: 2
VWidth: 0
GlyphClass: 2
Flags: HMW
LayerCount: 2
Back
Fore
SplineSet
-600.619140625 -15.8076171875 m 5
 -600.619140625 -114.624023438 l 6
 -600.619140625 -144.618164062 -583.703125 -158.821289062 -556.619140625 -158.821289062 c 6
 -104.598632812 -158.821289062 l 6
 -79.265625 -158.821289062 -63.5986328125 -147.38671875 -63.5986328125 -115.821289062 c 6
 -63.5986328125 -15.8076171875 l 5
 -187.603515625 -15.8076171875 l 5
 -187.603515625 -34.8095703125 l 6
 -187.603515625 -47.6875 -188.319335938 -52.810546875 -201.19921875 -52.810546875 c 6
 -463.619140625 -52.810546875 l 6
 -474.952148438 -52.810546875 -476.614257812 -46.810546875 -476.614257812 -34.810546875 c 6
 -476.614257812 -15.8076171875 l 5
 -600.619140625 -15.8076171875 l 5
EndSplineSet
EndChar

StartChar: si_Reph
Encoding: 88 -1 320
GlifName: si_R_eph
Width: 2
VWidth: 0
GlyphClass: 2
Flags: HMW
LayerCount: 2
Back
Fore
SplineSet
-469.208984375 621.401367188 m 5
 -385 621.401367188 l 5
 -385 555.401367188 l 6
 -385 528.223632812 -396.491210938 518.401367188 -416 518.401367188 c 6
 -588 518.401367188 l 6
 -614.469726562 518.401367188 -628 532.296875 -628 564.401367188 c 6
 -628 662.401367188 l 6
 -628 691.138671875 -610.750976562 710.401367188 -574 710.401367188 c 6
 -289 710.401367188 l 6
 -255.5546875 710.401367188 -238 693.580078125 -238 654.401367188 c 6
 -238 521.401367188 l 5
 -351 521.401367188 l 5
 -351 623.401367188 l 6
 -351 638.734375 -356.333007812 646.401367188 -367 646.401367188 c 6
 -500 646.401367188 l 6
 -510.666992188 646.401367188 -516 642.068359375 -516 633.401367188 c 6
 -516 605.401367188 l 6
 -516 596.734375 -512.280273438 592.401367188 -504 592.401367188 c 6
 -482 592.401367188 l 6
 -470.735351562 592.401367188 -469.208984375 597.734375 -469.208984375 608.401367188 c 6
 -469.208984375 621.401367188 l 5
EndSplineSet
EndChar

StartChar: si_S.halant
Encoding: 398 -1 321
GlifName: si_S_.halant
Width: 564
VWidth: 0
GlyphClass: 2
Flags: HMW
LayerCount: 2
Back
Fore
SplineSet
491.5 427 m 257
 491.5 681 l 257
 545.5 639 643 634 643 542 c 256
 643 498 608.191 468 565 468 c 256
 550.333 468 535.333 471.333 520 478 c 257
 520 410 l 257
 491.5 427 l 257
520.105 504.273 m 257
 528.6 499.699 539.382 497.413 552.448 497.413 c 256
 584.454 497.413 598 521.915 598 545.438 c 256
 598 586.602 566.17 606.203 520.105 636.587 c 257
 520.105 504.273 l 257
EndSplineSet
Refer: 474 3523 N 1 0 0 1 0 0 2
EndChar

StartChar: si_SI
Encoding: 399 -1 322
GlifName: si_S_I_
Width: 564
VWidth: 0
GlyphClass: 2
Flags: HMW
LayerCount: 2
Back
Fore
SplineSet
24 511 m 5
 24 595.802734375 l 6
 24 625.796875 40.916015625 640 68 640 c 6
 490.201171875 640 l 6
 515.534179688 640 531.201171875 628.565429688 531.201171875 597 c 6
 531.201171875 511 l 5
 407.196289062 511 l 5
 407.196289062 528 l 6
 407.196289062 540.877929688 406.48046875 546.000976562 393.600585938 546.000976562 c 6
 161 546.000976562 l 6
 149.666992188 546.000976562 148.004882812 540.000976562 148.004882812 528.000976562 c 6
 148.004882812 511 l 5
 24 511 l 5
EndSplineSet
Refer: 474 3523 N 1 0 0 1 0 0 2
EndChar

StartChar: si_SIi
Encoding: 400 -1 323
GlifName: si_S_I_i
Width: 564
VWidth: 0
GlyphClass: 2
Flags: HMW
LayerCount: 2
Back
Fore
SplineSet
382.588867188 582.198242188 m 2
 372.588867188 582.198242188 367.588867188 578.198242188 367.588867188 570.198242188 c 2
 367.588867188 562.010742188 l 2
 367.588867188 553.34375 372.921875 549.010742188 383.588867188 549.010742188 c 2
 424.588867188 549.010742188 l 2
 435.255859375 549.010742188 440.588867188 553.677734375 440.588867188 563.010742188 c 2
 440.588867188 570.198242188 l 2
 440.588867188 578.198242188 434.921875 582.198242188 423.588867188 582.198242188 c 2
 382.588867188 582.198242188 l 2
160.995117188 546.000976562 m 6
 150.004882812 546 148 540.000976562 148 528.000976562 c 6
 148 511 l 5
 23.9951171875 511 l 5
 23.9951171875 595.802734375 l 6
 23.9951171875 625.796875 40.21484375 640.010742188 67.205078125 640.010742188 c 6
 490.790039062 640.01171875 l 2
 518.26953125 640.011782103 532.588867188 626.66015625 532.588867188 600 c 2
 532.588867188 540.99609375 l 2
 532.588867188 521 522.586914062 510.99609375 502.588867188 510.99609375 c 2
 302.588867188 510.994140625 l 2
 279.313476562 510.994140625 274.588867188 520.250976562 274.588867188 531.99609375 c 2
 274.588867188 537.993164062 l 2
 274.588867188 542.524414062 275.40625 545.001953125 276.98828125 545.993164062 c 1
 160.995117188 546.000976562 l 6
EndSplineSet
Refer: 474 3523 N 1 0 0 1 0 0 2
EndChar

StartChar: si_SRI
Encoding: 405 -1 324
GlifName: si_S_R_I_
Width: 677
VWidth: 0
GlyphClass: 2
Flags: HMW
LayerCount: 2
Back
Fore
SplineSet
74.25 -44 m 257
 103.75 -44 l 257
 141.226 -86.958 217.417 -114.25 322.75 -114.25 c 256
 465.75 -114.25 583 -31.0107 583 63.25 c 256
 583 78.2842 581.438 90.4463 576 102 c 257
 589 133 l 257
 607 106.333 616 74.667 616 38 c 256
 616 -123.729 481.5 -219 337.5 -219 c 256
 198.368 -219 111.583 -153.333 74.25 -44 c 257
EndSplineSet
Refer: 322 -1 N 1 0 0 1 0 0 2
EndChar

StartChar: si_SRIi
Encoding: 406 -1 325
GlifName: si_S_R_I_i
Width: 677
VWidth: 0
GlyphClass: 2
Flags: HMW
LayerCount: 2
Back
Fore
SplineSet
74.25 -44 m 257
 103.75 -44 l 257
 141.226 -86.958 217.417 -114.25 322.75 -114.25 c 256
 465.75 -114.25 583 -31.0107 583 63.25 c 256
 583 78.2842 581.438 90.4463 576 102 c 257
 589 133 l 257
 607 106.333 616 74.667 616 38 c 256
 616 -123.729 481.5 -219 337.5 -219 c 256
 198.368 -219 111.583 -153.333 74.25 -44 c 257
EndSplineSet
Refer: 323 -1 S 1 0 0 1 0 0 2
EndChar

StartChar: si_SRa
Encoding: 404 -1 326
GlifName: si_S_R_a
Width: 564
VWidth: 0
GlyphClass: 2
Flags: HMW
LayerCount: 2
Back
Fore
SplineSet
74.25 -44 m 257
 103.75 -44 l 257
 141.226 -86.958 217.417 -114.25 322.75 -114.25 c 256
 465.75 -114.25 583 -31.0107 583 63.25 c 256
 583 78.2842 581.438 90.4463 576 102 c 257
 589 133 l 257
 607 106.333 616 74.667 616 38 c 256
 616 -123.729 481.5 -219 337.5 -219 c 256
 198.368 -219 111.583 -153.333 74.25 -44 c 257
EndSplineSet
Refer: 474 3523 N 1 0 0 1 0 0 2
EndChar

StartChar: si_SU
Encoding: 401 -1 327
GlifName: si_S_U_
Width: 564
VWidth: 0
GlyphClass: 2
Flags: HMW
LayerCount: 2
Back
Fore
SplineSet
534 -159 m 5
 24.716796875 -159 l 5
 24.716796875 -53 l 5
 411 -53 l 5
 411 25 l 5
 483 25 l 6
 511.666992188 25 528.666992188 38 534 64 c 5
 534 -159 l 5
EndSplineSet
Refer: 474 3523 N 1 0 0 1 0 0 2
EndChar

StartChar: si_SUu
Encoding: 402 -1 328
GlifName: si_S_U_u
Width: 564
VWidth: 0
GlyphClass: 2
Flags: HMW
LayerCount: 2
Back
Fore
SplineSet
534.006835938 -158.999023438 m 5
 417.407226562 -158.999023438 l 5
 409.852539062 -151.036132812 401.940429688 -141.53515625 394.211914062 -136.201171875 c 4
 384.041015625 -129.181640625 372.520507812 -129.001953125 362.412109375 -129.001953125 c 5
 328.198242188 -129.001953125 l 5
 316.22265625 -129.001953125 306.626953125 -131.704101562 294.198242188 -136.802734375 c 13
 250.994140625 -153.803710938 l 5
 239.206054688 -158.020507812 227.201171875 -162.8046875 199.201171875 -162.8046875 c 6
 73.19921875 -162.8046875 l 6
 40.78515625 -162.8046875 25.1982421875 -150.575195312 25.1982421875 -122.001953125 c 6
 25.1982421875 -29.0029296875 l 5
 142.198242188 -29.0029296875 l 5
 142.198242188 -51.001953125 l 6
 142.198242188 -62.2861328125 147.06640625 -69.0029296875 159.002929688 -69.0029296875 c 6
 201.19140625 -69.0029296875 l 6
 214.19140625 -69.0029296875 230.3359375 -65.4404296875 247.190429688 -58.80078125 c 5
 284.194335938 -46.0009765625 l 21
 297.16015625 -40.673828125 310.346679688 -39.001953125 325.994140625 -39.001953125 c 5
 364.420898438 -39.001953125 l 5
 374.381835938 -39.001953125 391.444335938 -39.1923828125 399.6171875 -45.001953125 c 4
 405.423828125 -49.1298828125 406.2578125 -50.2412109375 411.004882812 -55.001953125 c 5
 411.004882812 14 l 5
 489.006835938 14 l 6
 515.006835938 14 530.006835938 28 534.006835938 56 c 5
 534.006835938 -158.999023438 l 5
EndSplineSet
Refer: 474 3523 N 1 0 0 1 0 0 2
EndChar

StartChar: si_Sa.reph
Encoding: 403 -1 329
GlifName: si_S_a.reph
Width: 564
VWidth: 0
GlyphClass: 2
Flags: HMW
LayerCount: 2
Back
Fore
SplineSet
296.15 511 m 256
 296.15 490.854 314.378 474.547 336.25 474.547 c 256
 358.122 474.547 376.35 490.854 376.35 511 c 256
 376.35 531.146 358.122 547.453 336.25 547.453 c 256
 314.378 547.453 296.15 531.146 296.15 511 c 256
193.25 530 m 256
 193.25 594 251.37 631 333.25 631 c 256
 410.25 631 474.25 588 474.25 517 c 256
 474.25 493 465.917 471.333 449.25 452 c 257
 413.5 452 l 257
 426.67 464.387 442.25 488.734 442.25 516 c 256
 442.25 570.521 393.25 602.5 332.25 602.5 c 256
 279.472 602.5 226 579.99 226 530 c 256
 226 490.925 269.151 473.688 286.75 471.25 c 257
 278.75 477.25 268.25 491 268.25 512 c 256
 268.25 547 299.604 572 335.25 572 c 256
 376.25 572 404.25 545 404.25 510 c 256
 404.25 471 369.25 445 311.25 445 c 256
 252.25 445 193.25 474 193.25 530 c 256
EndSplineSet
Refer: 474 3523 N 1 0 0 1 0 0 2
EndChar

StartChar: si_T.halant
Encoding: 239 -1 348
GlifName: si_T_.halant
Width: 592
VWidth: 0
GlyphClass: 2
Flags: HMW
LayerCount: 2
Back
Fore
SplineSet
510.5 348 m 257
 510.5 681 l 257
 564.5 639 662 634 662 542 c 256
 662 498 627.191 468 584 468 c 256
 569.333 468 554.333 471.333 539 478 c 257
 539 331 l 257
 510.5 348 l 257
539.105 504.273 m 257
 547.6 499.699 558.382 497.413 571.448 497.413 c 256
 603.454 497.413 617 521.915 617 545.438 c 256
 617 586.602 585.17 606.203 539.105 636.587 c 257
 539.105 504.273 l 257
EndSplineSet
Refer: 456 3501 N 1 0 0 1 0 0 2
EndChar

StartChar: si_TI
Encoding: 240 -1 349
GlifName: si_T_I_
Width: 592
VWidth: 0
GlyphClass: 2
Flags: HMW
LayerCount: 2
Back
Fore
SplineSet
211.5 421 m 256
 211.5 590 333.637 671 448 671 c 256
 574.912 671 662 610 662 505 c 256
 662 444 628.837 400.84 576 380 c 257
 546 401.25 l 257
 580.095 405.657 607 426.338 607 456 c 256
 607 514.546 530 549.75 448 549.75 c 256
 325.231 549.75 240 473.841 240 396.25 c 256
 240 386.95 241.157 375.107 243.75 365.5 c 257
 218.5 343 l 257
 214.403 360.752 211.5 389.837 211.5 421 c 256
EndSplineSet
Refer: 456 3501 N 1 0 0 1 0 0 2
EndChar

StartChar: si_TIi
Encoding: 241 -1 350
GlifName: si_T_I_i
Width: 592
VWidth: 0
GlyphClass: 2
Flags: HMW
LayerCount: 2
Back
Fore
SplineSet
506.86 476 m 256
 506.86 444.07 534.179 417.29 566.75 417.29 c 256
 599.321 417.29 626.64 444.07 626.64 476 c 256
 626.64 507.93 599.321 534.71 566.75 534.71 c 256
 534.179 534.71 506.86 507.93 506.86 476 c 256
211.307 421 m 256
 211.307 580.165 321.962 671 448.75 671 c 256
 578.75 671 664.75 600 664.75 495 c 256
 664.75 444 626.75 388 568.75 388 c 256
 510.75 388 475.75 433 475.75 477 c 256
 475.75 503.501 486.072 519.417 495.104 530 c 256
 499.333 534.955 503.279 538.741 505.75 541.896 c 257
 490.362 548.204 466.273 550 447.75 550 c 256
 335.483 550 239.276 481.067 239.276 397 c 256
 239.276 384.966 240.877 374.299 244.078 365 c 257
 218.028 343 l 257
 214.094 360.752 211.307 389.837 211.307 421 c 256
EndSplineSet
Refer: 456 3501 N 1 0 0 1 0 0 2
EndChar

StartChar: si_TRI
Encoding: 246 -1 351
GlifName: si_T_R_I_
Width: 704
VWidth: 0
GlyphClass: 2
Flags: HMW
LayerCount: 2
Back
Fore
SplineSet
110.75 -44 m 257
 140.25 -44 l 257
 173.783 -93.29 230.552 -113.75 343.75 -113.75 c 256
 495.314 -113.75 627 -31.0107 627 63.25 c 256
 627 78.2842 624.25 90.793 617.25 102 c 257
 630.25 133 l 257
 648.25 106.333 657.25 74.667 657.25 38 c 256
 657.25 -123.729 517.8 -219 366.25 -219 c 256
 235.619 -219 148.083 -153.333 110.75 -44 c 257
EndSplineSet
Refer: 349 -1 N 1 0 0 1 0 0 2
EndChar

StartChar: si_TRIi
Encoding: 247 -1 352
GlifName: si_T_R_I_i
Width: 704
VWidth: 0
GlyphClass: 2
Flags: HMW
LayerCount: 2
Back
Fore
SplineSet
110.75 -44 m 257
 140.25 -44 l 257
 173.783 -93.29 230.552 -113.75 343.75 -113.75 c 256
 495.314 -113.75 627 -31.0107 627 63.25 c 256
 627 78.2842 624.25 90.793 617.25 102 c 257
 630.25 133 l 257
 648.25 106.333 657.25 74.667 657.25 38 c 256
 657.25 -123.729 517.8 -219 366.25 -219 c 256
 235.619 -219 148.083 -153.333 110.75 -44 c 257
EndSplineSet
Refer: 350 -1 N 1 0 0 1 0 0 2
EndChar

StartChar: si_TRa
Encoding: 245 -1 353
GlifName: si_T_R_a
Width: 592
VWidth: 0
GlyphClass: 2
Flags: HMW
LayerCount: 2
Back
Fore
SplineSet
110.75 -44 m 257
 140.25 -44 l 257
 173.783 -93.29 230.552 -113.75 343.75 -113.75 c 256
 495.314 -113.75 627 -31.0107 627 63.25 c 256
 627 78.2842 624.25 90.793 617.25 102 c 257
 630.25 133 l 257
 648.25 106.333 657.25 74.667 657.25 38 c 256
 657.25 -123.729 517.8 -219 366.25 -219 c 256
 235.619 -219 148.083 -153.333 110.75 -44 c 257
EndSplineSet
Refer: 456 3501 N 1 0 0 1 0 0 2
EndChar

StartChar: si_TThI
Encoding: 477 -1 354
GlifName: si_T_T_hI_
Width: 1016
VWidth: 0
GlyphClass: 2
Flags: HMW
LayerCount: 2
Back
Fore
SplineSet
506.75 574 m 256
 506.75 665.82 621.109 700.25 729.25 700.25 c 256
 831.417 700.25 950.75 664.09 950.75 573 c 256
 950.75 526.275 913.138 498.25 858.25 498.25 c 257
 852.668 502.863 845.575 513.196 841.75 520.75 c 257
 854.312 521.31 900.75 525.594 900.75 557 c 256
 900.75 602.026 806.224 618.5 731.75 618.5 c 256
 613.083 618.5 554.75 593.236 554.75 556.75 c 256
 554.75 528.929 588.891 516 622.75 516 c 256
 668.066 516 701.691 528.609 718.75 536.75 c 257
 717.329 530.495 718.465 519.611 714.75 503.75 c 257
 689.717 496.058 664.117 487.75 620.75 487.75 c 256
 560.55 487.75 506.75 515.942 506.75 574 c 256
EndSplineSet
Refer: 385 -1 N 1 0 0 1 0 0 2
EndChar

StartChar: si_TThU
Encoding: 479 -1 356
GlifName: si_T_T_hU_
Width: 1016
VWidth: 0
GlyphClass: 2
Flags: HMW
LayerCount: 2
Back
Fore
SplineSet
454.25 -142.5 m 256
 454.25 -90.4912 500.543 -50.5 555.75 -50.5 c 256
 597.656 -50.5 635 -74.1416 649.75 -110 c 257
 617 -121.5 l 257
 610.176 -104.358 588.75 -81.75 555.75 -81.75 c 256
 519.046 -81.75 489.75 -109.716 489.75 -142.5 c 256
 489.75 -171.663 511.498 -192.5 581.25 -192.5 c 258
 922.75 -192.5 l 257
 922.75 128 l 257
 958 219 l 257
 958 -235 l 257
 559.75 -235 l 258
 480.207 -235 454.25 -186.092 454.25 -142.5 c 256
EndSplineSet
Refer: 385 -1 N 1 0 0 1 0 0 2
EndChar

StartChar: si_TThUu
Encoding: 480 -1 357
GlifName: si_T_T_hU_u
Width: 1016
VWidth: 0
GlyphClass: 2
Flags: HMW
LayerCount: 2
Back
Fore
SplineSet
453.5 -138 m 256
 453.5 -80 502.5 -40 555.5 -40 c 256
 597.5 -40 629.833 -55 652.5 -91 c 257
 619.5 -102 l 257
 608.184 -84.6992 589.5 -70 560.5 -70 c 256
 521.5 -70 496.5 -95.0762 496.5 -120 c 256
 496.5 -151.995 525.315 -167 559.5 -167 c 256
 635.715 -167 694.577 -114.5 802.25 -114.5 c 256
 853.332 -114.5 896 -133.75 923 -165.75 c 257
 923 152 l 257
 958 212 l 257
 958 -231 l 257
 932.5 -231 l 257
 917.5 -195 875.199 -146.25 812.25 -146.25 c 256
 721.25 -146.25 662.5 -237 564.5 -237 c 256
 509.5 -237 453.5 -206 453.5 -138 c 256
EndSplineSet
Refer: 385 -1 N 1 0 0 1 0 0 2
EndChar

StartChar: si_TUu
Encoding: 243 -1 360
GlifName: si_T_U_u
Width: 592
VWidth: 0
GlyphClass: 2
Flags: HMW
LayerCount: 2
Back
Fore
SplineSet
394.946 -129 m 256
 394.946 -93.3486 423.934 -72 458.946 -67 c 257
 403.946 -39 l 257
 489.196 -14.5 l 257
 454 -1 l 257
 454 21.5 l 257
 551.196 -15 l 257
 466.696 -43.25 l 257
 526.946 -76 l 257
 498.946 -83 444.946 -83.4658 444.946 -104.5 c 256
 444.946 -120.922 476.87 -129 518.946 -129 c 256
 572.946 -129 617.175 -112.984 617.175 -82 c 256
 617.175 -77 616.442 -66.9287 611.196 -59 c 257
 645.946 -59 l 257
 649.537 -71.1182 650.25 -82.833 650.25 -94 c 256
 650.25 -161 598.946 -205 516.946 -205 c 256
 458.946 -205 394.946 -187.466 394.946 -129 c 256
EndSplineSet
Refer: 456 3501 N 1 0 0 1 0 0 2
EndChar

StartChar: si_TVU
Encoding: 485 -1 364
GlifName: si_T_V_U_
Width: 1001
VWidth: 0
GlyphClass: 2
Flags: HMW
LayerCount: 2
Back
Fore
SplineSet
449 -142.5 m 256
 449 -90.4912 495.293 -50.5 550.5 -50.5 c 256
 592.406 -50.5 629.75 -74.1416 644.5 -110 c 257
 611.75 -121.5 l 257
 604.926 -104.358 583.5 -81.75 550.5 -81.75 c 256
 513.796 -81.75 484.5 -109.716 484.5 -142.5 c 256
 484.5 -171.663 506.248 -192.5 576 -192.5 c 258
 907.75 -192.5 l 257
 907.75 128 l 257
 943 219 l 257
 943 -235 l 257
 554.5 -235 l 258
 474.957 -235 449 -186.092 449 -142.5 c 256
EndSplineSet
Refer: 388 -1 N 1 0 0 1 0 0 2
EndChar

StartChar: si_TVUu
Encoding: 486 -1 365
GlifName: si_T_V_U_u
Width: 1001
VWidth: 0
GlyphClass: 2
Flags: HMW
LayerCount: 2
Back
Fore
SplineSet
451 -138 m 256
 451 -80 500 -40 553 -40 c 256
 595 -40 627.333 -55 650 -91 c 257
 617 -102 l 257
 605.684 -84.6992 587 -70 558 -70 c 256
 519 -70 494 -95.0762 494 -120 c 256
 494 -151.995 522.815 -167 557 -167 c 256
 633.215 -167 689.451 -114.5 789.5 -114.5 c 256
 836.085 -114.5 881 -133.75 908 -165.75 c 257
 908 152 l 257
 943 212 l 257
 943 -231 l 257
 917.5 -231 l 257
 902.5 -195 862.449 -146.25 799.5 -146.25 c 256
 708.5 -146.25 660 -237 562 -237 c 256
 507 -237 451 -206 451 -138 c 256
EndSplineSet
Refer: 388 -1 N 1 0 0 1 0 0 2
EndChar

StartChar: si_Ta.reph
Encoding: 244 -1 367
GlifName: si_T_a.reph
Width: 592
VWidth: 0
GlyphClass: 2
Flags: HMW
LayerCount: 2
Back
Fore
SplineSet
371.4 511 m 256
 371.4 490.854 389.628 474.547 411.5 474.547 c 256
 433.372 474.547 451.6 490.854 451.6 511 c 256
 451.6 531.146 433.372 547.453 411.5 547.453 c 256
 389.628 547.453 371.4 531.146 371.4 511 c 256
268.5 530 m 256
 268.5 594 326.62 631 408.5 631 c 256
 485.5 631 549.5 588 549.5 517 c 256
 549.5 493 541.167 471.333 524.5 452 c 257
 488.75 452 l 257
 501.92 464.387 517.5 488.734 517.5 516 c 256
 517.5 570.521 468.5 602.5 407.5 602.5 c 256
 354.722 602.5 301.25 579.99 301.25 530 c 256
 301.25 490.925 344.401 473.688 362 471.25 c 257
 354 477.25 343.5 491 343.5 512 c 256
 343.5 547 374.854 572 410.5 572 c 256
 451.5 572 479.5 545 479.5 510 c 256
 479.5 471 444.5 445 386.5 445 c 256
 327.5 445 268.5 474 268.5 530 c 256
EndSplineSet
Refer: 456 3501 N 1 0 0 1 0 0 2
EndChar

StartChar: si_ThI
Encoding: 249 -1 369
GlifName: si_T_hI_
Width: 515
VWidth: 0
GlyphClass: 2
Flags: HMW
LayerCount: 2
Back
Fore
SplineSet
189.998046875 448 m 5
 80 448 l 6
 49 448 34 463 34 493 c 6
 34 684 l 6
 34 714.666992188 52.338693083 736 90 736 c 6
 484.80078125 736 l 5
 484.80078125 660 l 5
 131 660 l 6
 115.442239965 660 106 656.559094926 106 640 c 6
 106 516 l 6
 106 500.211914062 112.099199978 498 124 498 c 6
 190 498 l 5
 189.998046875 448 l 5
EndSplineSet
Refer: 457 3502 N 1 0 0 1 0 0 2
EndChar

StartChar: si_ThIi
Encoding: 250 -1 370
GlifName: si_T_hI_i
Width: 515
VWidth: 1000
GlyphClass: 2
Flags: HMW
LayerCount: 2
Back
Fore
SplineSet
338 691 m 6
 328 691 323 687 323 679 c 6
 323 658 l 6
 323 649.333333333 328.333333333 645 339 645 c 6
 380 645 l 6
 390.666666667 645 396 649.666666667 396 659 c 6
 396 679 l 6
 396 687 390.333333333 691 379 691 c 6
 338 691 l 6
258 621.998046875 m 6
 234.724609375 621.998046875 230 631.254882812 230 643 c 6
 230 652 l 6
 230 656.531445085 230.817382812 659.008789062 232.399414062 660 c 13
 131 660 l 6
 115 660 106 656.559094926 106 640 c 6
 106 516 l 6
 106 500.211914062 112.099199978 498 124 498 c 6
 190 498 l 5
 189.998046875 448 l 5
 80 448 l 6
 49 448 34 463 34 493 c 6
 34 684 l 6
 34 714.666992188 52 736 90 736 c 6
 452.799804688 736.000976562 l 6
 475.799804688 736.000976562 488 726.333984375 488 707.000976562 c 6
 488 652 l 6
 488 632 477.998315121 622.000195296 458 622 c 6
 258 621.998046875 l 6
EndSplineSet
Refer: 457 3502 N 1 0 0 1 0 0 2
EndChar

StartChar: si_Tha.reph
Encoding: 253 -1 373
GlifName: si_T_ha.reph
Width: 515
VWidth: 0
GlyphClass: 2
Flags: HMW
LayerCount: 2
Back
Fore
SplineSet
116.15 511 m 256
 116.15 490.854 134.378 474.547 156.25 474.547 c 256
 178.122 474.547 196.35 490.854 196.35 511 c 256
 196.35 531.146 178.122 547.453 156.25 547.453 c 256
 134.378 547.453 116.15 531.146 116.15 511 c 256
13.25 530 m 256
 13.25 594 71.3701 631 153.25 631 c 256
 230.25 631 294.25 588 294.25 517 c 256
 294.25 493 285.917 471.333 269.25 452 c 257
 233.5 452 l 257
 246.67 464.387 262.25 488.734 262.25 516 c 256
 262.25 570.521 213.25 602.5 152.25 602.5 c 256
 99.4717 602.5 46 579.99 46 530 c 256
 46 490.925 89.1514 473.688 106.75 471.25 c 257
 98.75 477.25 88.25 491 88.25 512 c 256
 88.25 547 119.604 572 155.25 572 c 256
 196.25 572 224.25 545 224.25 510 c 256
 224.25 471 189.25 445 131.25 445 c 256
 72.25 445 13.25 474 13.25 530 c 256
EndSplineSet
Refer: 457 3502 N 1 0 0 1 0 0 2
EndChar

StartChar: si_Tt.halant
Encoding: 200 -1 374
GlifName: si_T_t.halant
Width: 515
VWidth: 1000
GlyphClass: 2
Flags: HMW
LayerCount: 2
Back
Fore
SplineSet
485 400 m 5
 361 400 l 5
 361 441 l 6
 361 459.349108321 354.06133753 464 335 464 c 6
 14 464 l 5
 14 550 l 5
 94 550 l 5
 64.6666666667 557.333333333 50 571.666666666 50 593 c 6
 50 632 l 6
 50 659.333333333 66.3333333333 673 99 673 c 6
 483 673 l 5
 483 589 l 5
 206 589 l 6
 188 589 179 584.333333333 179 575 c 4
 179 565.22644019 186.925753818 558 197 558 c 6
 416 558 l 6
 471.441005528 558 485 533.686193211 485 477 c 6
 485 400 l 5
254 313.201171875 m 5
 167 313.201171875 l 6
 153 313.201171875 146 306.868164062 146 294.201171875 c 6
 146 129 l 6
 146 114.333007812 152 107 164 107 c 6
 343 107 l 6
 355 107 361 114.333007812 361 129 c 6
 361 415 l 5
 485 415 l 5
 485 54 l 6
 485 16.2705078125 472.075195312 0 435 0 c 6
 72 0 l 6
 34.927734375 0 22 16.2734375 22 54 c 6
 22 364.802734375 l 6
 22 401.469726562 40.6669921875 419.802734375 78 419.802734375 c 6
 253.998046875 419.802734375 l 5
 254 313.201171875 l 5
EndSplineSet
EndChar

StartChar: si_TtI
Encoding: 201 -1 375
GlifName: si_T_tI_
Width: 515
VWidth: 1000
GlyphClass: 2
Flags: HMW
LayerCount: 2
Back
Fore
SplineSet
485 400 m 5
 361 400 l 5
 361 441 l 6
 361 459.349108322 354.06133753 464 335 464 c 6
 69 464 l 6
 37.6666666667 464 22 480 22 512 c 6
 22 612 l 6
 22 656.156313995 37.8431358697 672 82 672 c 6
 483.5 672 l 5
 483.5 589 l 5
 165 589 l 6
 152.333007812 589 146 585.666666667 146 577 c 6
 146 568 l 6
 146 561.333333333 151.666666667 558 163 558 c 6
 416 558 l 6
 472.81416846 558 485 535.085000089 485 477 c 6
 485 400 l 5
254 313.201171875 m 5
 167 313.201171875 l 6
 153 313.201171875 146 306.868164062 146 294.201171875 c 6
 146 129 l 6
 146 114.333007812 152 107 164 107 c 6
 343 107 l 6
 355 107 361 114.333007812 361 129 c 6
 361 415 l 5
 485 415 l 5
 485 54 l 6
 485 16.2705078125 472.075195312 0 435 0 c 6
 72 0 l 6
 34.927734375 0 22 16.2734375 22 54 c 6
 22 364.802734375 l 6
 22 401.469726562 40.6669921875 419.802734375 78 419.802734375 c 6
 253.998046875 419.802734375 l 5
 254 313.201171875 l 5
EndSplineSet
EndChar

StartChar: si_TtIi
Encoding: 202 -1 376
GlifName: si_T_tI_i
Width: 515
VWidth: 1000
GlyphClass: 2
Flags: HMW
LayerCount: 2
Back
Fore
SplineSet
361 405 m 5
 361 434 l 6
 361 452.190543645 343.682574342 464 325 464 c 6
 65 464 l 6
 35.1570560595 464 22 472.771317872 22 505 c 6
 22 618 l 6
 22 654.859629233 35.4108204097 672 72 672 c 6
 435 672 l 6
 471.587569487 672 485 654.858131656 485 618 c 6
 485 552 l 6
 485 529.837830342 468.868088824 512.773617765 450 509 c 5
 471.911245267 502.152735855 485 474.274674872 485 445 c 6
 485 405 l 5
 361 405 l 5
232 539 m 5
 224.06628565 543.65574933 221 547.826031591 221 564 c 6
 221 575 l 6
 221 581.854980469 221.141925812 584.018230438 224 587 c 5
 153 587 l 6
 141.666666667 587 136 582.333333333 136 573 c 6
 136 554 l 6
 136 544 141.333333333 539 152 539 c 6
 232 539 l 5
326 594 m 6
 317.618943977 594 313 588.387773465 313 581 c 6
 313 558 l 6
 313 547.622646757 322.201151981 543 331 543 c 6
 368 543 l 6
 379.68243658 543 388 549.518346217 388 564 c 6
 388 582 l 6
 388 591.395955218 381.684582201 594 377 594 c 6
 326 594 l 6
254 313.201171875 m 1
 167 313.201171875 l 2
 153 313.201171875 146 306.868164062 146 294.201171875 c 2
 146 129 l 2
 146 114.333007812 152 107 164 107 c 2
 343 107 l 2
 355 107 361 114.333007812 361 129 c 2
 361 415 l 1
 485 415 l 1
 485 54 l 2
 485 16.2705078125 472.075195312 0 435 0 c 2
 72 0 l 2
 34.927734375 0 22 16.2734375 22 54 c 2
 22 364.802734375 l 2
 22 401.469726562 40.6669921875 419.802734375 78 419.802734375 c 2
 253.998046875 419.802734375 l 1
 254 313.201171875 l 1
EndSplineSet
EndChar

StartChar: si_TtRI
Encoding: 207 -1 377
GlifName: si_T_tR_I_
Width: 515
VWidth: 1000
GlyphClass: 2
Flags: HMW
LayerCount: 2
Back
Fore
SplineSet
22.3896484375 -15.8076171875 m 5
 22.3896484375 -114.82421875 l 6
 22.3896484375 -144.818359375 39.3056640625 -159.021484375 66.3896484375 -159.021484375 c 6
 442.19921875 -159.021484375 l 6
 467.532226562 -159.021484375 483.19921875 -147.586914062 483.19921875 -116.021484375 c 6
 483.19921875 -15.8076171875 l 5
 359.194335938 -15.8076171875 l 5
 359.194335938 -35.009765625 l 6
 359.194335938 -47.8876953125 358.478515625 -53.0107421875 345.598632812 -53.0107421875 c 6
 159.389648438 -53.0107421875 l 6
 148.056640625 -53.0107421875 146.39453125 -47.0107421875 146.39453125 -35.0107421875 c 6
 146.39453125 -15.8076171875 l 5
 22.3896484375 -15.8076171875 l 5
EndSplineSet
Refer: 375 -1 N 1 0 0 1 0 0 2
EndChar

StartChar: si_TtRIi
Encoding: 208 -1 378
GlifName: si_T_tR_I_i
Width: 515
VWidth: 1000
GlyphClass: 2
Flags: HMW
LayerCount: 2
Back
Fore
SplineSet
22.3896484375 -15.8076171875 m 5
 22.3896484375 -114.82421875 l 6
 22.3896484375 -144.818359375 39.3056640625 -159.021484375 66.3896484375 -159.021484375 c 6
 442.19921875 -159.021484375 l 6
 467.532226562 -159.021484375 483.19921875 -147.586914062 483.19921875 -116.021484375 c 6
 483.19921875 -15.8076171875 l 5
 359.194335938 -15.8076171875 l 5
 359.194335938 -35.009765625 l 6
 359.194335938 -47.8876953125 358.478515625 -53.0107421875 345.598632812 -53.0107421875 c 6
 159.389648438 -53.0107421875 l 6
 148.056640625 -53.0107421875 146.39453125 -47.0107421875 146.39453125 -35.0107421875 c 6
 146.39453125 -15.8076171875 l 5
 22.3896484375 -15.8076171875 l 5
EndSplineSet
Refer: 376 -1 N 1 0 0 1 0 0 2
EndChar

StartChar: si_TtRa
Encoding: 206 -1 379
GlifName: si_T_tR_a
Width: 515
VWidth: 0
GlyphClass: 2
Flags: HMW
LayerCount: 2
Back
Fore
SplineSet
22.3896484375 -15.8076171875 m 5
 22.3896484375 -114.82421875 l 6
 22.3896484375 -144.818359375 39.3056640625 -159.021484375 66.3896484375 -159.021484375 c 6
 442.19921875 -159.021484375 l 6
 467.532226562 -159.021484375 483.19921875 -147.586914062 483.19921875 -116.021484375 c 6
 483.19921875 -15.8076171875 l 5
 359.194335938 -15.8076171875 l 5
 359.194335938 -35.009765625 l 6
 359.194335938 -47.8876953125 358.478515625 -53.0107421875 345.598632812 -53.0107421875 c 6
 159.389648438 -53.0107421875 l 6
 148.056640625 -53.0107421875 146.39453125 -47.0107421875 146.39453125 -35.0107421875 c 6
 146.39453125 -15.8076171875 l 5
 22.3896484375 -15.8076171875 l 5
EndSplineSet
Refer: 450 3495 N 1 0 0 1 0 0 2
EndChar

StartChar: si_TtTha
Encoding: 435 -1 385
GlifName: si_T_tT_ha
Width: 1016
VWidth: 0
GlyphClass: 2
Flags: HMW
LayerCount: 2
Back
Fore
SplineSet
22 25 m 257
 35 130 104 245 165 313 c 257
 172 321 177.96 332 177.96 346 c 256
 177.96 372 166 385 152 385 c 256
 135.319 385 124.702 374.212 124 353.5 c 256
 123 324 113 293 78 293 c 256
 49 293 37 316.582 37 342 c 256
 37 392 78 433 127 433 c 256
 177.344 433 206.1 398.929 206.1 356 c 256
 206.1 352.364 205.833 349.628 205 347 c 257
 293.122 410.022 381.275 434 548.5 434 c 256
 572.415 434 610.104 433.616 643 430 c 257
 621.104 418.442 583.872 414.022 567 406 c 257
 414.024 406 291.601 387.65 206.75 308.5 c 257
 228.02 315.419 249 320 281 320 c 256
 382 320 459 268 459 162 c 256
 459 70 392 -2 282 -2 c 256
 134 -2 140 79 89 79 c 256
 65 79 54.667 53 46 9 c 257
 22 25 l 257
95 156 m 257
 104 163 116.667 165 128 165 c 256
 165 165 195 140 263 140 c 256
 338 140 389 161 389 217 c 256
 389 256 352 294 283 294 c 256
 233.649 294 191 282 159 259 c 257
 127.501 220.501 114 194 95 156 c 257
EndSplineSet
Refer: 457 3502 N 1 0 0 1 401 0 2
EndChar

StartChar: si_TtVa
Encoding: 481 -1 388
GlifName: si_T_tV_a
Width: 1001
VWidth: 0
GlyphClass: 2
Flags: HMW
LayerCount: 2
Back
Fore
SplineSet
22 25 m 257
 35 130 104 245 165 313 c 257
 172 321 177.96 332 177.96 346 c 256
 177.96 372 166 385 152 385 c 256
 135.319 385 124.702 374.212 124 353.5 c 256
 123 324 113 293 78 293 c 256
 49 293 37 316.582 37 342 c 256
 37 392 78 433 127 433 c 256
 177.344 433 206.1 398.218 206.1 358 c 256
 206.1 354.023 205.764 351.536 205 347 c 257
 227.776 363.338 270.996 394.775 345.5 416.769 c 256
 389.109 429.642 447.962 436 505.75 436 c 256
 526.766 436 581.066 433.335 602.75 427.75 c 257
 580.854 416.192 516.872 414.272 500 406.25 c 257
 457.537 406.25 401.985 400.785 351 386.73 c 256
 289.931 369.896 243.143 342.206 208.75 310 c 257
 227.298 314.99 249 320 281 320 c 256
 382 320 459 268 459 162 c 256
 459 70 392 -2 282 -2 c 256
 134 -2 140 79 89 79 c 256
 65 79 54.667 53 46 9 c 257
 22 25 l 257
95 156 m 257
 104 163 116.667 165 128 165 c 256
 165 165 195 140 263 140 c 256
 338 140 389 161 389 217 c 256
 389 256 352 294 283 294 c 256
 233.649 294 191 282 159 259 c 257
 127.501 220.501 114 194 95 156 c 257
EndSplineSet
Refer: 471 3520 N 1 0 0 1 404 0 2
EndChar

